<?xml version="1.0" standalone="no"?>
<!DOCTYPE svg PUBLIC "-//W3C//DTD SVG 1.1//EN" "http://www.w3.org/Graphics/SVG/1.1/DTD/svg11.dtd" >
<svg xmlns="http://www.w3.org/2000/svg">
<metadata></metadata>
<defs>
<font id="xenosFontRegular" horiz-adv-x="2048" >
<font-face units-per-em="2048" ascent="1536" descent="-512" />
<missing-glyph horiz-adv-x="1024" />
<glyph horiz-adv-x="0" />
<glyph />
<glyph unicode=" "  horiz-adv-x="1024" />
<glyph unicode="&#x09;" horiz-adv-x="1024" />
<glyph unicode="&#xa0;" horiz-adv-x="1024" />
<glyph unicode="A" horiz-adv-x="2050" d="M47 840v379h324v315l1333 2v-2l297 -305v-1741h-1630v1352h-324zM506 -377h1360v1495h-273v279h-1087v-178h762v-285v-94h-762v-1217zM651 -250q0 16 8.5 30.5t22.5 31.5q25 29 84 73q29 23 55.5 41.5t55.5 34.5l12 -16q-41 -33 -76 -65t-65 -66q-25 -29 -37 -43 q-6 -10 -9.5 -15.5t-5.5 -9.5v-2q0 -6 2 -8h4q8 0 13 2h2q14 4 28 12q111 78 242 367q76 150 117 293q-16 47 -23.5 101t-11.5 114q-2 10 -3 19t-1 20q0 8 1 14t1 14h10h-10q4 35 18 53q14 20 41 21q23 0 33 -10q12 -10 17 -33v-16q0 -16 -2 -23q0 -4 -1.5 -7t-1.5 -7 q-2 -4 -2 -6t-2 -5l-6 -6l-16 -8v17q2 8 2 20q0 20 -4 37q-2 10 -6 14q-2 2 -4 2h-3l-4 -8q-4 -14 -2 -35q0 -16 2 -40.5t7 -57.5q0 -10 4 -31l6 43h20q6 -23 6 -57q0 -20 -2 -45t-6 -53q12 -53 31 -101q59 -147 194 -235q4 -2 7.5 -4.5t7.5 -4.5q86 12 153 13h20.5t20.5 -2 q63 -4 93 -33h2q14 -12 18 -29v-2q0 -4 1 -5t1 -3q0 -4 -2 -6q0 -2 -2 -4q-4 -4 -8 -4h-4q-2 0 -2 2q-2 2 -2 4q-2 0 -2 2v2q-2 0 -2 1t-3 1q-8 8 -14 12q-23 14 -53 21q-4 0 -8 1t-13 1q-18 0 -48.5 -2t-73.5 -6q74 -33 161 -45q8 -2 21 -2q20 0 26 6q4 2 7 4v-2h18v-4 q0 -14 -10 -25q-8 -8 -29 -14q-10 -2 -18.5 -3t-18.5 -1q-147 16 -252 75q-23 -4 -51.5 -9t-66.5 -15q-55 -10 -129 -26.5t-168 -39.5q-96 -178 -189 -250q-36 -26 -63 -26h-2q-4 0 -6.5 1t-6.5 1q-20 2 -32 18q-6 8 -8.5 17.5t-4.5 19.5zM979 -2q84 33 169 56.5t175 39.5 q-121 88 -188 234q-4 8 -5 8q-16 -47 -40.5 -105.5t-59.5 -128.5q-14 -29 -26.5 -54t-24.5 -50zM1124 410q2 -4 2 -6.5t2 -6.5q4 14 6.5 25.5t4.5 23.5v3q0 6 -2 10zM1378 82l4 -2q4 2 9.5 2h9.5l-4 4q-4 -2 -9.5 -2t-9.5 -2zM1704 1227h158l-158 162v-162z" />
<glyph unicode="B" horiz-adv-x="2050" d="M6 510q0 213 80 398.5t219 322.5q137 139 321.5 219t395.5 80q213 0 397.5 -80t323.5 -219q139 -137 219 -322.5t80 -398.5q0 -211 -80 -394.5t-219 -322.5t-323.5 -219t-395.5 -80h-2q-211 0 -395.5 80t-321.5 219q-139 139 -219 322.5t-80 394.5zM150 510 q0 -182 68.5 -339t187.5 -277q121 -119 277.5 -187.5t338.5 -68.5q186 0 342.5 68.5t277.5 187.5q119 121 186.5 277.5t67.5 338.5q0 186 -67.5 343t-186.5 277q-121 119 -277.5 186.5t-342.5 67.5q-182 0 -339 -67.5t-277 -186.5q-119 -121 -187.5 -277.5t-68.5 -342.5z M465 492v18v22l8 15v6q8 6 14.5 16.5t6.5 20.5l350 348q29 29 78 29q25 0 43 -8.5t30 -20.5q27 -31 27 -76q0 -53 -27 -76l-172 -170h658q39 0 70.5 -29.5t31.5 -76.5q0 -41 -31.5 -72.5t-70.5 -31.5h-658l172 -166q27 -31 27 -78q0 -45 -27 -76q-25 -29 -73 -29 q-53 0 -78 29l-350 350q0 8 -6.5 16.5t-14.5 18.5v4z" />
<glyph unicode="C" d="M0 524q0 215 80 400.5t221 324.5q139 139 324.5 219t398.5 80t398.5 -80t324.5 -219t219 -324.5t80 -400.5q0 -211 -80 -396t-219 -325q-139 -141 -324.5 -221t-398.5 -80t-398.5 80t-324.5 221q-141 139 -221 324.5t-80 396.5zM143 524q0 -184 70 -340.5t188 -279.5 q123 -119 282 -188.5t341 -69.5q184 0 342 69.5t281 188.5q119 123 187.5 279.5t68.5 340.5t-69 343t-187 282q-123 119 -281 187.5t-342 68.5q-182 0 -341 -68.5t-282 -187.5q-119 -123 -188.5 -281.5t-69.5 -343.5zM465 524q0 47 29.5 78t72.5 31h660l-174 166 q-29 27 -29 78t29 77q14 12 31.5 20.5t43.5 8.5q25 0 44.5 -8t33.5 -21l348 -348q0 -10 8.5 -20.5t14.5 -18.5v-8l6 -10v-25v-20l-6 -12v-9q-6 -8 -14.5 -16t-8.5 -18l-348 -351q-26 -28 -75 -28h-3q-49 0 -75 28q-29 27 -29 78q0 53 29 74l174 170h-660q-43 0 -72.5 31.5 t-29.5 72.5z" />
<glyph unicode="D" horiz-adv-x="2052" d="M-4 510q0 215 81 400.5t222 326.5t326.5 221t396.5 80q215 0 400.5 -80t326.5 -221t221 -326.5t80 -400.5q0 -211 -80 -396.5t-221 -326.5t-326.5 -222t-398.5 -81h-2q-211 0 -396.5 81t-326.5 222t-222 326.5t-81 396.5zM141 510q0 -182 69 -341t189 -282 q123 -121 282 -189.5t341 -68.5q186 0 345 68.5t280 189.5q123 123 190.5 282t67.5 341q0 186 -68 345t-190 280q-121 123 -280 190.5t-345 67.5q-182 0 -341 -68t-282 -190q-121 -121 -189.5 -280t-68.5 -345zM522 403v218q0 12 15 30q8 12 28 13h918q18 0 28 -13 q12 -16 13 -30v-218q0 -18 -13 -32q-10 -10 -28 -11h-918q-18 0 -28 11q-14 18 -15 32z" />
<glyph unicode="E" horiz-adv-x="2045" d="M4 510q0 213 80 397.5t219 323.5t323.5 219t395.5 80q213 0 397.5 -80t323.5 -219t219 -323.5t80 -397.5q0 -211 -80 -395.5t-219 -323.5t-323.5 -219t-395.5 -80h-2q-211 0 -395.5 80t-323.5 219t-219 323.5t-80 395.5zM147 510q0 -182 69 -340t187 -279 q121 -119 279 -187.5t340 -68.5q184 0 341.5 68.5t278.5 187.5q119 121 187.5 279t68.5 340q0 184 -68.5 342t-187.5 278q-121 119 -278.5 187.5t-341.5 68.5q-182 0 -340 -68.5t-279 -187.5q-119 -121 -187.5 -278.5t-68.5 -341.5zM485 403v195q0 14 13 31q12 12 30 12h344 v344q0 18 13 31q14 12 30 12h195q18 0 31 -12q12 -12 12 -31v-344h344q18 0 31 -12q12 -16 12 -31v-195q0 -18 -12 -30t-31 -13h-344v-344q0 -18 -12 -30t-31 -13h-195q-16 0 -30 13q-12 12 -13 30v344h-344q-18 0 -30 13q-12 12 -13 30z" />
<glyph unicode="F" d="M0 510q0 215 80 400.5t221 324.5q139 141 324.5 220t396.5 79q215 0 400.5 -79t324.5 -220q141 -139 220 -324.5t79 -400.5q0 -211 -79 -396.5t-220 -324.5q-139 -141 -324.5 -221t-398.5 -80h-2q-211 0 -396.5 80t-324.5 221q-141 139 -221 324.5t-80 396.5zM145 510 q0 -182 68 -340t190 -279q121 -123 279 -190.5t340 -67.5q186 0 344 67.5t279 190.5q119 121 188.5 279t69.5 340q0 186 -70 344t-188 279q-121 119 -279 188.5t-344 69.5q-182 0 -340 -70t-279 -188q-123 -121 -190.5 -279t-67.5 -344zM453 557q0 23 4 43.5t10 42.5l158 21 q10 27 24.5 52t34.5 50l-59 149q23 27 65 54l135 -86q27 12 53.5 22t55.5 15l47 153q14 0 25.5 2t15.5 2q8 0 19.5 -2t23.5 -2l51 -153q29 -4 54.5 -14.5t50.5 -22.5l139 86q16 -14 32.5 -26.5t32.5 -27.5l-63 -153q20 -23 32.5 -47.5t24.5 -50.5l162 -21q4 -23 9 -43t7 -43 l-149 -76q0 -55 -16 -108l112 -123q-10 -23 -21.5 -39t-21.5 -33l-164 35q-18 -23 -38.5 -40t-47.5 -32l11 -164q-18 -10 -40 -16t-44 -14l-97 131q-16 -2 -32.5 -3t-26.5 -1q-12 0 -25.5 1t-27.5 1l-99 -129q-23 8 -43 14t-39 16l5 160q-23 16 -45.5 34.5t-38.5 41.5 l-160 -35q-10 16 -21.5 32.5t-21.5 39.5l108 119q-20 57 -20 116zM823 512q0 -84 58.5 -142.5t142.5 -58.5q86 0 144.5 58.5t58.5 142.5q0 86 -58.5 144.5t-144.5 58.5q-84 0 -142.5 -58.5t-58.5 -144.5z" />
<glyph unicode="G" d="M47 27v1220h322v287l1335 2v-2l297 -305v-1741h-1632v539h-322zM182 160h948v950h-948v-950zM281 299l241 336l-241 334h270l104 -148l111 148h268l-241 -334l30 -41h172l-41 -180l80 -115h-268l-27 37h-159l-29 -37h-270zM506 27v-402h1358v1493h-271v279h-1087v-150 h762v-1128v-92h-762zM1704 1227h158l-158 164v-164z" />
<glyph unicode="H" d="M0 510q0 217 80 401.5t221 323.5q139 141 323.5 220t397.5 79q217 0 400.5 -79t324.5 -220q141 -139 220 -323.5t79 -401.5q0 -213 -79 -396.5t-220 -324.5t-324.5 -221t-398.5 -80h-2q-213 0 -397.5 80t-323.5 221q-141 141 -221 324.5t-80 396.5zM145 510 q0 -184 69 -342t187 -279q121 -119 279 -187.5t342 -68.5q186 0 345 68.5t280 187.5q119 121 187.5 279t68.5 342q0 186 -69 345t-187 280q-121 119 -280 187.5t-345 68.5q-184 0 -342 -69t-279 -187q-119 -121 -187.5 -280t-68.5 -345zM471 524q4 33 31 54q12 10 27.5 14 t29.5 2q16 0 31.5 -8t25.5 -19l258 -219l560 522q20 20 55 25q30 -1 61 -21q23 -27 23 -57q1 -5 1 -10q0 -13 -4 -21q-5 -12 -18 -26l-624 -688q-8 -12 -37 -21q-12 -4 -24 -4t-25 4q-10 4 -17.5 9.5t-17.5 15.5l-315 389q-14 12 -17.5 27.5t-3.5 31.5z" />
<glyph unicode="I" horiz-adv-x="2045" d="M2 512q0 213 80 397.5t221 323.5q139 141 323.5 220t397.5 79t397.5 -79t323.5 -220q141 -139 220 -323.5t79 -397.5t-79 -397.5t-220 -323.5q-139 -141 -323.5 -221t-397.5 -80t-397.5 80t-323.5 221q-141 139 -221 323.5t-80 397.5zM147 512q0 -184 68 -342t188 -279 q121 -121 279 -188.5t342 -67.5t342 67.5t279 188.5t188.5 279t67.5 342t-68 342t-188 279q-121 121 -279 188.5t-342 67.5t-342 -68t-279 -188q-121 -121 -188.5 -279t-67.5 -342zM569 238q0 18 13 30l243 244l-243 244q-12 12 -13 30q0 16 13 29l137 139q12 8 31 13 q18 0 30 -13l244 -243l244 243q12 12 30 13q20 -4 29 -13l139 -139q13 -13 13 -29q0 -18 -13 -30l-243 -244l243 -244q12 -12 13 -30q-4 -18 -13 -31l-139 -137q-12 -12 -29 -13q-18 0 -30 13l-244 243l-244 -243q-12 -12 -30 -13q-16 0 -31 13l-137 137q-10 12 -13 31z" />
<glyph unicode="J" d="M4 512q0 211 80 395.5t219 325.5q141 139 324.5 218t396.5 79q211 0 395.5 -79t325.5 -218q139 -141 218 -325.5t79 -395.5q0 -213 -79 -396.5t-218 -324.5q-141 -139 -325.5 -219t-395.5 -80q-213 0 -396.5 80t-324.5 219q-139 141 -219 324.5t-80 396.5zM150 512 q0 -184 67.5 -342t188.5 -276q119 -121 276.5 -188.5t341.5 -67.5t341.5 67.5t276.5 188.5q121 119 188.5 276.5t67.5 341.5t-67.5 342t-188.5 276q-119 121 -276.5 188.5t-341.5 67.5t-342 -67.5t-276 -188.5q-121 -119 -188.5 -276.5t-67.5 -341.5zM612 246v733 q0 16 21 16h557q4 0 10 -5t6 -11v-416q-8 10 -16 10h-113q-23 0 -22 -22v-174h-172q-20 0 -21 -19v-112q0 -8 8 -17h-237q-20 0 -21 17zM936 160v131q0 16 14 16h170v170q0 6 5 12.5t14 6.5h131q10 0 13 -6.5t3 -12.5v-170h172q12 0 12 -16v-131q0 -16 -12 -17h-172v-170 q0 -16 -16 -16h-131q-18 0 -19 16v170h-170q-14 0 -14 17z" />
<glyph unicode="K" horiz-adv-x="2050" d="M0 -168v778q0 41 27.5 70t68.5 29h344v778q0 23 13.5 36t33.5 13h1072q20 0 33.5 -13.5t13.5 -35.5v-778h344q41 0 68.5 -29t27.5 -70v-778q0 -42 -30 -72q-25 -25 -54 -25q-6 0 -12 1h-7q-48 0 -71 -26q-25 -28 -42.5 -64.5t-39 -68.5t-70.5 -38v197h-114v-197 q0 -20 -13.5 -34.5t-33.5 -14.5h-1072q-20 0 -33.5 14.5t-13.5 34.5v197h-110v-197q-18 -18 -33.5 -9t-31 33.5t-31 57.5t-36 60.5t-45 44t-57.5 10.5q-7 -2 -15 -2q-27 0 -51 26q-30 32 -30 72zM551 -61v-330h944v330h-944zM551 459h944v944h-944v-944zM1720 405.5 q0 -34.5 23 -63.5q29 -23 63.5 -23t57.5 23q27 25 27 54q-1 4 -1 8q-4 34 -28 58q-22 24 -56 28q-4 1 -9 0q-29 0 -54 -27q-23 -23 -23 -57.5z" />
<glyph unicode="L" horiz-adv-x="2045" d="M8 -229l746 745l-746 746q-9 9 -9 17.5t9 16.5l230 232q9 9 18 9l18 -9l746 -746l745 746q9 9 18 9t19 -9l232 -232q8 -8 8 -16.5t-8 -17.5l-748 -746l748 -745q7 -9 7 -18t-7 -19l-232 -232q-9 -9 -18.5 -9t-18.5 9l-745 748l-746 -748q-9 -9 -18 -9l-18 9l-230 232 q-9 9 -9 18t9 19z" />
<glyph unicode="M" d="M0 369v286q0 20 20 21h840v840q0 20 21 20h286q20 0 21 -20v-840h840q20 0 20 -21v-286q0 -20 -20 -21h-840v-840q0 -20 -21 -20h-286q-20 0 -21 20v840h-840q-20 0 -20 21z" />
<glyph unicode="N" d="M0 27q0 227 160 385l358 360q160 160 387 160q198 0 350 -129l-235 -236q-53 35 -115 35q-90 0 -153 -63l-359 -361q-63 -57 -63 -151q0 -92 61.5 -153.5t153.5 -61.5q51 0 101 24.5t67 69.5h487l-270 -264q-164 -160 -385 -160q-225 0 -385 160t-160 385zM793 209 l235 235q52 -34 112 -34h3q90 0 153 63l359 361q63 57 63 151q0 92 -61.5 153.5t-153.5 61.5q-51 0 -101 -24.5t-67 -69.5h-487l270 264q162 160 385 160q225 0 385 -160t160 -385q0 -229 -160 -385l-358 -360q-160 -160 -387 -160q-201 0 -350 129z" />
<glyph unicode="O" horiz-adv-x="2050" d="M0 471v287q0 20 20 20h2008q20 0 20 -20v-287q0 -20 -20 -20h-2008q-20 0 -20 20z" />
<glyph unicode="P" horiz-adv-x="2041" d="M0 512q0 279 137 514q137 236 373 373t514 137q279 0 514 -137q236 -137 373 -373t137 -514q0 -279 -137 -514q-137 -236 -373 -373t-514 -137q-279 0 -514 137q-236 137 -373 373t-137 514zM256 512q0 -317 225 -543q225 -225 543 -225q317 0 543 225q225 225 225 543 t-225 543t-543 225q-317 0 -543 -225q-225 -225 -225 -543zM895 512v512h258v-459l217 -219l-180 -180l-250 252q-45 39 -45 94z" />
<glyph unicode="Q" horiz-adv-x="2045" d="M-2 588q10 66 57 104q38 33 85 33q12 0 24 -2q59 -2 100 -53l481 -408l1041 969q41 45 106 49h5q54 0 104 -39q43 -41 47 -104q1 -6 1 -13q0 -50 -42 -94l-1159 -1278q-25 -33 -70 -43q-22 -6 -42 -6q-24 0 -46 8q-20 6 -36.5 18.5t-32.5 28.5l-588 721q-35 39 -35 97v12 z" />
<glyph unicode="R" d="M0 553h264q12 367 268 618q260 254 623 254q371 0 633 -260q260 -262 260 -633t-260 -632q-266 -262 -633 -262q-301 0 -549 188l154 166q174 -129 395 -129q274 0 473 194q193 195 193 475q0 281 -193 476q-198 194 -470 194h-3q-266 0 -465 -188q-193 -188 -201 -461 h308l-400 -444z" />
<glyph unicode="S" d="M2 870q0 276 195 467q96 98 212.5 145.5t254.5 47.5q135 0 251.5 -47.5t214.5 -145.5q176 -176 195 -424q1 -22 1 -43q0 -220 -132 -397l104 -100q4 2 10.5 2h12.5q16 2 32 2q41 1 81 -15q54 -22 102 -69l426 -424q37 -37 57.5 -81t24.5 -88q1 -11 1 -21q1 -33 -9 -64 q-12 -41 -43 -72q-31 -29 -72 -41q-31 -9 -63 -9q-11 0 -21 1q-43 4 -86 23.5t-80 56.5l-426 428q-82 78 -82 184q-2 29 0 58l-100 100q-173 -134 -399 -134q-21 0 -43 1q-250 16 -424 192q-98 96 -146.5 214t-48.5 253zM197 870q0 -197 135 -331q135 -135 332 -136 q197 0 333 136q133 135 133 331q0 199 -133 332q-137 135 -333 135q-197 0 -332 -135q-135 -133 -135 -332z" />
<glyph unicode="T" horiz-adv-x="2045" d="M0 514q0 420 299 723q303 299 723 299q422 0 721 -299t299 -723t-299 -721q-297 -299 -721 -299t-723 299t-299 721zM266 213q328 225 639 256l-22 -186q-139 -68 -140 -256q0 -117 80 -197q82 -82 199 -82q115 0 197 82t81 197q0 188 -139 256l-24 186q309 -25 639 -256 q57 141 57 301q0 338 -238 573q-238 240 -573 240q-336 0 -576 -240q-237 -235 -237 -570q0 -165 57 -304zM836 19.5q0 35.5 12 68.5t35.5 59.5t56.5 42.5l57 684q0 27 7.5 39.5t16.5 12.5t16 -12.5t7 -39.5l58 -684q70 -35 94 -102q12 -29 12 -60q0 -7 -1 -13 q-3 -38 -18 -70.5t-42 -58t-62 -38.5q-32 -11 -65 -11h-6q-36 1 -67.5 15.5t-57 39t-39.5 59.5q-14 33 -14 68.5z" />
<glyph unicode="U" d="M0 -283v1362q0 92 68 158q63 70 161 70h101v-228h362v228h660v-228h362v228h107q90 0 157 -70q70 -63 70 -158v-1362q0 -98 -70 -161q-68 -68 -157 -68h-1592q-47 0 -89 18.5t-72.5 49t-49 72.5t-18.5 89zM229 -283h1592v908h-1592v-908zM434 1149v387h160v-387h-160z M1456 1149v387h158v-387h-158z" />
<glyph unicode="V" horiz-adv-x="2070" d="M268 1410q0 52 35 87q37 37 88 37t86 -37q35 -35 35 -87t-35 -89q-35 -35 -86 -35t-88 35q-35 37 -35 89zM319 -438v1564q0 37 23 54.5t49.5 17.5t49 -17.5t22.5 -54.5v-1564q0 -35 -22.5 -53.5t-49 -18.5t-49.5 18.5t-23 53.5zM578 319v834q128 109 282 112h7 q151 0 335 -112q80 -41 145.5 -64.5t139.5 -31.5q21 -2 42 -2q131 0 251 98v-834q-118 -87 -262.5 -87t-315.5 87q-4 2 -20.5 8.5t-40.5 14.5q-49 18 -68 25q-8 2 -24.5 8t-36 12t-39 11t-31.5 5q-24 3 -66 9q-20 3 -38 3q-20 0 -39 -3q-47 -8 -106.5 -27.5t-114.5 -65.5z " />
<glyph unicode="W" horiz-adv-x="2050" d="M4 1020l12 20q74 -49 116 -74.5t50 -29.5q10 -10 28.5 -18.5t43.5 -5.5t53.5 20.5t57.5 58.5q31 43 36 78t-2.5 59.5t-20.5 41t-22 22.5l-166 108l13 19q10 6 21.5 11t27.5 11q31 14 123 15q88 0 162 -43q0 -4 22.5 -17.5t30.5 -25.5q97 -86 97 -211q0 -34 -7 -70 q-6 -28 -6 -50q0 -20 5 -36q11 -33 58 -84l219 -219l263 266l190 -192l-250 -258l467 -418q47 -51 47 -117v-5q-2 -69 -49 -122q-52 -47 -122 -48h-3q-68 0 -117 52l-428 451l-397 -479q-29 -29 -71 -29t-70 29l-105 104q-29 29 -29 71q0 44 29 72l457 422l-223 213 q-75 77 -139 77q-16 0 -31 -5q-41 -15 -82 -15q-69 0 -137 44q-35 25 -62.5 56.5t-47 67t-30 69.5t-10.5 61zM897 1329q139 35 258 36h14q109 0 174 -15q68 -14 142 -58q35 -23 57.5 -38t30.5 -23l23.5 -23.5t31.5 -33.5l144 -140q12 -14 18 -88q6 -72 29 -100 q35 -33 82 -33q20 16 45.5 13t42.5 -23l30 -29q24 -26 24.5 -52t-24.5 -52l-143 -148q-26 -24 -52 -24t-52 24l-31 33q-20 16 -26.5 42t1.5 38q18 8 10 40t-36 66q-46 47 -102 55q-13 2 -25 3q-36 0 -52 -21l-57 -57l-194 190l32 35q6 4 21 23q28 29 28 62q0 34 -30 71 q-78 74 -178 112q-100 43 -168 48l-66 8z" />
<glyph unicode="X" d="M-2 -143v1126q0 47 28.5 74.5t75.5 27.5h592q-66 -49 -124 -100t-78 -80l-25 -24h-262v-922h1331v109l207 172v-383q0 -41 -31 -72t-72 -31h-1538q-47 0 -75.5 31t-28.5 72zM541 213v18.5t2 26.5q2 33 18 117q8 41 19.5 82t25.5 80t37 83t53.5 89t66.5 86t79 75 q86 68 222 116t304 48v318l682 -512l-682 -533v365q-342 0 -498 -86q-159 -90 -329 -373z" />
<glyph unicode="Y" horiz-adv-x="2045" d="M0 -516l78 287l69 270l412 -408l-272 -73zM242 150l1097 1101l428 -420l-1099 -1103zM1442 1356l141 137q43 43 100 43q18 0 37 -6q39 -6 64 -35l221 -223q20 -23 31.5 -46.5t11.5 -54.5v-19t-2 -19q-10 -37 -41 -62l-137 -139z" />
<glyph unicode="Z" horiz-adv-x="2050" d="M8 799q18 66 96 78l490 94q23 2 48.5 21.5t33.5 35.5l235 424q39 80 113 80q45 0 82 -37q10 -12 19.5 -23.5t15.5 -25.5l229 -418q12 -16 38 -35.5t42 -21.5l492 -94q76 -12 100 -78q5 -16 5 -32q0 -46 -40 -91l-340 -363q-12 -12 -25 -47q-12 -23 -8 -47l62 -498 q1 -11 1 -21q0 -46 -28 -81q-34 -35 -81 -35q-29 0 -62 13l-451 213q-16 8 -51 8q-33 0 -49 -8l-457 -213q-27 -14 -57 -15q-51 0 -84 37q-29 39 -29 95v7l64 498q4 18 -6 47q-6 16 -12.5 26.5t-10.5 20.5l-344 363q-38 41 -38 85q0 19 7 38z" />
<glyph unicode="[" horiz-adv-x="2045" d="M0 287q12 39 28.5 92t34.5 125l117 422q76 229 76 258h385v-129h-258l-127 -768h1536l-127 768h-258v129h385q0 -29 76 -258l114 -422l66 -217v-639h-2048v639zM512 926h256v512h512v-512h256l-512 -510z" />
<glyph unicode="\" d="M145 317h830l-313 -313q161 -127 362 -127q227 0 395 156t187 381h292q-18 -350 -272 -588q-256 -240 -602 -240q-324 0 -571 209l-308 -307v829zM147 610q18 350 273 588q254 240 604 240q319 0 569 -209l308 307v-829h-830l313 313q-158 127 -360 127q-229 0 -397 -156 t-187 -381h-293z" />
<glyph unicode="a" horiz-adv-x="2050" d="M2 104v971q0 358 358 359h1125l-176 -179h-949q-180 0 -180 -180v-971q0 -184 180 -184h1326q182 0 182 184v660l178 178v-838q0 -362 -360 -362h-1326q-358 0 -358 362zM346 45l289 451l221 -287zM690 543l840 643l223 -285l-840 -647zM1618 1255l151 115q6 6 15.5 6 t21.5 -4q55 -8 125 -100q74 -98 74 -150l-12 -35l-150 -118z" />
<glyph unicode="b" d="M0 592q0 39 7 76t18 77l282 35q20 47 46 94.5t61 92.5l-107 266q23 23 50.5 47.5t66.5 46.5l244 -153q45 23 94 40t98 27l84 275q27 0 45.5 4t28.5 4q16 0 35.5 -4t42.5 -4l92 -275q49 -10 96 -27.5t92 -39.5l246 153q31 -23 61.5 -47.5t57.5 -46.5l-115 -275 q35 -41 58.5 -86t44.5 -92l290 -35q6 -41 15.5 -77.5t13.5 -75.5l-268 -137q0 -53 -8.5 -100.5t-18.5 -92.5l201 -219q-18 -39 -40 -70.5t-40 -60.5l-291 63q-66 -78 -153 -129l16 -290q-33 -18 -71 -30.5t-79 -25.5l-172 232q-27 -4 -55.5 -6t-50.5 -2q-20 0 -46 2t-48 2 l-176 -228q-39 12 -76 24.5t-70 31.5l8 282q-41 33 -83 64.5t-70 72.5l-283 -63q-18 31 -37.5 61.5t-42.5 69.5l193 211q-14 47 -24.5 98t-10.5 111zM664 510q0 -74 28.5 -139.5t76.5 -113.5t113.5 -76.5t139.5 -28.5q76 0 141.5 28.5t114.5 76.5t76.5 113.5t27.5 139.5 q0 76 -27.5 141.5t-76.5 114.5t-114.5 76.5t-141.5 27.5q-74 0 -139.5 -27.5t-113.5 -76.5t-76.5 -114.5t-28.5 -141.5z" />
<glyph unicode="c" horiz-adv-x="2052" d="M0 -307.5q0 42.5 4 110.5q25 12 79 31t138 47q84 27 163 49.5t157 44.5q78 23 117.5 34t43.5 16l5 102l43 12q8 80 12 126t4 61q-68 129 -80 200q-55 0 -59 56q-4 20 -6 67q0 51 -9 70q-6 29 10.5 53.5t36.5 20.5q-30 146 -29.5 240.5t29.5 135.5q143 201 451 252 q16 2 29.5 3t23.5 1q31 0 43 -6l8 -4q4 -2 -2 -14t-26 -31q14 -12 43 -31q14 -8 32.5 -28.5t45.5 -50.5q27 -31 46 -62t29 -65q18 -66 20 -156v-29q-2 -53 -7.5 -93t-12.5 -62q12 2 21 -2q8 -4 14 -13.5t2 -29.5q-4 -33 -6 -76t-9 -79t-20.5 -57.5t-37.5 -9.5 q-2 -178 -58 -219q-4 -29 -6 -52.5t-2 -39.5q0 -51 16 -55h37q14 -113 45 -150q610 -158 670 -225v-145h-2044q-4 10 -4 52.5z" />
<glyph unicode="d" horiz-adv-x="2050" d="M0 584q0 41 15.5 78.5t45.5 68.5l644 643q31 31 68.5 46.5t77.5 15.5t79 -15.5t69 -46.5q31 -31 46.5 -69.5t15.5 -78.5t-15.5 -78t-46.5 -69l-286 -286h1126q43 0 81 -16.5t66.5 -45.5t45 -66.5t16.5 -80.5t-16.5 -81t-45 -66.5t-66.5 -45t-81 -16.5h-1126l286 -287 q31 -31 46.5 -69.5t15.5 -78.5t-15.5 -78t-46.5 -69t-69.5 -46t-78.5 -15t-78 15t-68 46l-644 643q-31 31 -46 69t-15 79z" />
<glyph unicode="e" d="M0 586q0 43 16.5 81t45 66.5t66.5 45t81 16.5h1126l-286 286q-31 31 -46.5 69t-15.5 78t15.5 79t46.5 69q31 31 68.5 46.5t77.5 15.5t79 -15.5t69 -46.5l644 -643q31 -31 46 -68.5t15 -78.5t-15.5 -79t-45.5 -69l-644 -643q-31 -31 -69.5 -46t-78.5 -15t-78 15t-68 46 q-31 31 -46.5 69t-15.5 78t15.5 78.5t46.5 69.5l286 287h-1126q-43 0 -81 16.5t-66.5 45t-45 66.5t-16.5 81z" />
<glyph unicode="f" d="M172 683q0 40 15.5 79t45.5 69l644 644q31 31 68.5 46t78.5 15t79 -15.5t68 -45.5l644 -644q31 -31 46 -69.5t15 -78.5t-15.5 -78t-45.5 -68q-31 -31 -70 -46.5t-79 -15.5t-78 15.5t-68 46.5l-287 286v-1126q0 -43 -16.5 -81t-45 -66.5t-66.5 -45t-81 -16.5t-81 16.5 t-66.5 45t-45 66.5t-16.5 81v1126l-287 -286q-31 -31 -69.5 -46.5t-78.5 -15.5t-78 15.5t-69 46.5t-46 68.5t-15 77.5z" />
<glyph unicode="g" horiz-adv-x="2045" d="M172 339q0 40 15.5 79t45.5 69q31 31 69 46.5t78 15.5t79 -15.5t69 -46.5l287 -286v1126q0 43 16.5 81t45 66.5t66.5 45t81 16.5t81 -16.5t66.5 -45t45 -66.5t16.5 -81v-1126l287 286q31 31 68.5 46.5t77.5 15.5t79 -15.5t70 -46.5t46 -69.5t15 -78.5t-15.5 -78 t-45.5 -68l-644 -644q-31 -31 -68.5 -46t-78.5 -15t-79 15.5t-68 45.5l-644 644q-31 31 -46 68.5t-15 77.5z" />
<glyph unicode="h" d="M143 1024v256h369q0 106 74 180q76 76 182 76h512q106 0 180 -76q76 -74 76 -180h389v-256h-133v-1151q0 -160 -113 -272q-113 -113 -272 -113h-766q-160 0 -272 113q-113 113 -113 272v1151h-113zM512 -127q0 -53 38 -91t91 -38h766q53 0 91 38t38 91v1151h-1024v-1151z M676 -27v832q0 16 12 28.5t29 12.5h147q16 0 28.5 -12.5t12.5 -28.5v-832q0 -16 -12 -28.5t-29 -12.5h-147q-16 0 -28.5 12.5t-12.5 28.5zM1139 -27v832q0 16 12 28.5t29 12.5h147q16 0 28.5 -12.5t12.5 -28.5v-832q0 -16 -12.5 -28.5t-28.5 -12.5h-147q-16 0 -28.5 12.5 t-12.5 28.5z" />
<glyph unicode="i" d="M6 -422v1868q0 39 27.5 65.5t64.5 26.5h1739l205 -205v-1755q0 -37 -26.5 -64.5t-63.5 -27.5h-1854q-37 0 -64.5 27.5t-27.5 64.5zM281 326v-703q0 -18 14 -31.5t33 -13.5h1394q18 0 31.5 13.5t13.5 31.5v703q0 18 -13 31.5t-32 13.5h-1394q-18 0 -32.5 -13.5 t-14.5 -31.5zM465 897q0 -18 13.5 -31.5t31.5 -13.5h1028q18 0 31.5 13.5t13.5 31.5v520q0 18 -13.5 32.5t-31.5 14.5h-1028q-18 0 -31.5 -14t-13.5 -33v-520zM1225 969v288q0 18 13 32t32 14h174q20 0 34.5 -13.5t14.5 -32.5v-288q0 -20 -14.5 -34.5t-34.5 -14.5h-174 q-18 0 -31.5 14t-13.5 35z" />
<glyph unicode="j" d="M4 -209v932q0 63 45 108.5t111 45.5h219v-226h-135v-792h981v104h237v-172q0 -66 -44 -111t-107 -45h-1151q-66 0 -111 45.5t-45 110.5zM586 324v950q0 63 46 109.5t105 46.5h1153q66 0 110 -46.5t44 -109.5v-950q0 -63 -44 -108.5t-110 -45.5h-1153q-59 0 -105 45 t-46 109zM821 389h985v817h-985v-817z" />
<glyph unicode="k" d="M0 514q0 424 299 723q303 299 723 299t723 -299q299 -297 299 -723q0 -424 -299 -723t-723 -299t-723 299q-299 303 -299 723zM168 578q0 -23 1 -44.5t1 -46.5q10 -25 21.5 -49t25.5 -49t31.5 -52.5l38.5 -60.5q23 -31 37 -53t22 -39q12 -18 19.5 -40.5t5.5 -37.5l-4 -43 q0 -14 -1 -24t-1 -14v-2v-15q0 -47 30 -78q8 -10 21.5 -24.5t34.5 -34.5q37 -37 63.5 -69.5t38.5 -69.5l6 -4q86 -51 209 -90q10 0 29 8q23 8 96 14v2q0 8 25 23q14 8 29.5 16t35.5 18q18 10 32.5 17.5t24.5 13.5q23 25 23 53q0 35 -45 64q-53 37 -103 37q-10 0 -21 -2 l-22 -4q-31 18 -116 98q-45 39 -82 65.5t-68 38.5q-29 27 -80 41q-25 10 -47 16.5t-45 10.5q-41 8 -72.5 38t-31.5 83q-6 20 0 30q4 6 -6 27q-12 14 -13 23q-2 2 -5 6t-13 12q-14 14 -19 16q-2 4 -20 17q-10 8 -14 11t-7 5q-4 6 -4 13.5v13.5q0 45 56 74q27 12 49 12 q37 0 57 -27q18 -20 23 -53q33 0 84 68q49 68 92 73q10 12 53 17q41 4 59.5 13t-0.5 42q12 12 39 23l47 20q16 8 27.5 30.5t-14.5 53.5q-16 70 -74 84q-6 2 -11 3t-11 -1q-45 0 -66 -55q-6 -4 -18 -4q-31 0 -37 47v12q0 59 43 90q23 16 53 10q27 -2 40 6.5t14 21.5t-7 26.5 t-27 19.5q0 6 -6 4q-20 6 -24 4q-27 18 -27 46v8q4 34 23 67q17 31 17 62q0 36 -44 53q-348 -299 -440 -488q-27 -86 -31 -247zM395 344q0 -14 31 -29q18 -25 43 -18q2 7 2 13q0 25 -33 34v2q-4 4 -9 3t-9 3h-14q-4 -2 -11 -8zM580 606l2 -4h2q6 0 12 6q-12 0 -16 -2z M745 1389q23 4 45.5 4h45.5q164 0 274 -54q10 -35 45 -44q24 -6 49 -6q11 0 23 1q35 4 61.5 -10t24.5 -49l4 -4l2 -13q2 -2 2 5q61 -61 61 -84q0 -14 -20 -15h-6h-6q-5 1 -10 1q-35 0 -46 -38q-6 -16 -6 -34q0 -27 12 -58q14 -53 50 -67q31 -12 51 -4q18 6 15 29.5t-34 39.5 q-4 29 15 29q33 -2 63 -53q12 -23 13 -39q0 -18 -17 -31q-6 -6 -8 -6l-4 -2q-43 -31 -49 -142q-2 -102 -11 -124q-10 -20 -10 -41q0 -25 31 -27h6q41 0 70 43q14 23 4 51q-10 31 9 43t44 18.5t43 13.5t4 28q27 -12 43 -13q33 0 39 49q2 6 2 21q0 51 -33 84q7 34 21 34 q9 0 20 -14q14 -20 14 -40q0 -15 -8 -31q6 -25 19 -37q4 -4 7 -6t7 -4l19.5 -6.5t15.5 -8.5q4 0 6 -2q25 -10 25 -33q0 -10 -2 -19t-11 -19q-29 -100 -141 -101q-29 0 -76 10q-39 -16 -61 -51q-23 -31 -49 -84q-10 -25 -19.5 -42t-17.5 -29q-53 -96 -53 -172q0 -70 51 -121 q40 -36 84 -36q22 0 45 9q35 16 58.5 30.5t56.5 41.5h22q70 0 88 -72q6 -25 6 -43q0 -59 -39 -100q-4 -10 -4 -15.5v-7.5q221 258 222 592l-9 107q-10 -6 -18 -7q-29 0 -60 45q-27 37 -8 33q10 0 37 -20q23 6 37 16q-16 90 -45 166q-4 4 -13.5 14.5t-11.5 14.5q0 4 -2 13 t-2 17v2q-111 231 -336 375q-227 143 -489 144q-25 0 -44.5 -1t-31.5 -3t-21.5 -4.5t-19.5 -2.5h-14q-76 -11 -146 -34zM774 932q0 -29 17 -41q18 6 29 32.5t12.5 55.5t-9 49.5t-30.5 15.5q-4 0 -7.5 -1t-7.5 -1q6 -9 6 -28.5t-6 -48.5q-2 -10 -3 -17.5t-1 -15.5zM778 676 q0 -6 25 -25h20v-2q0 -2 -6 -8q29 23 14 35q-20 14 -40 8q-12 0 -13 -8zM872 1141q0 -42 41 -17l9 9q23 10 12 28q0 4 -12 4q-2 2 -11 2q-4 0 -6 -1t-6 -1q-27 -6 -27 -24zM891 1073q0 -25 22 -51q13 -20 12 -42q0 -12 -3 -24q-8 -18 -12.5 -35.5t-2.5 -37.5q4 -37 45 -49 q12 33 52 79q39 53 59 93q12 25 12 53q0 14 -6 37q-12 57 -68 57q-10 0 -16 -2q-53 -6 -82 -45q-12 -18 -12 -33zM1315 821q0 -8 16 -24q-16 -41 19 -41q23 0 36 22q2 20 -20 35q-25 14 -37 14l-4 -2q-10 0 -10 -4z" />
<glyph unicode="l" horiz-adv-x="2045" d="M-2 578q0 227 119 430q117 201 315 313q197 115 432 115q322 0 602 -254l-180 -185q-199 180 -420 181q-254 0 -434 -181q-176 -180 -176 -438q0 -240 180 -416q186 -174 428 -174q227 0 422 178l182 -184q-268 -252 -581 -252q-377 0 -633 248q-256 246 -256 619z M860 422v303h713v305l475 -459l-475 -454v305h-713z" />
<glyph unicode="m" horiz-adv-x="2045" d="M16 -262q-17 30 -17 65q0 53 40 117l829 1411q62 107 152 107q92 0 154 -107l835 -1411q41 -64 41 -118q0 -34 -16 -64q-39 -76 -166 -76h-1686q-127 0 -166 76zM905 59q0 -49 33 -88q38 -34 83 -34h3q51 0 82 34q35 39 35 88q0 45 -35 80q-31 39 -82 39q-49 0 -86 -39 q-16 -16 -24.5 -35.5t-8.5 -44.5zM932 416q0 -39 29 -66q24 -24 60 -24h3q37 0 61 24q29 29 29 66v422q0 35 -29 63q-23 25 -61 25q-41 0 -63 -25q-29 -27 -29 -63v-422z" />
<glyph unicode="n" d="M0 514q0 424 301 723q299 299 719 299q428 0 723 -299q299 -299 299 -723t-299 -719q-295 -301 -723 -301q-422 0 -719 301q-301 295 -301 719zM592 821q0 -68 45 -102q23 -16 47.5 -25.5t58.5 -9.5q78 0 129 143q59 145 144 146q80 0 127 -62q16 -23 26.5 -46t10.5 -48 q0 -27 -45 -88l-97 -113q-72 -84 -105.5 -161.5t-33.5 -149.5t45 -108q39 -29 100 -29q88 0 117 92q33 137 70 174q31 33 70.5 74t87.5 88q63 82 63 186q0 172 -102 305q-117 156 -324 156q-111 0 -240 -69q-194 -113 -194 -353zM854 -51q0 -31 12 -60.5t35 -54.5 q23 -23 52.5 -35t60 -12t60.5 12.5t54 34.5q23 25 34.5 54.5t11.5 60.5t-11.5 60.5t-34.5 51.5q-25 23 -54.5 34t-60 11t-60 -11t-52.5 -34t-35 -52t-12 -60z" />
<glyph unicode="o" horiz-adv-x="2050" d="M0 512q0 426 303 723q297 301 721 301q428 0 723 -301q299 -299 299 -723q0 -422 -299 -721q-295 -301 -723 -301q-424 0 -721 301q-303 297 -303 721zM795 950q0 -47 18 -89t49 -72.5t73 -49t89 -18.5t88 18.5t71.5 49t49 72.5t18.5 89t-18.5 89t-49 73t-71.5 48.5 t-88 17.5t-89 -17.5t-73 -48.5t-49 -73t-18 -89zM850 23q10 -111 72 -152q37 -25 90 -25q121 0 145 58q39 70 39 352q0 250 -55 346q-39 64 -113 64q-98 0 -147 -82q-45 -94 -45 -299q0 -114 14 -262z" />
<glyph unicode="p" d="M-2 518q0 422 301 723t723 301q424 0 725 -301q299 -299 299 -723t-299 -725q-303 -299 -725 -299q-420 0 -723 299q-301 301 -301 725zM123 457q14 -174 90 -334h303q-45 160 -51 334h-342zM123 580h342q6 170 53 346h-299q-82 -166 -96 -346zM287 0q168 -236 440 -334 q-109 158 -172 334h-268zM295 1049h264q33 86 74 165.5t94 153.5q-135 -47 -241.5 -127t-190.5 -192zM592 457q4 -86 18.5 -169t38.5 -165h719q49 164 55 334h-831zM592 580h831q-4 88 -17 174t-42 172h-713q-53 -176 -59 -346zM692 0q84 -209 230 -377q49 -6 100 -6h35.5 t36.5 2q72 88 130 182.5t101 198.5h-633zM696 1049h623q-84 201 -227 366q-16 2 -34 3t-36 1q-51 0 -100 -6q-143 -170 -226 -364zM1280 -344q295 86 479 344h-299q-65 -184 -180 -344zM1280 1380q55 -78 98 -159.5t78 -171.5h295q-92 123 -208 205.5t-263 125.5zM1497 926 q47 -170 55 -346h369q-6 92 -29.5 178t-64.5 168h-330zM1499 123h332q78 160 90 334h-369q-4 -86 -17 -169t-36 -165z" />
<glyph unicode="q" horiz-adv-x="2050" d="M0 0q0 24 18 47q20 20 50 21h401q25 0 47 -21q20 -20 21 -47v-397q0 -29 -21 -49q-23 -20 -47 -21h-401q-29 0 -50 21q-18 20 -18 49v397zM0 313v400q0 25 18 47q20 18 50 18h401q23 0 47 -18q20 -20 21 -47v-400q0 -27 -21 -47q-23 -20 -47 -20h-401q-29 0 -50 20 q-18 20 -18 47zM0 1026v397q0 24 18 47q20 20 50 21h401q25 0 47 -21q20 -20 21 -47v-397q0 -29 -21 -49q-23 -20 -47 -21h-401q-29 0 -50 21q-18 20 -18 49zM715 -133q0 29 20 49q14 16 43 16h1204q29 0 43 -16q20 -18 21 -49v-129q0 -35 -21 -53q-16 -18 -43 -19h-1204 q-29 0 -43 19q-20 20 -20 53v129zM715 449v131q0 29 20 49q14 18 43 18h1204q27 0 43 -18q12 -10 16.5 -23.5t4.5 -25.5v-131q0 -33 -21 -52q-14 -20 -43 -20h-1204q-29 0 -43 20q-20 20 -20 52zM715 1161v129q0 29 20 49q14 16 43 17h1204q29 0 43 -17q20 -18 21 -49v-129 q0 -35 -21 -53q-14 -16 -43 -16h-1204q-29 0 -43 16q-20 20 -20 53z" />
<glyph unicode="r" d="M-2 801v416q0 72 43 133l20 24h2q63 63 158 64h928q92 0 156 -64q63 -74 63 -157v-416q0 -94 -63 -158q-65 -65 -153 -65h-3h-565l-295 -246v243l-68 3q-92 0 -158 65q-4 4 -10 9t-12 12q-43 57 -43 137zM535 246v106q53 41 100 82h514q145 0 252 107q2 0 2 2 q106 106 106 258v153h246q121 0 205 -86q90 -94 90 -209v-413q0 -121 -90 -207q-82 -90 -205 -90v-238q0 -29 -18 -41q-7 -3 -14 -3q-17 0 -35 16l-320 266h-543q-117 0 -204 90q-86 90 -86 207z" />
<glyph unicode="s" d="M67.5 888q69.5 179 198.5 314q2 -2 2 -4l645 -713l-807 -432q-108 215 -108 455q0 201 69.5 380zM178 -68l819 437q2 4 26 18t71 45v103v686.5t-4 314.5q197 -8 372.5 -94t307.5 -226q134 -141 208 -323q73 -177 72 -371v-10q0 -420 -303 -723q-299 -301 -723 -301 q-129 0 -251 30.5t-230.5 88t-201.5 140.5t-163 185zM367 1300q257 218 589 236q-2 -129 -2 -349v-538l-579 643q-4 2 -5 4t-3 4z" />
<glyph unicode="t" horiz-adv-x="2045" d="M121 811l821 721v-465q13 0 27 1q730 0 911 -540q46 -139 46 -275q0 -390 -376 -761q142 282 142 513q0 142 -54 265q-118 271 -524 271q-80 0 -172 -11v-475z" />
<glyph unicode="u" horiz-adv-x="2050" d="M0 -141q6 35 17.5 70.5t27.5 70.5q399 397 797 797q-12 98 -13 127q0 256 181 434q178 178 436 178q141 0 255 -46t197 -144q78 -88 116 -191.5t38 -230.5q0 -248 -154 -422q-166 -190 -452 -191q-6 0 -26.5 2t-53.5 6q-68 12 -82 13q-16 0 -102 -90l-90 -101 q-45 -2 -88 -2h-89q-10 -74 -10 -121.5t10 -70.5q-24 10 -72.5 10t-123.5 -10q-8 -76 -8 -126q0 -61 12 -85q-22 10 -77 10t-142 -10q-4 -35 -4 -76t2 -88q-12 -63 -142 -64q-184 0 -284 125q-76 96 -76 226zM1503 1078.5q0 -68.5 53 -117.5q49 -51 118 -51t118 51 q47 49 47 117.5t-47 119.5q-49 49 -117.5 49t-118.5 -49q-53 -51 -53 -119.5z" />
<glyph unicode="v" d="M2 512q0 139 35 266t102 248q137 236 371 371q121 68 248 102.5t266 34.5t266 -35t248 -102q236 -135 371 -371q68 -121 102.5 -248t34.5 -266t-35 -266t-102 -248q-135 -233 -371 -369q-242 -139 -514 -139t-514 139q-231 135 -371 369q-68 121 -102.5 248t-34.5 266z M645 512l475 -475l146 147l-330 328l330 328l-146 147z" />
<glyph unicode="w" horiz-adv-x="2045" d="M0 510q0 139 35 266t102 248q131 234 371 371q121 68 248 102.5t266 34.5t266 -35t248 -102q233 -135 371 -371q68 -121 102.5 -248t34.5 -266t-35 -266t-102 -248q-139 -233 -371 -369q-242 -139 -514 -139t-514 139q-240 137 -371 369q-68 121 -102.5 248t-34.5 266z M780 182l144 -147l477 475l-477 475l-144 -147l330 -328z" />
<glyph unicode="x" horiz-adv-x="2050" d="M0 512q0 139 35 270t101.5 246t160.5 209t211 162q236 137 514 137q139 0 270 -35t246 -101.5t209 -160.5t162 -211q137 -236 137 -516q0 -279 -137 -514q-135 -236 -371 -371q-236 -137 -516 -137q-279 0 -514 137q-233 133 -373 371q-135 236 -135 514zM549 416 l145 -146l328 332l330 -332l145 146l-475 477z" />
<glyph unicode="y" d="M0 512q0 276 135 514q139 238 373 371q236 137 514 137q281 0 516 -137q236 -135 371 -371q137 -236 137 -514q0 -281 -137 -516q-68 -117 -162 -211t-209 -160.5t-246 -101.5t-270 -35q-279 0 -514 137q-117 68 -211 162t-160.5 209t-101.5 246t-35 270zM549 608 l473 -477l475 477l-145 144l-330 -330l-328 330z" />
<glyph unicode="z" horiz-adv-x="2050" d="M0 164q0 205 117 381q123 172 311 248q29 313 256 526q231 217 555 217q334 0 573 -240q236 -236 236 -571q0 -315 -215 -549q-217 -231 -528 -256q-74 -193 -248 -313q-168 -119 -383 -119q-281 0 -475 197q-199 198 -199 479zM0 1286q0 94 68 162q68 70 165 70 q45 0 86 -18.5t72 -51.5t49.5 -75t18.5 -87q0 -49 -18.5 -91t-49.5 -73.5t-71.5 -49t-86.5 -17.5q-49 0 -92 17.5t-73.5 49t-49 73.5t-18.5 91zM104 1286q0 -53 38 -91t91 -38q51 0 87 38t36 91t-37.5 89t-85.5 36q-53 0 -91 -36t-38 -89zM223 164q0 -186 133 -320 q133 -131 318 -131q260 0 391 224q-231 49 -399 217q-170 168 -220 397q-223 -135 -223 -387zM682 614q31 -164 154 -284q121 -121 292 -158q-2 178 -135 307q-129 133 -311 135zM682 838q272 0 469 -197q195 -193 199 -469q199 37 325 195q129 160 129 358q0 231 -166 397 q-86 84 -184 126t-215 42q-205 0 -360 -129q-156 -124 -197 -323z" />
<glyph unicode="{" horiz-adv-x="2050" d="M4 571l862 863v-549q193 -27 351.5 -78t271.5 -117q115 -66 205 -142.5t147 -154.5q61 -80 99 -156.5t59.5 -143t31 -119t11.5 -80.5v-29q-10 20 -33 51q-23 33 -117 109q-47 37 -99 69.5t-114 61.5q-123 57 -338 90q-111 16 -228.5 19t-246.5 -9v-543z" />
<glyph unicode="&#x2000;" horiz-adv-x="774" />
<glyph unicode="&#x2001;" horiz-adv-x="1548" />
<glyph unicode="&#x2002;" horiz-adv-x="774" />
<glyph unicode="&#x2003;" horiz-adv-x="1548" />
<glyph unicode="&#x2004;" horiz-adv-x="516" />
<glyph unicode="&#x2005;" horiz-adv-x="387" />
<glyph unicode="&#x2006;" horiz-adv-x="258" />
<glyph unicode="&#x2007;" horiz-adv-x="258" />
<glyph unicode="&#x2008;" horiz-adv-x="193" />
<glyph unicode="&#x2009;" horiz-adv-x="309" />
<glyph unicode="&#x200a;" horiz-adv-x="86" />
<glyph unicode="&#x202f;" horiz-adv-x="309" />
<glyph unicode="&#x205f;" horiz-adv-x="387" />
<glyph unicode="&#xe000;" horiz-adv-x="1536" d="M0 0v1536h1536v-1536h-1536z" />
</font>
</defs>
</svg>
