<?xml version="1.0" standalone="no"?>
<!DOCTYPE svg PUBLIC "-//W3C//DTD SVG 1.1//EN" "http://www.w3.org/Graphics/SVG/1.1/DTD/svg11.dtd" >
<svg>
<metadata>
Created by FontForge 20090622 at Tue Sep 20 06:42:22 2016
 By deploy user
Copyright 1992-2003 Adobe Systems Incorporated. All Rights Reserved. U.S. Patent Des. 454,582.
</metadata>
<defs>
<font id="MyriadWebPro-CondensedItalic" horiz-adv-x="884" >
  <font-face 
    font-family="Myriad Web Pro Condensed"
    font-weight="400"
    font-style="italic"
    font-stretch="condensed"
    units-per-em="2000"
    panose-1="2 11 5 6 3 4 3 9 2 4"
    ascent="1600"
    descent="-400"
    x-height="968"
    cap-height="1348"
    bbox="-222 -500 2014 1726"
    underline-thickness="100"
    underline-position="-150"
    slope="-11"
    unicode-range="U+0020-U+FB02"
  />
<missing-glyph horiz-adv-x="1000" 
d="M0 1400h1000v-1400h-1000v1400zM840 1300h-680l340 -510zM900 190v1020l-340 -510zM840 100l-340 510l-340 -510h680zM100 190l340 510l-340 510v-1020z" />
    <glyph glyph-name="f_i" unicode="fi" horiz-adv-x="910" 
d="M220 0h-160l160 842h-126l24 126h126q32 226 143 339t301 113q128 0 204 -48l-48 -126q-78 38 -176 38q-104 0 -171.5 -69.5t-92.5 -246.5h472l-184 -968h-162l160 842h-310z" />
    <glyph glyph-name="f_l" unicode="fl" horiz-adv-x="910" 
d="M220 0h-162l160 842h-126l24 126h126q31 226 146.5 339t315.5 113q144 0 246 -56l-258 -1364h-162l240 1266q-40 22 -110 22q-92 0 -157.5 -63t-98.5 -257h184l-24 -126h-184z" />
    <glyph glyph-name=".notdef" horiz-adv-x="1000" 
d="M0 1400h1000v-1400h-1000v1400zM840 1300h-680l340 -510zM900 190v1020l-340 -510zM840 100l-340 510l-340 -510h680zM100 190l340 510l-340 510v-1020z" />
    <glyph glyph-name="NULL" horiz-adv-x="0" 
 />
    <glyph glyph-name="nonmarkingreturn" horiz-adv-x="328" 
 />
    <glyph glyph-name="uni00A0" unicode="&#xa0;" horiz-adv-x="328" 
 />
    <glyph glyph-name="exclam" unicode="!" horiz-adv-x="444" 
d="M270 386h-136l160 962h186zM260 112q0 -53 -35.5 -91.5t-86.5 -38.5q-46 0 -75 32t-29 82q0 52 35.5 91t84.5 39q48 0 77 -32t29 -82z" />
    <glyph glyph-name="quotedbl" unicode="&#x22;" horiz-adv-x="576" 
d="M228 1376h164l-118 -480h-106zM522 1376h162l-118 -480h-106z" />
    <glyph glyph-name="numbersign" unicode="#" 
d="M190 0h-112l120 394h-148l20 112h162l90 298h-156l18 110h172l118 386h110l-118 -386h168l118 386h110l-116 -386h146l-20 -110h-160l-90 -298h158l-20 -110h-172l-120 -396h-112l120 396h-166zM344 506h168l88 298h-166z" />
    <glyph glyph-name="dollar" unicode="$" 
d="M366 -168h-116l38 200q-137 11 -230 78l50 126q114 -74 232 -74q105 0 171.5 61t66.5 155q0 74 -33 127.5t-113 106.5q-220 147 -220 320q0 126 86.5 222t235.5 116l36 190h116l-36 -188q117 -7 192 -62l-54 -122q-89 58 -196 58q-94 0 -153 -54t-59 -138
q0 -68 37.5 -115.5t132.5 -110.5q196 -131 196 -314q0 -155 -92 -258.5t-250 -121.5z" />
    <glyph glyph-name="percent" unicode="%" horiz-adv-x="1428" 
d="M322 -26h-114l950 1352h116zM124 802q0 202 100 360t252 158q104 0 161 -73.5t57 -192.5q0 -213 -99 -369.5t-247 -156.5q-104 0 -164 74.5t-60 199.5zM566 1050q0 168 -106 168q-87 0 -145.5 -137t-58.5 -279q0 -172 108 -172q86 0 144 140.5t58 279.5zM794 264
q0 202 99.5 359t252.5 157q105 0 162.5 -73t57.5 -191q0 -213 -99.5 -370.5t-248.5 -157.5q-104 0 -164 75t-60 201zM1238 512q0 166 -106 166q-88 0 -147 -135.5t-59 -278.5q0 -174 108 -174q87 0 145.5 141.5t58.5 280.5z" />
    <glyph glyph-name="ampersand" unicode="&#x26;" horiz-adv-x="1086" 
d="M964 0h-184q-40 54 -78 120q-146 -138 -340 -138q-152 0 -243 91.5t-91 232.5q0 271 316 442v6q-66 132 -66 244q0 156 96.5 262t241.5 106q118 0 185 -71.5t67 -182.5q0 -231 -328 -400v-6q132 -249 210 -374q106 156 178 400h150q-97 -316 -262 -510zM484 810
q236 127 236 296q0 144 -120 144q-72 0 -120 -67.5t-48 -162.5q0 -108 52 -210zM398 648q-206 -131 -206 -316q0 -99 57.5 -160.5t150.5 -61.5q135 0 240 114q-169 284 -242 424z" />
    <glyph glyph-name="quotesingle" unicode="'" horiz-adv-x="296" 
d="M236 1376h162l-118 -480h-106z" />
    <glyph glyph-name="parenleft" unicode="(" horiz-adv-x="540" 
d="M534 1384h138q-194 -222 -301 -497.5t-107 -558.5q0 -330 96 -566h-124q-112 243 -112 562q0 316 117 591.5t293 468.5z" />
    <glyph glyph-name="parenright" unicode=")" horiz-adv-x="540" 
d="M36 -238h-140q195 227 301.5 502.5t106.5 557.5q0 335 -96 562h126q110 -242 110 -558q0 -291 -107.5 -568.5t-300.5 -495.5z" />
    <glyph glyph-name="asterisk" unicode="*" horiz-adv-x="786" 
d="M644 1366l116 -66l-208 -246v-4l290 42l-24 -138l-276 38v-6l160 -236l-126 -68l-96 272h-4l-148 -278l-110 74l210 240l-2 4l-284 -40l24 138l268 -40v6l-154 240l130 64l90 -268h4z" />
    <glyph glyph-name="plus" unicode="+" horiz-adv-x="1192" 
d="M546 1064h122v-470h446v-118h-446v-476h-122v476h-446v118h446v470z" />
    <glyph glyph-name="comma" unicode="," horiz-adv-x="408" 
d="M32 -236l-126 -14q116 228 192 478l194 20q-121 -290 -260 -484z" />
    <glyph glyph-name="uni00AD" unicode="&#xad;" horiz-adv-x="586" 
d="M84 596h458l-24 -128h-458z" />
    <glyph glyph-name="period" unicode="." horiz-adv-x="408" 
d="M264 116q0 -56 -35 -95t-87 -39q-48 0 -77 32.5t-29 83.5q0 55 35 94.5t85 39.5q49 0 78.5 -32.5t29.5 -83.5z" />
    <glyph glyph-name="slash" unicode="/" horiz-adv-x="608" 
d="M28 -80h-132l752 1446h134z" />
    <glyph glyph-name="zero" unicode="0" 
d="M882 934q0 -221 -67.5 -453.5t-185 -365.5t-267.5 -133q-142 0 -215 107.5t-73 308.5q0 348 150.5 635t375.5 287q139 0 210.5 -101t71.5 -285zM234 390q0 -144 36 -208t110 -64q92 0 168.5 128t123 340t46.5 354q0 122 -34 183t-102 61q-142 0 -245 -268.5t-103 -525.5z
" />
    <glyph glyph-name="one" unicode="1" 
d="M318 0l214 1132h-4l-226 -116l-12 130l296 154h138l-246 -1300h-160z" />
    <glyph glyph-name="two" unicode="2" 
d="M694 0h-700l20 108q452 424 558 592t106 288q0 90 -46.5 141t-133.5 51q-114 0 -220 -78l-36 120q145 98 294 98q148 0 229 -84.5t81 -219.5q0 -160 -114.5 -349.5t-487.5 -520.5v-4h474z" />
    <glyph glyph-name="three" unicode="3" 
d="M24 44l48 132q103 -52 206 -52q131 0 213.5 84t82.5 202q0 110 -67 170t-181 60h-48l24 128h44q108 0 202 70.5t94 181.5q0 79 -42 118.5t-126 39.5q-106 0 -194 -54l-24 128q121 68 258 68q139 0 219.5 -76t80.5 -194q0 -116 -73 -208.5t-193 -131.5v-4
q91 -28 142.5 -106.5t51.5 -181.5q0 -187 -135 -311.5t-335 -124.5q-159 0 -248 62z" />
    <glyph glyph-name="four" unicode="4" 
d="M594 0h-150l68 358h-490l22 112l628 830h170l-154 -810h158l-24 -132h-158zM212 490h325q98 511 133 628h-8q-69 -131 -156 -244l-294 -380v-4z" />
    <glyph glyph-name="five" unicode="5" 
d="M884 1300l-30 -144h-378l-100 -330q13 2 42 2q66 0 152 -38t135 -119t49 -189q0 -214 -145.5 -357t-356.5 -143q-147 0 -230 54l46 134q84 -46 192 -46q135 0 230.5 96.5t95.5 231.5q0 123 -69.5 184.5t-208.5 61.5q-59 0 -114 -6l176 608h514z" />
    <glyph glyph-name="six" unicode="6" 
d="M856 1318l-20 -142q-179 0 -333 -124t-227 -342l4 -2q114 136 266 136q126 0 199 -91.5t73 -236.5q0 -204 -125 -369t-307 -165q-153 0 -237.5 109.5t-84.5 296.5q0 221 104.5 442t275 344t342.5 138zM222 364q0 -115 46 -183.5t126 -68.5q111 0 183.5 123t72.5 271
q0 105 -42 157.5t-126 52.5q-57 0 -118.5 -40t-101.5 -104.5t-40 -207.5z" />
    <glyph glyph-name="seven" unicode="7" 
d="M244 1300h702l-18 -101q-2 -10 -134 -239l-185 -320l-377 -640h-174l246 407l440 745l-2 4h-524z" />
    <glyph glyph-name="eight" unicode="8" 
d="M330 700q-134 116 -134 260q0 149 110.5 254.5t267.5 105.5q133 0 213.5 -78.5t80.5 -199.5q0 -221 -244 -350v-6q172 -117 172 -312q0 -171 -123.5 -281.5t-290.5 -110.5q-155 0 -248.5 86t-93.5 224q0 263 290 404v4zM510 752q97 46 150.5 119t53.5 155q0 172 -154 172
q-84 0 -143 -67.5t-59 -162.5q0 -137 152 -216zM450 626q-107 -40 -173.5 -126.5t-66.5 -189.5q0 -93 49.5 -149.5t136.5 -56.5q100 0 168 75t68 185q0 173 -182 262z" />
    <glyph glyph-name="nine" unicode="9" 
d="M98 -18l16 142q177 0 325.5 120.5t230.5 347.5h-6q-106 -116 -248 -116q-127 0 -200.5 89t-73.5 231q0 200 131 362t309 162q146 0 225 -102t79 -274q0 -253 -125 -504t-307 -354.5t-356 -103.5zM724 958q0 116 -39.5 174t-118.5 58q-106 0 -182 -119t-76 -257
q0 -103 41.5 -157.5t118.5 -54.5q71 0 133.5 45.5t92.5 109.5t30 201z" />
    <glyph glyph-name="colon" unicode=":" horiz-adv-x="408" 
d="M400 828q0 -55 -35.5 -93.5t-86.5 -38.5q-46 0 -75 32t-29 82q0 53 35 92.5t85 39.5q48 0 77 -32t29 -82zM262 114q0 -55 -35 -93.5t-87 -38.5q-46 0 -75 32t-29 82q0 53 35 92.5t85 39.5q48 0 77 -32t29 -82z" />
    <glyph glyph-name="semicolon" unicode=";" horiz-adv-x="408" 
d="M406 828q0 -55 -35 -93.5t-87 -38.5q-46 0 -75 32t-29 82q0 53 35 92.5t85 39.5q48 0 77 -32t29 -82zM32 -236l-124 -14q116 228 192 478l192 20q-129 -302 -260 -484z" />
    <glyph glyph-name="less" unicode="&#x3c;" horiz-adv-x="1192" 
d="M146 480v104l916 480v-140l-760 -390v-4l760 -390v-140z" />
    <glyph glyph-name="equal" unicode="=" horiz-adv-x="1192" 
d="M1122 672h-1018v118h1018v-118zM1122 286h-1018v118h1018v-118z" />
    <glyph glyph-name="greater" unicode="&#x3e;" horiz-adv-x="1192" 
d="M1090 590v-116l-916 -474v138l776 392v4l-776 392v138z" />
    <glyph glyph-name="question" unicode="?" horiz-adv-x="694" 
d="M374 380h-154q2 13 2 42q13 183 178 376q100 116 135 183.5t35 118.5q0 62 -35.5 97t-102.5 35q-98 0 -170 -48l-24 122q109 66 240 66q125 0 194.5 -69.5t69.5 -176.5q0 -74 -38.5 -159t-177.5 -241q-69 -77 -102 -146t-42 -154q-5 -33 -8 -46zM356 112
q0 -53 -35.5 -91.5t-86.5 -38.5q-46 0 -75 32t-29 82q0 52 35.5 91t84.5 39q48 0 77 -32t29 -82z" />
    <glyph glyph-name="at" unicode="@" horiz-adv-x="1306" 
d="M940 134l28 -80q-133 -78 -324 -78q-240 0 -392 163.5t-152 440.5q0 214 89 398t246 288t347 104q225 0 362.5 -148t137.5 -382q0 -245 -94.5 -385.5t-237.5 -140.5q-134 0 -134 166h-6q-95 -166 -250 -166q-84 0 -137 64t-53 172q0 193 129 341.5t323 148.5
q99 0 178 -36q-74 -392 -79.5 -424.5t-5.5 -71.5q0 -102 63 -102q78 0 140 115t62 293q0 220 -109 345t-305 125q-234 0 -398 -197.5t-164 -502.5q0 -245 125 -381.5t339 -136.5q145 0 272 68zM816 672l50 256q-27 12 -76 12q-117 0 -204.5 -116.5t-87.5 -267.5
q0 -138 106 -138q67 0 130 79t82 175z" />
    <glyph glyph-name="A" unicode="A" horiz-adv-x="998" 
d="M684 412h-380l-186 -412h-166l626 1348h188l112 -1348h-164zM356 540h322q-34 420 -40 644h-4q-95 -243 -112 -280z" />
    <glyph glyph-name="B" unicode="B" horiz-adv-x="932" 
d="M44 12l250 1320q124 24 252 24q181 0 276.5 -81.5t95.5 -214.5q0 -116 -76 -210.5t-204 -133.5v-4q98 -32 151 -112t53 -188q0 -163 -129.5 -291.5t-424.5 -128.5q-152 0 -244 20zM432 1218l-84 -440h90q137 0 225.5 75.5t88.5 194.5q0 86 -55 133t-157 47
q-81 0 -108 -10zM324 654l-100 -520q37 -10 108 -10q153 0 247.5 81t94.5 219q0 109 -70 169.5t-186 60.5h-94z" />
    <glyph glyph-name="C" unicode="C" horiz-adv-x="916" 
d="M786 168l14 -136q-105 -48 -264 -48q-214 0 -333 140t-119 374q0 233 90.5 437t255 316.5t364.5 112.5q146 0 214 -44l-50 -136q-72 36 -186 36q-132 0 -249.5 -81t-191 -251t-73.5 -358q0 -402 316 -402q119 0 212 40z" />
    <glyph glyph-name="D" unicode="D" horiz-adv-x="1090" 
d="M44 12l250 1320q126 24 270 24q254 0 383 -129t129 -365q0 -342 -182 -606t-584 -264q-164 0 -266 20zM434 1210l-204 -1072q51 -8 122 -8q266 0 409 210t143 520q0 362 -342 362q-79 0 -128 -12z" />
    <glyph glyph-name="E" unicode="E" horiz-adv-x="824" 
d="M760 774l-26 -140h-410l-92 -492h462l-26 -142h-626l256 1348h598l-28 -142h-434l-84 -432h410z" />
    <glyph glyph-name="F" unicode="F" horiz-adv-x="810" 
d="M42 0l256 1348h598l-28 -142h-434l-88 -458h404l-28 -140h-402l-116 -608h-162z" />
    <glyph glyph-name="G" unicode="G" horiz-adv-x="1058" 
d="M1000 706l-126 -660q-151 -58 -304 -58q-233 0 -357.5 142t-124.5 378q0 229 96.5 433t265.5 311.5t376 107.5q152 0 244 -46l-52 -140q-87 40 -210 40q-163 0 -288.5 -95.5t-191.5 -262.5t-66 -336q0 -190 83.5 -290t244.5 -100q88 0 148 26l78 416h-218l26 134h376z
" />
    <glyph glyph-name="H" unicode="H" horiz-adv-x="1086" 
d="M298 1348h164l-110 -572h490l108 572h164l-256 -1348h-164l118 630h-488l-120 -630h-162z" />
    <glyph glyph-name="I" unicode="I" horiz-adv-x="434" 
d="M298 1348h162l-256 -1348h-162z" />
    <glyph glyph-name="J" unicode="J" horiz-adv-x="624" 
d="M324 398l180 950h162l-184 -966q-40 -210 -129.5 -305t-264.5 -95q-97 0 -158 26l32 140q59 -20 130 -20q98 0 151.5 63.5t80.5 206.5z" />
    <glyph glyph-name="K" unicode="K" horiz-adv-x="910" 
d="M42 0l256 1348h162l-126 -652h8q81 113 200 258l324 394h194l-500 -580l266 -768h-174l-220 654l-130 -138l-100 -516h-160z" />
    <glyph glyph-name="L" unicode="L" horiz-adv-x="770" 
d="M42 0l256 1348h162l-228 -1206h454l-28 -142h-616z" />
    <glyph glyph-name="M" unicode="M" horiz-adv-x="1370" 
d="M1174 0h-152l100 734q19 143 66 414h-8q-100 -249 -180 -412l-358 -726h-116l-72 728q-20 185 -26 410h-4q-78 -363 -90 -414l-178 -734h-150l340 1348h194l74 -764q20 -216 20 -328h6q58 153 142 328l368 764h200z" />
    <glyph glyph-name="N" unicode="N" horiz-adv-x="1092" 
d="M190 0h-148l256 1348h168l218 -732q56 -186 92 -384h4q26 264 57 421l133 695h148l-256 -1348h-154l-218 718q-72 241 -96 408h-6q-23 -196 -74 -466z" />
    <glyph glyph-name="O" unicode="O" horiz-adv-x="1114" 
d="M1102 872q0 -212 -79 -434t-218.5 -339t-318.5 -117q-194 0 -299 138t-105 350q0 228 88 454.5t228.5 334t305.5 107.5q194 0 296 -133t102 -361zM250 480q0 -167 64.5 -261.5t189.5 -94.5q111 0 208.5 113t157.5 299.5t60 331.5q0 187 -62.5 271.5t-187.5 84.5
q-113 0 -211.5 -111t-158.5 -295t-60 -338z" />
    <glyph glyph-name="P" unicode="P" horiz-adv-x="904" 
d="M44 0l252 1332q126 24 256 24q181 0 281.5 -87t100.5 -245q0 -132 -67.5 -252t-189.5 -179t-259 -59q-55 0 -112 10l-102 -544h-160zM434 1212l-102 -532q44 -10 104 -10q149 0 241.5 100.5t92.5 239.5q0 212 -228 212q-66 0 -108 -10z" />
    <glyph glyph-name="Q" unicode="Q" horiz-adv-x="1114" 
d="M964 -50l-72 -134q-228 71 -378 144q-46 22 -66 22q-167 8 -266.5 143.5t-99.5 344.5q0 226 87 451t228 335t307 110q195 0 296.5 -134.5t101.5 -361.5q0 -244 -110 -503t-318 -333v-6q147 -47 290 -78zM252 472q0 -165 64 -257.5t188 -92.5q115 0 212.5 113.5
t156.5 301.5t59 335q0 352 -250 352q-115 0 -213 -112.5t-157.5 -300t-59.5 -339.5z" />
    <glyph glyph-name="R" unicode="R" horiz-adv-x="930" 
d="M44 0l252 1330q126 26 256 26q181 0 278.5 -86t97.5 -222t-82.5 -247.5t-217.5 -154.5v-4q124 -46 136 -286q13 -305 30 -356h-166q-12 53 -22 328q-6 137 -49.5 197.5t-140.5 60.5h-102l-110 -586h-160zM434 1212l-94 -498h108q134 0 222 91t88 225q0 92 -56 143
t-158 51q-71 0 -110 -12z" />
    <glyph glyph-name="S" unicode="S" horiz-adv-x="812" 
d="M6 58l54 138q106 -68 234 -68q116 0 190 70t74 180q0 73 -39 133t-129 125q-216 152 -216 338q0 169 120 279.5t302 110.5q141 0 228 -56l-52 -138q-88 50 -192 50q-106 0 -173 -63.5t-67 -154.5q0 -69 38.5 -125.5t137.5 -124.5q210 -145 210 -348q0 -185 -121.5 -302.5
t-326.5 -117.5q-171 0 -272 74z" />
    <glyph glyph-name="T" unicode="T" horiz-adv-x="820" 
d="M232 0l228 1202h-318l28 146h798l-28 -146h-318l-228 -1202h-162z" />
    <glyph glyph-name="U" unicode="U" horiz-adv-x="1072" 
d="M294 1348h164l-162 -850q-16 -90 -16 -162q0 -100 52.5 -156t143.5 -56q117 0 190 89t110 281l164 854h162l-160 -850q-49 -263 -168 -389.5t-320 -126.5q-157 0 -246.5 89.5t-89.5 254.5q0 91 18 186z" />
    <glyph glyph-name="V" unicode="V" horiz-adv-x="960" 
d="M456 0h-174l-108 1348h170l54 -832q10 -171 10 -241q0 -43 -2 -81h6q56 160 132 330l370 824h178z" />
    <glyph glyph-name="W" unicode="W" horiz-adv-x="1476" 
d="M388 0h-166l-28 1348h166l6 -790q0 -110 -14 -352h6q49 157 126 342l334 800h164l10 -774q0 -232 -8 -366h6q75 239 118 346l320 794h168l-566 -1348h-170l-18 748q0 250 10 368h-4q-91 -264 -132 -360z" />
    <glyph glyph-name="X" unicode="X" horiz-adv-x="904" 
d="M790 0h-168q-140 484 -156 564h-6q-79 -143 -344 -564h-184l460 688l-190 660h168q122 -422 144 -540h4q75 142 121 213l213 327h184l-452 -660z" />
    <glyph glyph-name="Y" unicode="Y" horiz-adv-x="910" 
d="M428 0h-162l106 562l-202 786h174q99 -431 109.5 -485t26.5 -163h4q68 136 142 258l238 390h184l-514 -784z" />
    <glyph glyph-name="Z" unicode="Z" horiz-adv-x="876" 
d="M-50 0l20 102l778 1100v4h-520l28 142h726l-22 -112l-772 -1090v-4h570l-28 -142h-780z" />
    <glyph glyph-name="bracketleft" unicode="[" horiz-adv-x="540" 
d="M344 -224h-324l304 1596h324l-22 -110h-190l-262 -1376h190z" />
    <glyph glyph-name="backslash" unicode="\" horiz-adv-x="610" 
d="M584 -80h-126l-352 1446h126z" />
    <glyph glyph-name="bracketright" unicode="]" horiz-adv-x="540" 
d="M222 1372h326l-304 -1596h-326l20 110h194l262 1376h-194z" />
    <glyph glyph-name="asciicircum" unicode="^" horiz-adv-x="1192" 
d="M1076 376h-138l-328 772h-6l-330 -772h-136l410 924h120z" />
    <glyph glyph-name="underscore" unicode="_" horiz-adv-x="1000" 
d="M-108 -150h1000l-20 -100h-1000z" />
    <glyph glyph-name="grave" unicode="`" horiz-adv-x="716" 
d="M264 1362h174l134 -280h-112z" />
    <glyph glyph-name="a" unicode="a" horiz-adv-x="908" 
d="M728 0h-148q0 62 18 214h-6q-128 -232 -312 -232q-105 0 -167.5 80.5t-62.5 215.5q0 276 166.5 492t433.5 216q115 0 224 -34q-111 -553 -121 -608.5t-17.5 -150.5t-7.5 -193zM628 520l64 326q-36 10 -86 10q-157 0 -273.5 -172.5t-116.5 -367.5q0 -198 124 -198
q86 0 170.5 117.5t117.5 284.5z" />
    <glyph glyph-name="b" unicode="b" horiz-adv-x="916" 
d="M292 1402h162l-116 -582h4q114 166 280 166q116 0 179 -86t63 -224q0 -263 -154.5 -478.5t-395.5 -215.5q-118 0 -183 56t-65 158q0 61 14 132zM552 848q-53 0 -107 -38t-98 -111.5t-66.5 -182.5t-35.5 -165t-13 -123q0 -118 118 -118q144 0 244 178t100 356
q0 204 -142 204z" />
    <glyph glyph-name="c" unicode="c" horiz-adv-x="712" 
d="M588 158l8 -130q-96 -44 -220 -44q-152 0 -236 98t-84 262q0 253 154.5 447.5t385.5 194.5q93 0 150 -30l-44 -132q-58 24 -118 24q-152 0 -256 -149.5t-104 -334.5q0 -118 50.5 -181t145.5 -63q80 0 168 38z" />
    <glyph glyph-name="d" unicode="d" horiz-adv-x="912" 
d="M712 0h-144l18 170h-4q-113 -188 -290 -188q-111 0 -176.5 88t-65.5 234q0 269 153.5 475.5t374.5 206.5q77 0 134 -34l86 450h162l-206 -1078q-31 -161 -42 -324zM616 432l68 382q-43 42 -120 42q-140 0 -244 -169t-104 -357q0 -212 142 -212q80 0 156.5 88t101.5 226z
" />
    <glyph glyph-name="e" unicode="e" horiz-adv-x="798" 
d="M632 174l22 -122q-127 -68 -278 -68q-156 0 -239 96.5t-83 269.5q0 237 138 436.5t340 199.5q115 0 180.5 -66.5t65.5 -171.5q0 -324 -560 -324q-3 -23 -3 -56q0 -252 199 -252q109 0 218 58zM238 550q386 -4 386 192q0 53 -30.5 82.5t-85.5 29.5q-85 0 -158.5 -81
t-111.5 -223z" />
    <glyph glyph-name="f" unicode="f" horiz-adv-x="516" 
d="M220 0h-162l160 842h-124l24 126h124q56 278 155 365t223 87q78 0 120 -22l-36 -128q-41 14 -86 14q-166 0 -214 -316h200l-24 -126h-200z" />
    <glyph glyph-name="g" unicode="g" horiz-adv-x="910" 
d="M2 -352l44 128q90 -52 208 -52q80 0 138 35t96.5 104.5t59.5 171.5l30 143h-4q-111 -182 -280 -182q-110 0 -176 85t-66 223q0 265 157 473.5t401 208.5q138 0 262 -58l-152 -818q-59 -311 -176.5 -414.5t-299.5 -103.5q-149 0 -242 56zM622 460l72 370q-45 24 -120 24
q-146 0 -250 -162t-104 -348q0 -216 138 -216q84 0 161.5 101t102.5 231z" />
    <glyph glyph-name="h" unicode="h" horiz-adv-x="932" 
d="M194 0h-162l266 1402h162l-112 -584l4 -2q120 170 292 170q92 0 148 -60.5t56 -165.5q0 -70 -20 -175l-110 -585h-162l114 604q10 52 10 120q0 126 -114 126q-84 0 -166 -97.5t-108 -234.5z" />
    <glyph glyph-name="i" unicode="i" horiz-adv-x="412" 
d="M194 0h-162l184 968h162zM456 1265q0 -53 -33.5 -88t-82.5 -35q-43 0 -68.5 28t-25.5 73q0 51 33 87t79 36q45 0 71.5 -28t26.5 -73z" />
    <glyph glyph-name="j" unicode="j" horiz-adv-x="412" 
d="M228 968h160l-182 -962q-50 -272 -136.5 -343t-193.5 -71q-64 0 -98 10l18 128q24 -6 68 -6q72 0 111.5 61t62.5 181zM462 1265q0 -53 -33.5 -88t-82.5 -35q-43 0 -68.5 28t-25.5 73q0 51 33 87t79 36q45 0 71.5 -28t26.5 -73z" />
    <glyph glyph-name="k" unicode="k" horiz-adv-x="806" 
d="M192 0h-160l266 1402h160l-162 -860h4q47 63 132 160l234 266h194l-376 -404l236 -564h-172l-188 474l-96 -100z" />
    <glyph glyph-name="l" unicode="l" horiz-adv-x="412" 
d="M194 0h-162l266 1402h164z" />
    <glyph glyph-name="m" unicode="m" horiz-adv-x="1406" 
d="M190 0h-158q150 797 172 968h142l-20 -168h4q122 186 296 186q83 0 133.5 -50t58.5 -140q122 190 306 190q89 0 144.5 -60.5t55.5 -163.5q0 -67 -21 -178l-111 -584h-160l82 426q35 184 39.5 222.5t4.5 73.5q0 128 -110 128q-78 0 -156.5 -93.5t-110.5 -266.5l-91 -490
h-158l82 432q35 185 39.5 220t4.5 70q0 128 -110 128q-75 0 -155 -99t-107 -241z" />
    <glyph glyph-name="n" unicode="n" horiz-adv-x="932" 
d="M194 0h-162q166 883 172 968h144l-20 -170h4q123 188 310 188q93 0 149.5 -62t56.5 -170q0 -62 -17 -154l-113 -600h-164q93 495 109.5 574.5t16.5 145.5q0 130 -114 130q-83 0 -166.5 -100t-111.5 -248z" />
    <glyph glyph-name="o" unicode="o" horiz-adv-x="898" 
d="M844 626q0 -241 -135.5 -442.5t-342.5 -201.5q-147 0 -229.5 99.5t-82.5 262.5q0 247 139.5 444.5t346.5 197.5q147 0 225.5 -99.5t78.5 -260.5zM218 354q0 -113 42.5 -177.5t121.5 -64.5q122 0 208 171.5t86 348.5q0 104 -41 164t-119 60q-122 0 -210 -162.5t-88 -339.5
z" />
    <glyph glyph-name="p" unicode="p" horiz-adv-x="916" 
d="M112 -390h-160l192 1014q28 151 54 344h146l-24 -168h4q127 186 298 186q116 0 178 -84.5t62 -229.5q0 -263 -148 -476.5t-358 -213.5q-98 0 -162 38h-4zM276 478l-60 -322q54 -44 136 -44q141 0 241.5 182t100.5 362q0 192 -136 192q-85 0 -168.5 -103.5t-113.5 -266.5z
" />
    <glyph glyph-name="q" unicode="q" horiz-adv-x="912" 
d="M622 -390h-162l114 554h-4q-110 -182 -280 -182q-112 0 -176 86.5t-64 235.5q0 259 158.5 470.5t403.5 211.5q137 0 262 -56zM620 452l74 378q-46 24 -116 24q-142 0 -251 -161.5t-109 -362.5q0 -212 132 -212q87 0 166 102t104 232z" />
    <glyph glyph-name="r" unicode="r" horiz-adv-x="574" 
d="M194 0h-162q127 675 140 755.5t26 212.5h142q-6 -86 -20 -196h6q107 214 268 214l38 -2l-32 -166q-7 2 -32 2q-95 0 -177.5 -104.5t-110.5 -253.5z" />
    <glyph glyph-name="s" unicode="s" horiz-adv-x="660" 
d="M-8 44l48 120q91 -52 180 -52q75 0 121.5 44.5t46.5 111.5q0 55 -26 96t-92 84q-150 102 -150 242q0 128 92.5 212t239.5 84q109 0 178 -42l-44 -122q-66 36 -140 36q-73 0 -118.5 -40.5t-45.5 -103.5q0 -49 27.5 -84t84.5 -74q160 -108 160 -254q0 -151 -97.5 -234.5
t-250.5 -83.5q-126 0 -214 60z" />
    <glyph glyph-name="t" unicode="t" horiz-adv-x="558" 
d="M278 1140l174 60l-46 -232h206l-24 -126h-206l-97 -506q-7 -37 -11 -71.5t-4 -60.5q0 -84 80 -84q50 0 68 6l-12 -126q-43 -16 -118 -16q-88 0 -137 46.5t-49 125.5q0 64 16 151l102 535h-126l24 126h128z" />
    <glyph glyph-name="u" unicode="u" horiz-adv-x="924" 
d="M724 968h162l-113 -594q-33 -176 -57 -374h-146l20 166l-4 2q-125 -186 -300 -186q-98 0 -154 63t-56 177q0 64 18 161l110 585h162l-85 -448q-31 -163 -35 -199t-4 -69q0 -132 116 -132q82 0 161 93t105 229z" />
    <glyph glyph-name="v" unicode="v" horiz-adv-x="798" 
d="M104 968h166q53 -600 56.5 -644.5t3.5 -137.5h8q29 92 89 221l259 561h172l-484 -968h-158z" />
    <glyph glyph-name="w" unicode="w" horiz-adv-x="1264" 
d="M116 968h164q20 -598 20 -640q0 -74 -6 -152h6q41 119 94 233l260 559h136q45 -649 45 -705q0 -45 -3 -87h6q54 170 87 248l233 544h164l-448 -968h-146l-31 379q-13 161 -15 206.5t-2 88.5q0 46 2 92h-6q-64 -178 -97 -247l-247 -519h-148z" />
    <glyph glyph-name="x" unicode="x" horiz-adv-x="766" 
d="M112 968h174q63 -181 120 -368h4q90 142 248 368h182l-366 -476l182 -492h-174q-114 336 -124 388h-4q-65 -115 -256 -388h-182l376 496z" />
    <glyph glyph-name="y" unicode="y" horiz-adv-x="786" 
d="M98 968h168q81 -682 88 -772h4q33 96 107 272l207 500h170l-344 -758q-147 -320 -278 -461t-266 -181l-52 138q86 37 141.5 77.5t111.5 109t78 122.5q5 11 5 45z" />
    <glyph glyph-name="z" unicode="z" horiz-adv-x="714" 
d="M-56 0l13 82q3 22 83 124l337 427l65 79l52 60q51 56 52 60h-412l28 136h598l-20 -110l-319 -406l-150 -187q-49 -58 -111 -125v-4h450l-28 -136h-638z" />
    <glyph glyph-name="braceleft" unicode="{" horiz-adv-x="540" 
d="M64 524l20 106q73 0 112 33t54 84.5t26 200.5q10 127 24.5 195.5t54.5 123t100 80t139 25.5h48l-22 -110h-34q-68 0 -107 -41.5t-51.5 -107.5t-19.5 -172q-10 -134 -28.5 -200t-60.5 -106.5t-105 -56.5v-4q104 -29 104 -146q0 -66 -50 -220q-48 -160 -48 -206
q0 -116 106 -116h32l-20 -110h-32q-106 0 -165 51t-59 145q0 84 54 242q52 160 52 206q0 104 -124 104z" />
    <glyph glyph-name="bar" unicode="|" horiz-adv-x="404" 
d="M174 1500h124v-2000h-124v2000z" />
    <glyph glyph-name="braceright" unicode="}" horiz-adv-x="540" 
d="M504 626l-20 -106q-75 0 -114 -33t-54 -86t-26 -200q-10 -126 -24.5 -195.5t-54.5 -124t-100 -80t-139 -25.5h-48l22 110h34q68 0 107 41.5t51.5 108t19.5 172.5q10 135 28.5 200t60.5 105.5t105 58.5v4q-104 30 -104 146q0 55 52 218q48 160 48 206q0 116 -106 116h-32
l20 110h32q105 0 163.5 -51t58.5 -145q0 -82 -52 -242q-52 -149 -52 -206q0 -102 124 -102z" />
    <glyph glyph-name="asciitilde" unicode="~" horiz-adv-x="1192" 
d="M258 430h-118q0 150 66.5 218t165.5 68q95 0 264 -86q161 -82 228 -82q102 0 102 160h118q0 -169 -64 -228.5t-156 -59.5q-102 0 -280 92q-147 78 -220 78q-102 0 -106 -160z" />
    <glyph glyph-name="Adieresis" unicode="&#xc4;" horiz-adv-x="998" 
d="M684 412h-380l-186 -412h-166l626 1348h188l112 -1348h-164zM356 540h322q-34 420 -40 644h-4q-95 -243 -112 -280zM612 1576q0 -42 -28 -72t-70 -30q-38 0 -64 26.5t-26 65.5q0 42 29 72t69 30t65 -27t25 -65zM948 1576q0 -42 -28.5 -72t-69.5 -30q-38 0 -64 26.5
t-26 65.5q0 42 29 72t69 30t65 -27t25 -65z" />
    <glyph glyph-name="Aring" unicode="&#xc5;" horiz-adv-x="998" 
d="M684 412h-380l-186 -412h-166l618 1328q-78 40 -78 132q0 82 59 139t155 57q87 0 136.5 -46t49.5 -120q0 -57 -33.5 -103.5t-90.5 -64.5l110 -1322h-164zM788 1482q0 46 -23.5 76t-64.5 30q-46 0 -75 -34t-29 -88q0 -43 25 -70.5t63 -27.5q44 0 74 32.5t30 81.5zM356 540
h322q-37 469 -40 646l-4 -2q-95 -243 -112 -280z" />
    <glyph glyph-name="Ccedilla" unicode="&#xc7;" horiz-adv-x="916" 
d="M784 168l14 -136q-99 -44 -226 -48l-60 -84q108 -30 108 -132q0 -78 -61 -122t-143 -44q-81 0 -130 36l34 82q50 -28 100 -28q37 0 61.5 18.5t24.5 49.5q0 69 -128 82l100 144q-192 19 -293 157.5t-101 356.5q0 230 91 434.5t253.5 317t365.5 112.5q143 0 214 -44
l-52 -136q-72 36 -186 36q-133 0 -251.5 -84t-189.5 -253.5t-71 -352.5q0 -404 314 -404q124 0 212 42z" />
    <glyph glyph-name="Eacute" unicode="&#xc9;" horiz-adv-x="824" 
d="M760 774l-26 -140h-410l-92 -492h462l-26 -142h-626l256 1348h598l-28 -142h-434l-84 -432h410zM732 1682h200l-274 -232h-134z" />
    <glyph glyph-name="Ntilde" unicode="&#xd1;" horiz-adv-x="1092" 
d="M190 0h-148l256 1348h168l218 -732q56 -186 92 -384h4q26 264 57 421l133 695h148l-256 -1348h-154l-218 718q-72 241 -96 408h-6q-23 -196 -74 -466zM605 1444h-92q5 90 42 139t94 49q42 0 110 -36q50 -36 82 -36q48 0 58 78h90q-13 -182 -140 -182q-52 0 -110 36
q-54 34 -80 34q-44 0 -54 -82z" />
    <glyph glyph-name="Odieresis" unicode="&#xd6;" horiz-adv-x="1114" 
d="M1102 872q0 -212 -79 -434t-218.5 -339t-318.5 -117q-194 0 -299 138t-105 350q0 228 88 454.5t228.5 334t305.5 107.5q194 0 296 -133t102 -361zM250 480q0 -167 64.5 -261.5t189.5 -94.5q111 0 208.5 113t157.5 299.5t60 331.5q0 187 -62.5 271.5t-187.5 84.5
q-113 0 -211.5 -111t-158.5 -295t-60 -338zM678 1576q0 -42 -28 -72t-70 -30q-38 0 -64 26.5t-26 65.5q0 42 29 72t69 30t65 -27t25 -65zM1014 1576q0 -42 -28.5 -72t-69.5 -30q-38 0 -64 26.5t-26 65.5q0 42 29 72t69 30t65 -27t25 -65z" />
    <glyph glyph-name="Udieresis" unicode="&#xdc;" horiz-adv-x="1072" 
d="M294 1348h164l-162 -850q-16 -90 -16 -162q0 -100 52.5 -156t143.5 -56q117 0 190 89t110 281l164 854h162l-160 -850q-49 -263 -168 -389.5t-320 -126.5q-157 0 -246.5 89.5t-89.5 254.5q0 91 18 186zM668 1576q0 -42 -28 -72t-70 -30q-38 0 -64 26.5t-26 65.5
q0 42 29 72t69 30t65 -27t25 -65zM1004 1576q0 -42 -28.5 -72t-69.5 -30q-38 0 -64 26.5t-26 65.5q0 42 29 72t69 30t65 -27t25 -65z" />
    <glyph glyph-name="aacute" unicode="&#xe1;" horiz-adv-x="908" 
d="M728 0h-148q0 62 18 214h-6q-128 -232 -312 -232q-105 0 -167.5 80.5t-62.5 215.5q0 276 166.5 492t433.5 216q115 0 224 -34q-111 -553 -121 -608.5t-17.5 -150.5t-7.5 -193zM628 520l64 326q-36 10 -86 10q-157 0 -273.5 -172.5t-116.5 -367.5q0 -198 124 -198
q86 0 170.5 117.5t117.5 284.5zM726 1362h180l-246 -280h-118z" />
    <glyph glyph-name="agrave" unicode="&#xe0;" horiz-adv-x="908" 
d="M728 0h-148q0 62 18 214h-6q-128 -232 -312 -232q-105 0 -167.5 80.5t-62.5 215.5q0 276 166.5 492t433.5 216q115 0 224 -34q-111 -553 -121 -608.5t-17.5 -150.5t-7.5 -193zM628 520l64 326q-36 10 -86 10q-157 0 -273.5 -172.5t-116.5 -367.5q0 -198 124 -198
q86 0 170.5 117.5t117.5 284.5zM383 1362h174l134 -280h-112z" />
    <glyph glyph-name="acircumflex" unicode="&#xe2;" horiz-adv-x="908" 
d="M728 0h-148q0 62 18 214h-6q-128 -232 -312 -232q-105 0 -167.5 80.5t-62.5 215.5q0 276 166.5 492t433.5 216q115 0 224 -34q-111 -553 -121 -608.5t-17.5 -150.5t-7.5 -193zM628 520l64 326q-36 10 -86 10q-157 0 -273.5 -172.5t-116.5 -367.5q0 -198 124 -198
q86 0 170.5 117.5t117.5 284.5zM600 1362h104l126 -280h-116l-74 178h-4l-128 -178h-124z" />
    <glyph glyph-name="adieresis" unicode="&#xe4;" horiz-adv-x="908" 
d="M728 0h-148q0 62 18 214h-6q-128 -232 -312 -232q-105 0 -167.5 80.5t-62.5 215.5q0 276 166.5 492t433.5 216q115 0 224 -34q-111 -553 -121 -608.5t-17.5 -150.5t-7.5 -193zM628 520l64 326q-36 10 -86 10q-157 0 -273.5 -172.5t-116.5 -367.5q0 -198 124 -198
q86 0 170.5 117.5t117.5 284.5zM538 1226q0 -44 -28.5 -74t-71.5 -30q-40 0 -66 26.5t-26 67.5q0 43 29.5 73.5t70.5 30.5q42 0 67 -26.5t25 -67.5zM870 1226q0 -44 -28.5 -74t-71.5 -30q-40 0 -66 26.5t-26 67.5q0 43 29.5 73.5t70.5 30.5q42 0 67 -26.5t25 -67.5z" />
    <glyph glyph-name="atilde" unicode="&#xe3;" horiz-adv-x="908" 
d="M728 0h-148q0 62 18 214h-6q-128 -232 -312 -232q-105 0 -167.5 80.5t-62.5 215.5q0 276 166.5 492t433.5 216q115 0 224 -34q-111 -553 -121 -608.5t-17.5 -150.5t-7.5 -193zM628 520l64 326q-36 10 -86 10q-157 0 -273.5 -172.5t-116.5 -367.5q0 -198 124 -198
q86 0 170.5 117.5t117.5 284.5zM462 1122h-90q6 88 43 138t95 50q42 0 110 -40q57 -34 80 -34q28 0 39.5 19.5t16.5 58.5h88q-13 -180 -140 -180q-50 0 -110 36q-56 36 -78 36q-42 0 -54 -84z" />
    <glyph glyph-name="aring" unicode="&#xe5;" horiz-adv-x="908" 
d="M728 0h-148q0 62 18 214h-6q-128 -232 -312 -232q-105 0 -167.5 80.5t-62.5 215.5q0 276 166.5 492t433.5 216q115 0 224 -34q-111 -553 -121 -608.5t-17.5 -150.5t-7.5 -193zM628 520l64 326q-36 10 -86 10q-157 0 -273.5 -172.5t-116.5 -367.5q0 -198 124 -198
q86 0 170.5 117.5t117.5 284.5zM410 1236q0 84 57.5 138t144.5 54q85 0 135.5 -47t50.5 -127q0 -81 -59 -133.5t-143 -52.5q-81 0 -133.5 47.5t-52.5 120.5zM702 1254q0 44 -25.5 72t-68.5 28q-44 0 -73 -32.5t-29 -79.5q0 -43 26 -71.5t68 -28.5q44 0 73 32t29 80z" />
    <glyph glyph-name="ccedilla" unicode="&#xe7;" horiz-adv-x="712" 
d="M588 158l8 -126q-83 -40 -166 -46l-60 -86q108 -30 108 -132q0 -74 -60.5 -120t-145.5 -46q-83 0 -130 36l36 82q50 -28 102 -28q36 0 60 19t24 51q0 69 -130 82l98 142q-134 15 -205 112t-71 246q0 253 155 447.5t387 194.5q83 0 148 -30l-44 -132q-59 24 -118 24
q-152 0 -256 -149.5t-104 -334.5q0 -113 49 -178.5t145 -65.5q83 0 170 38z" />
    <glyph glyph-name="eacute" unicode="&#xe9;" horiz-adv-x="798" 
d="M632 174l22 -122q-127 -68 -278 -68q-156 0 -239 96.5t-83 269.5q0 237 138 436.5t340 199.5q115 0 180.5 -66.5t65.5 -171.5q0 -324 -560 -324q-3 -23 -3 -56q0 -252 199 -252q109 0 218 58zM238 550q386 -4 386 192q0 53 -30.5 82.5t-85.5 29.5q-85 0 -158.5 -81
t-111.5 -223zM642 1362h180l-246 -280h-118z" />
    <glyph glyph-name="egrave" unicode="&#xe8;" horiz-adv-x="798" 
d="M632 174l22 -122q-127 -68 -278 -68q-156 0 -239 96.5t-83 269.5q0 237 138 436.5t340 199.5q115 0 180.5 -66.5t65.5 -171.5q0 -324 -560 -324q-3 -23 -3 -56q0 -252 199 -252q109 0 218 58zM238 550q386 -4 386 192q0 53 -30.5 82.5t-85.5 29.5q-85 0 -158.5 -81
t-111.5 -223zM310 1362h174l134 -280h-112z" />
    <glyph glyph-name="ecircumflex" unicode="&#xea;" horiz-adv-x="798" 
d="M632 174l22 -122q-127 -68 -278 -68q-156 0 -239 96.5t-83 269.5q0 237 138 436.5t340 199.5q115 0 180.5 -66.5t65.5 -171.5q0 -324 -560 -324q-3 -23 -3 -56q0 -252 199 -252q109 0 218 58zM238 550q386 -4 386 192q0 53 -30.5 82.5t-85.5 29.5q-85 0 -158.5 -81
t-111.5 -223zM536 1362h104l126 -280h-116l-74 178h-4l-128 -178h-124z" />
    <glyph glyph-name="edieresis" unicode="&#xeb;" horiz-adv-x="798" 
d="M632 174l22 -122q-127 -68 -278 -68q-156 0 -239 96.5t-83 269.5q0 237 138 436.5t340 199.5q115 0 180.5 -66.5t65.5 -171.5q0 -324 -560 -324q-3 -23 -3 -56q0 -252 199 -252q109 0 218 58zM238 550q386 -4 386 192q0 53 -30.5 82.5t-85.5 29.5q-85 0 -158.5 -81
t-111.5 -223zM496 1226q0 -44 -28.5 -74t-71.5 -30q-40 0 -66 26.5t-26 67.5q0 43 29.5 73.5t70.5 30.5q42 0 67 -26.5t25 -67.5zM828 1226q0 -44 -28.5 -74t-71.5 -30q-40 0 -66 26.5t-26 67.5q0 43 29.5 73.5t70.5 30.5q42 0 67 -26.5t25 -67.5z" />
    <glyph glyph-name="iacute" unicode="&#xed;" horiz-adv-x="412" 
d="M194 0h-162l186 968h162zM419 1362h180l-246 -280h-118z" />
    <glyph glyph-name="igrave" unicode="&#xec;" horiz-adv-x="412" 
d="M194 0h-162l186 968h162zM85 1362h174l134 -280h-112z" />
    <glyph glyph-name="icircumflex" unicode="&#xee;" horiz-adv-x="412" 
d="M194 0h-162l186 968h162zM309 1362h104l126 -280h-116l-74 178h-4l-128 -178h-124z" />
    <glyph glyph-name="idieresis" unicode="&#xef;" horiz-adv-x="412" 
d="M194 0h-162l186 968h162zM271 1226q0 -44 -28.5 -74t-71.5 -30q-40 0 -66 26.5t-26 67.5q0 43 29.5 73.5t70.5 30.5q42 0 67 -26.5t25 -67.5zM603 1226q0 -44 -28.5 -74t-71.5 -30q-40 0 -66 26.5t-26 67.5q0 43 29.5 73.5t70.5 30.5q42 0 67 -26.5t25 -67.5z" />
    <glyph glyph-name="ntilde" unicode="&#xf1;" horiz-adv-x="932" 
d="M194 0h-162q166 883 172 968h144l-20 -170h4q123 188 310 188q93 0 149.5 -62t56.5 -170q0 -62 -17 -154l-113 -600h-164q93 495 109.5 574.5t16.5 145.5q0 130 -114 130q-83 0 -166.5 -100t-111.5 -248zM442 1122h-90q6 88 43 138t95 50q42 0 110 -40q57 -34 80 -34
q28 0 39.5 19.5t16.5 58.5h88q-13 -180 -140 -180q-50 0 -110 36q-56 36 -78 36q-42 0 -54 -84z" />
    <glyph glyph-name="oacute" unicode="&#xf3;" horiz-adv-x="898" 
d="M844 626q0 -241 -135.5 -442.5t-342.5 -201.5q-147 0 -229.5 99.5t-82.5 262.5q0 247 139.5 444.5t346.5 197.5q147 0 225.5 -99.5t78.5 -260.5zM218 354q0 -113 42.5 -177.5t121.5 -64.5q122 0 208 171.5t86 348.5q0 104 -41 164t-119 60q-122 0 -210 -162.5t-88 -339.5
zM663 1362h180l-246 -280h-118z" />
    <glyph glyph-name="ograve" unicode="&#xf2;" horiz-adv-x="898" 
d="M844 626q0 -241 -135.5 -442.5t-342.5 -201.5q-147 0 -229.5 99.5t-82.5 262.5q0 247 139.5 444.5t346.5 197.5q147 0 225.5 -99.5t78.5 -260.5zM218 354q0 -113 42.5 -177.5t121.5 -64.5q122 0 208 171.5t86 348.5q0 104 -41 164t-119 60q-122 0 -210 -162.5t-88 -339.5
zM333 1362h174l134 -280h-112z" />
    <glyph glyph-name="ocircumflex" unicode="&#xf4;" horiz-adv-x="898" 
d="M844 626q0 -241 -135.5 -442.5t-342.5 -201.5q-147 0 -229.5 99.5t-82.5 262.5q0 247 139.5 444.5t346.5 197.5q147 0 225.5 -99.5t78.5 -260.5zM218 354q0 -113 42.5 -177.5t121.5 -64.5q122 0 208 171.5t86 348.5q0 104 -41 164t-119 60q-122 0 -210 -162.5t-88 -339.5
zM556 1362h104l126 -280h-116l-74 178h-4l-128 -178h-124z" />
    <glyph glyph-name="odieresis" unicode="&#xf6;" horiz-adv-x="898" 
d="M844 626q0 -241 -135.5 -442.5t-342.5 -201.5q-147 0 -229.5 99.5t-82.5 262.5q0 247 139.5 444.5t346.5 197.5q147 0 225.5 -99.5t78.5 -260.5zM218 354q0 -113 42.5 -177.5t121.5 -64.5q122 0 208 171.5t86 348.5q0 104 -41 164t-119 60q-122 0 -210 -162.5t-88 -339.5
zM513 1226q0 -44 -28.5 -74t-71.5 -30q-40 0 -66 26.5t-26 67.5q0 43 29.5 73.5t70.5 30.5q42 0 67 -26.5t25 -67.5zM845 1226q0 -44 -28.5 -74t-71.5 -30q-40 0 -66 26.5t-26 67.5q0 43 29.5 73.5t70.5 30.5q42 0 67 -26.5t25 -67.5z" />
    <glyph glyph-name="otilde" unicode="&#xf5;" horiz-adv-x="898" 
d="M844 626q0 -241 -135.5 -442.5t-342.5 -201.5q-147 0 -229.5 99.5t-82.5 262.5q0 247 139.5 444.5t346.5 197.5q147 0 225.5 -99.5t78.5 -260.5zM218 354q0 -113 42.5 -177.5t121.5 -64.5q122 0 208 171.5t86 348.5q0 104 -41 164t-119 60q-122 0 -210 -162.5t-88 -339.5
zM416 1122h-90q6 88 43 138t95 50q42 0 110 -40q57 -34 80 -34q28 0 39.5 19.5t16.5 58.5h88q-13 -180 -140 -180q-50 0 -110 36q-56 36 -78 36q-42 0 -54 -84z" />
    <glyph glyph-name="uacute" unicode="&#xfa;" horiz-adv-x="924" 
d="M724 968h162l-113 -594q-33 -176 -57 -374h-146l20 166l-4 2q-125 -186 -300 -186q-98 0 -154 63t-56 177q0 64 18 161l110 585h162l-85 -448q-31 -163 -35 -199t-4 -69q0 -132 116 -132q82 0 161 93t105 229zM688 1362h180l-246 -280h-118z" />
    <glyph glyph-name="ugrave" unicode="&#xf9;" horiz-adv-x="924" 
d="M724 968h162l-113 -594q-33 -176 -57 -374h-146l20 166l-4 2q-125 -186 -300 -186q-98 0 -154 63t-56 177q0 64 18 161l110 585h162l-85 -448q-31 -163 -35 -199t-4 -69q0 -132 116 -132q82 0 161 93t105 229zM346 1362h174l134 -280h-112z" />
    <glyph glyph-name="ucircumflex" unicode="&#xfb;" horiz-adv-x="924" 
d="M724 968h162l-113 -594q-33 -176 -57 -374h-146l20 166l-4 2q-125 -186 -300 -186q-98 0 -154 63t-56 177q0 64 18 161l110 585h162l-85 -448q-31 -163 -35 -199t-4 -69q0 -132 116 -132q82 0 161 93t105 229zM564 1362h104l126 -280h-116l-74 178h-4l-128 -178h-124z
" />
    <glyph glyph-name="udieresis" unicode="&#xfc;" horiz-adv-x="924" 
d="M724 968h162l-113 -594q-33 -176 -57 -374h-146l20 166l-4 2q-125 -186 -300 -186q-98 0 -154 63t-56 177q0 64 18 161l110 585h162l-85 -448q-31 -163 -35 -199t-4 -69q0 -132 116 -132q82 0 161 93t105 229zM520 1226q0 -44 -28.5 -74t-71.5 -30q-40 0 -66 26.5
t-26 67.5q0 43 29.5 73.5t70.5 30.5q42 0 67 -26.5t25 -67.5zM852 1226q0 -44 -28.5 -74t-71.5 -30q-40 0 -66 26.5t-26 67.5q0 43 29.5 73.5t70.5 30.5q42 0 67 -26.5t25 -67.5z" />
    <glyph glyph-name="dagger" unicode="&#x2020;" horiz-adv-x="870" 
d="M522 1348h152l-92 -406l300 12l-28 -142l-294 16l-164 -928h-152l192 928l-300 -16l28 142l294 -12z" />
    <glyph glyph-name="degree" unicode="&#xb0;" horiz-adv-x="600" 
d="M174 1104q0 110 77 188t181 78q108 0 178 -73t70 -179q0 -114 -78 -190t-180 -76q-107 0 -177.5 72.5t-70.5 179.5zM577 1114q0 70 -40 118t-106 48q-65 0 -109.5 -52.5t-44.5 -121.5q0 -70 42 -117t104 -47q65 0 109.5 50t44.5 122z" />
    <glyph glyph-name="cent" unicode="&#xa2;" 
d="M480 -20h-114l38 200q-123 25 -185.5 117.5t-62.5 230.5q0 212 121.5 388t312.5 214l36 194h116l-36 -188q85 0 148 -42l-52 -124q-60 36 -152 36q-129 0 -227.5 -141.5t-98.5 -324.5q0 -108 53.5 -172t148.5 -64q81 0 168 38l12 -122q-73 -40 -188 -44z" />
    <glyph glyph-name="sterling" unicode="&#xa3;" 
d="M752 0h-726l20 102q267 144 272 496h-172l24 122h154q0 311 104.5 455.5t299.5 144.5q94 0 160 -42l-48 -126q-58 30 -126 30q-113 0 -173.5 -99.5t-60.5 -362.5h250l-24 -122h-232q-5 -69 -16.5 -124.5t-22.5 -88.5t-27 -65.5t-37.5 -64t-49.5 -59.5l-57 -56h514z" />
    <glyph glyph-name="section" unicode="&#xa7;" horiz-adv-x="908" 
d="M880 1300l-50 -108q-92 56 -204 56q-87 0 -143.5 -45t-56.5 -113q0 -57 40.5 -95t135.5 -83q240 -110 240 -286q0 -173 -176 -284q44 -58 44 -140q0 -145 -104 -230.5t-266 -85.5q-173 0 -280 80l52 112q110 -76 240 -76q94 0 151 46.5t57 121.5q0 61 -42.5 107
t-141.5 95q-248 124 -248 278q0 170 194 284q-44 58 -44 130q0 131 104 215.5t260 84.5q141 0 238 -64zM396 866q-58 -30 -92 -76t-34 -94q0 -59 33 -99t113 -81q118 -59 170 -102q112 64 112 178q0 107 -138 180q-121 65 -164 94z" />
    <glyph glyph-name="bullet" unicode="&#x2022;" horiz-adv-x="540" 
d="M508 686q0 -86 -59 -145t-145 -59q-85 0 -143.5 58.5t-58.5 145.5q0 86 59 145t143 59q86 0 145 -59t59 -145z" />
    <glyph glyph-name="paragraph" unicode="&#xb6;" horiz-adv-x="900" 
d="M402 -102h-110l122 638q-10 2 -16 2q-97 12 -174.5 100.5t-77.5 229.5q0 214 156.5 347t419.5 133q120 0 196 -14l-276 -1436h-110l258 1346h-130z" />
    <glyph glyph-name="germandbls" unicode="&#xdf;" horiz-adv-x="964" 
d="M194 0h-162l172 908q48 256 163.5 384t298.5 128q133 0 209.5 -76.5t76.5 -193.5q0 -64 -23.5 -123t-60.5 -95q-158 -70 -158 -184q0 -76 60 -164q90 -138 90 -258q0 -153 -104 -248.5t-264 -95.5q-111 0 -182 40l40 124q64 -34 142 -34q88 0 145 54.5t57 141.5
q0 89 -64 182q-86 130 -86 222q0 88 53 160t147 116q48 48 48 144q0 68 -36 111t-112 43q-104 0 -172.5 -88.5t-101.5 -265.5z" />
    <glyph glyph-name="registered" unicode="&#xae;" horiz-adv-x="1012" 
d="M152 916q0 186 129.5 317t312.5 131q184 0 313 -130.5t129 -317.5q0 -189 -129 -320.5t-313 -131.5q-183 0 -312.5 131.5t-129.5 320.5zM954 914q0 158 -105 269t-253 111q-149 0 -253.5 -110.5t-104.5 -267.5q0 -161 104.5 -271.5t255.5 -110.5q147 0 251.5 111
t104.5 269zM512 868v-214h-82v502q81 12 142 12q202 0 202 -142q0 -90 -96 -122v-4q67 -14 82 -122q15 -98 32 -124h-86q-14 16 -34 128q-14 86 -106 86h-54zM512 1100v-168h56q55 0 87.5 22t32.5 62q0 37 -29.5 62.5t-90.5 25.5q-28 0 -56 -4z" />
    <glyph glyph-name="copyright" unicode="&#xa9;" horiz-adv-x="1346" 
d="M116 680q0 255 177.5 435.5t428.5 180.5q248 0 423 -180.5t175 -435.5q0 -258 -174 -439t-424 -181q-252 0 -429 181.5t-177 438.5zM1222 680q0 225 -145 378.5t-355 153.5q-212 0 -358 -155t-146 -383q0 -224 146 -377t358 -153q210 0 355 154.5t145 381.5zM990 986
l-24 -82q-88 48 -196 48q-129 0 -201.5 -75.5t-72.5 -202.5q0 -122 72.5 -201t201.5 -79q122 0 206 54l22 -80q-93 -62 -246 -62q-164 0 -264 101.5t-100 260.5q0 162 111.5 267t270.5 105q146 0 220 -54z" />
    <glyph glyph-name="trademark" unicode="&#x2122;" horiz-adv-x="1440" 
d="M116 1348h518v-100h-202v-696h-116v696h-200v100zM1464 552h-116q-33 506 -33 555l-1 129h-4q-25 -105 -212 -676h-84l-124 401q-26 85 -74 275h-6l-1 -93q-1 -50 -9 -194l-22 -397h-112l60 796h154q171 -554 184 -626h4q28 113 44 164l142 462h148z" />
    <glyph glyph-name="acute" unicode="&#xb4;" horiz-adv-x="716" 
d="M568 1362h180l-246 -280h-118z" />
    <glyph glyph-name="dieresis" unicode="&#xa8;" horiz-adv-x="716" 
d="M426 1226q0 -44 -28.5 -74t-71.5 -30q-40 0 -66 26.5t-26 67.5q0 43 29.5 73.5t70.5 30.5q42 0 67 -26.5t25 -67.5zM758 1226q0 -44 -28.5 -74t-71.5 -30q-40 0 -66 26.5t-26 67.5q0 43 29.5 73.5t70.5 30.5q42 0 67 -26.5t25 -67.5z" />
    <glyph glyph-name="notequal" unicode="&#x2260;" horiz-adv-x="1192" 
d="M1122 258h-604l-156 -258l-116 60l122 198h-264v118h336l154 252h-490v118h564l162 266l112 -60l-126 -206h306v-118h-380l-150 -252h530v-118z" />
    <glyph glyph-name="AE" unicode="&#xc6;" horiz-adv-x="1318" 
d="M74 0h-170l770 1348h684l-26 -142h-428l-54 -438h406l-26 -140h-392l-56 -486h436l-26 -142h-580l50 454h-332zM402 590h272l82 636h-8q-109 -212 -130 -250z" />
    <glyph glyph-name="Oslash" unicode="&#xd8;" horiz-adv-x="1108" 
d="M96 -80l-78 64l136 184q-76 124 -76 314q0 222 82 440.5t223.5 331t312.5 112.5q168 0 262 -104l122 162l88 -58l-140 -190q68 -117 68 -300q0 -225 -82 -450t-219.5 -334.5t-308.5 -109.5q-167 0 -262 104zM274 328l588 802q-60 98 -190 98q-174 0 -300 -221t-126 -483
q0 -96 20 -196h8zM902 1008l-584 -792q62 -96 192 -96q172 0 295 225.5t123 483.5q0 91 -18 179h-8z" />
    <glyph glyph-name="infinity" unicode="&#x221e;" horiz-adv-x="1456" 
d="M1082 234q-55 0 -104 20t-92.5 51t-82.5 68.5l-75 72.5l-76.5 -74.5t-84.5 -68t-96 -50t-113 -19.5q-63 0 -116 22t-91 61t-59.5 93t-21.5 118q0 59 23 112.5t63.5 94t96 64t121.5 23.5q56 0 104.5 -20t92 -51t82.5 -68.5l75 -72.5l77 74.5t84 68t97 50t114 19.5
t114.5 -21.5t90.5 -60.5t59.5 -93t21.5 -119q0 -59 -22.5 -112.5t-63 -94t-96 -64t-120.5 -23.5h-2zM1086 350q38 0 69.5 14.5t55 38.5t36.5 56.5t13 68.5q0 38 -13 70.5t-35.5 56.5t-53.5 37.5t-68 13.5q-43 0 -82.5 -17t-74.5 -43t-66 -57.5l-59 -60.5l59.5 -58t63.5 -58
t71 -44.5t82 -17.5h2zM368 350q43 0 81.5 17t73.5 43t66 57.5l59 60.5l-59.5 58t-63.5 58t-71 44.5t-82 17.5q-37 0 -69.5 -14.5t-56 -38.5t-37 -56.5t-13.5 -68.5q0 -38 13 -70.5t35.5 -56.5t53.5 -37.5t68 -13.5h2z" />
    <glyph glyph-name="plusminus" unicode="&#xb1;" horiz-adv-x="1192" 
d="M546 1138h122v-386h446v-118h-446v-398h-122v398h-446v118h446v386zM100 118h1014v-118h-1014v118z" />
    <glyph glyph-name="lessequal" unicode="&#x2264;" horiz-adv-x="1192" 
d="M1062 1222v-128l-770 -358l770 -354v-130l-916 422v126zM138 0v118h924v-118h-924z" />
    <glyph glyph-name="greaterequal" unicode="&#x2265;" horiz-adv-x="1192" 
d="M174 1222l916 -422v-126l-916 -422v130l776 354l-776 358v128zM174 0v118h924v-118h-924z" />
    <glyph glyph-name="yen" unicode="&#xa5;" 
d="M414 0h-152l68 362h-268l18 96h268l28 148h-268l20 96h226l-168 598h166q107 -473 124 -588h4q59 115 100 181l254 407h170l-410 -598h226l-20 -96h-272l-28 -148h272l-18 -96h-272z" />
    <glyph glyph-name="mu" unicode="&#xb5;" horiz-adv-x="920" 
d="M886 968l-134 -704q-16 -86 -34 -264h-146l18 158h-6q-117 -174 -264 -174q-102 0 -134 84h-6l-76 -458h-156l260 1358h162q-107 -572 -114.5 -616t-7.5 -96q0 -59 29.5 -96.5t90.5 -37.5q76 0 151.5 80t101.5 223l103 543h162z" />
    <glyph glyph-name="partialdiff" unicode="&#x2202;" horiz-adv-x="928" 
d="M236 1364q24 17 54.5 33t67.5 29.5t79.5 21.5t90.5 8q83 0 154.5 -32.5t124 -98.5t83 -164.5t30.5 -230.5q0 -93 -15 -200t-46 -212.5t-78.5 -202.5t-111.5 -171.5t-145.5 -119t-181.5 -44.5q-71 0 -126 25t-92.5 70t-56.5 107t-19 136q0 68 15 136t43.5 130.5t69 116.5
t92.5 94t114.5 62.5t133.5 22.5q43 0 79.5 -12t65 -31.5t49.5 -45t32 -51.5h2q9 42 14.5 95.5t5.5 104.5q-1 96 -22 167t-57 117.5t-83.5 69t-101.5 22.5q-38 0 -72.5 -6.5t-64 -16t-52.5 -21t-39 -22.5zM370 112q59 0 112 38.5t96.5 104.5t76.5 152.5t51 182.5
q-7 32 -25 60.5t-43.5 50t-57 34.5t-66.5 13q-71 0 -127 -40.5t-94.5 -103.5t-58.5 -139.5t-20 -148.5q0 -98 41.5 -151t112.5 -53h2z" />
    <glyph glyph-name="summation" unicode="&#x2211;" horiz-adv-x="928" 
d="M-68 -180l18 108l520 636l-276 624l20 112h752l-24 -144h-560l-2 -8l262 -586l-478 -588l-2 -8h626l-26 -146h-830z" />
    <glyph glyph-name="product" unicode="&#x220f;" horiz-adv-x="1076" 
d="M1014 1156l-262 -1336h-154l262 1336h-396l-262 -1336h-154l262 1336h-130l28 144h962l-28 -144h-128z" />
    <glyph glyph-name="integral" unicode="&#x222b;" horiz-adv-x="530" 
d="M664 1462q-11 3 -27 5.5t-31 2.5q-37 0 -64.5 -19t-48 -50t-34.5 -70.5t-23.5 -81.5t-16 -81.5l-11.5 -71.5q-15 -103 -29 -218l-28.5 -233.5l-30 -238t-32.5 -232.5q-8 -55 -19.5 -111.5t-29 -109t-42.5 -99t-59 -80.5t-79 -54t-103 -20q-30 0 -52.5 5t-37.5 13l30 116
q12 -5 29 -7.5t35 -2.5q34 0 60.5 18t46.5 47.5t34 66.5t23.5 76t15.5 75.5t10 64.5q18 115 33.5 236l30 241.5l28.5 236.5t30 220q12 83 33.5 168.5t60.5 156t100 115t152 44.5q53 0 82 -16z" />
    <glyph glyph-name="ordfeminine" unicode="&#xaa;" horiz-adv-x="648" 
d="M592 530h-112q0 45 6 120l-2 -2q-78 -128 -202 -128q-73 0 -117.5 57.5t-44.5 156.5q0 181 108.5 312.5t285.5 131.5q94 0 168 -30q-79 -442 -84.5 -486.5t-5.5 -131.5zM510 836l40 232q-26 12 -72 12q-93 0 -162.5 -97.5t-69.5 -234.5q0 -124 88 -124q54 0 108 64
t68 148z" />
    <glyph glyph-name="ordmasculine" unicode="&#xba;" horiz-adv-x="650" 
d="M114 770q0 166 94 287t232 121q109 0 171.5 -70t62.5 -180q0 -167 -94 -287.5t-234 -120.5q-106 0 -169 70.5t-63 179.5zM546 928q0 152 -118 152q-75 0 -129.5 -92.5t-54.5 -213.5q0 -74 31 -115t87 -41q76 0 130 93t54 217z" />
    <glyph glyph-name="Omega" unicode="&#x2126;" horiz-adv-x="1134" 
d="M236 142q-28 38 -53 86.5t-43.5 104t-29 116.5t-10.5 123q0 174 48 320t130 252t191.5 165t232.5 59q98 0 175.5 -35t131 -97t81.5 -148t28 -188q0 -133 -31.5 -249.5t-81 -213.5t-109.5 -171.5t-118 -123.5v-8h232l-26 -134h-420l18 110q42 30 85.5 75.5t83.5 102.5
t76 125t62 144t41.5 158.5t15.5 168.5q0 69 -15.5 131.5t-48 110.5t-81.5 76t-117 28q-61 0 -115.5 -26t-101 -73t-84 -111t-63.5 -140t-40 -161t-14 -173q0 -75 10.5 -141t29.5 -121.5t44.5 -99.5t55.5 -74l-20 -110h-420l26 134h244v8z" />
    <glyph glyph-name="ae" unicode="&#xe6;" horiz-adv-x="1256" 
d="M1092 174l20 -118q-116 -74 -280 -74q-99 0 -172 49.5t-102 140.5h-4q-111 -190 -310 -190q-108 0 -173 68.5t-65 169.5q0 168 134 276t414 108q15 69 15 95q0 72 -43 116.5t-122 44.5q-107 0 -208 -62l-32 110q121 78 264 78q216 0 248 -188h4q117 188 318 188
q111 0 175.5 -64t64.5 -156q0 -94 -45 -155t-124.5 -93.5t-159 -40t-227.5 -7.5q-14 -72 -14 -130q0 -116 57 -171t149 -55q113 0 218 60zM706 590q184 -5 280 30t96 130q0 45 -31 75.5t-85 30.5q-86 0 -158 -74.5t-102 -191.5zM512 364l22 122q-200 0 -284 -68.5
t-84 -175.5q0 -59 32.5 -94.5t87.5 -35.5q79 0 141.5 66t84.5 186z" />
    <glyph glyph-name="oslash" unicode="&#xf8;" horiz-adv-x="900" 
d="M76 -72l-62 56l102 134q-62 89 -62 234q0 242 138.5 438t341.5 196q117 0 192 -62l90 112l70 -50l-100 -130q60 -97 60 -226q0 -247 -137 -447.5t-331 -200.5q-131 0 -206 70zM240 264l392 540q-37 56 -118 56q-124 0 -209 -151t-85 -315q0 -79 16 -128zM662 704
l-394 -532q39 -64 124 -64q117 0 202.5 159.5t85.5 330.5q0 45 -12 106h-6z" />
    <glyph glyph-name="questiondown" unicode="&#xbf;" horiz-adv-x="694" 
d="M352 854q0 53 35.5 91.5t86.5 38.5q46 0 75 -32t29 -82q0 -52 -35.5 -91t-84.5 -39q-48 0 -77 32t-29 82zM334 584h154q0 -205 -182 -418q-99 -112 -133.5 -179.5t-34.5 -120.5q0 -62 36.5 -98t103.5 -36q95 0 170 48l26 -126q-112 -62 -240 -62q-127 0 -197.5 71
t-70.5 181q0 78 43 166t171 228q63 71 96.5 139t49.5 161z" />
    <glyph glyph-name="exclamdown" unicode="&#xa1;" horiz-adv-x="444" 
d="M180 854q0 53 35.5 91.5t86.5 38.5q46 0 75 -32t29 -82q0 -52 -35.5 -91t-84.5 -39q-48 0 -77 32t-29 82zM148 -384h-186l210 960h134z" />
    <glyph glyph-name="logicalnot" unicode="&#xac;" horiz-adv-x="1192" 
d="M94 800h1016v-560h-122v442h-894v118z" />
    <glyph glyph-name="radical" unicode="&#x221a;" horiz-adv-x="998" 
d="M482 -202h-120l-124 870l-142 -52l-22 90l272 104l84 -688q6 -38 9 -77.5t3 -66.5h2l22 66.5t28 81.5l572 1528h124z" />
    <glyph glyph-name="florin" unicode="&#x192;" 
d="M216 682l22 124h170q80 329 175 421.5t231 92.5q72 0 122 -30l-44 -122q-36 20 -96 20q-78 0 -131 -75.5t-99 -306.5h208l-20 -124h-214l-105 -440q-36 -148 -82.5 -235t-113.5 -129t-159 -42q-77 0 -136 34l36 120q39 -22 102 -22q75 0 122.5 78.5t81.5 224.5l96 411
h-166z" />
    <glyph glyph-name="approxequal" unicode="&#x2248;" horiz-adv-x="1192" 
d="M1138 744q-23 -28 -56 -54.5t-72 -47.5t-83 -33.5t-91 -12.5q-44 0 -80.5 7.5t-67.5 18t-57.5 23.5t-50.5 23q-22 9 -46.5 21t-52.5 22.5t-60.5 17.5t-70.5 7q-34 0 -68 -10t-65 -26.5t-57 -37t-46 -40.5l-66 86q24 27 57 53t72 47t83 33.5t90 12.5q45 0 81.5 -7.5
t67.5 -18t57.5 -23l51.5 -23.5q23 -9 47 -20.5t51.5 -22t59.5 -18t70 -7.5q35 0 68.5 10.5t64 27t56.5 37.5t45 41zM1148 348q-24 -28 -57 -55t-72 -48t-83 -34t-90 -13q-45 0 -81.5 7.5t-67.5 18.5t-57.5 23.5t-51.5 22.5l-46.5 21.5t-52.5 22t-60.5 17.5t-70.5 7
q-34 0 -67.5 -10t-64 -26t-57.5 -36.5t-47 -41.5l-66 88q24 27 57 53t72 47t83 33.5t90 12.5q45 0 81.5 -7.5t67.5 -18.5t57.5 -23.5t51.5 -22.5l47 -21.5t52 -22t60.5 -17.5t70.5 -7q34 0 67.5 10t64 26.5t57 37t45.5 40.5z" />
    <glyph glyph-name="Delta" unicode="&#x2206;" horiz-adv-x="962" 
d="M-20 0l18 94l584 1216h186l130 -1214l-18 -96h-900zM738 138l-68 642q-4 39 -8 88t-7.5 99.5t-6 97.5t-4.5 81h-6l-29 -73l-34 -83.5l-37 -87l-38 -84.5l-320 -680h558z" />
    <glyph glyph-name="guillemotleft" unicode="&#xab;" horiz-adv-x="768" 
d="M468 864l-280 -364l180 -354h-130l-184 358l274 360h140zM778 864l-280 -364l180 -354h-130l-184 358l274 360h140z" />
    <glyph glyph-name="guillemotright" unicode="&#xbb;" horiz-adv-x="768" 
d="M284 512l-180 352h130l184 -360l-272 -358h-142zM594 512l-180 352h130l184 -360l-272 -358h-142z" />
    <glyph glyph-name="ellipsis" unicode="&#x2026;" horiz-adv-x="2000" 
d="M370 116q0 -56 -35 -95t-87 -39q-48 0 -77 32.5t-29 83.5q0 55 35 94.5t85 39.5q49 0 78.5 -32.5t29.5 -83.5zM1036 116q0 -56 -35 -95t-87 -39q-48 0 -77 32.5t-29 83.5q0 55 35 94.5t85 39.5q49 0 78.5 -32.5t29.5 -83.5zM1702 116q0 -56 -35 -95t-87 -39
q-48 0 -77 32.5t-29 83.5q0 55 35 94.5t85 39.5q49 0 78.5 -32.5t29.5 -83.5z" />
    <glyph glyph-name="space" unicode=" " horiz-adv-x="328" 
 />
    <glyph glyph-name="Agrave" unicode="&#xc0;" horiz-adv-x="998" 
d="M684 412h-380l-186 -412h-166l626 1348h188l112 -1348h-164zM356 540h322q-34 420 -40 644h-4q-95 -243 -112 -280zM384 1682h190l168 -230h-128z" />
    <glyph glyph-name="Atilde" unicode="&#xc3;" horiz-adv-x="998" 
d="M684 412h-380l-186 -412h-166l626 1348h188l112 -1348h-164zM356 540h322q-34 420 -40 644h-4q-95 -243 -112 -280zM533 1464h-92q5 90 42 139t94 49q42 0 110 -36q50 -36 82 -36q48 0 58 78h90q-13 -182 -140 -182q-52 0 -110 36q-54 34 -80 34q-44 0 -54 -82z" />
    <glyph glyph-name="Otilde" unicode="&#xd5;" horiz-adv-x="1114" 
d="M1102 872q0 -212 -79 -434t-218.5 -339t-318.5 -117q-194 0 -299 138t-105 350q0 228 88 454.5t228.5 334t305.5 107.5q194 0 296 -133t102 -361zM250 480q0 -167 64.5 -261.5t189.5 -94.5q111 0 208.5 113t157.5 299.5t60 331.5q0 187 -62.5 271.5t-187.5 84.5
q-113 0 -211.5 -111t-158.5 -295t-60 -338zM599 1464h-92q5 90 42 139t94 49q42 0 110 -36q50 -36 82 -36q48 0 58 78h90q-13 -182 -140 -182q-52 0 -110 36q-54 34 -80 34q-44 0 -54 -82z" />
    <glyph glyph-name="OE" unicode="&#x152;" horiz-adv-x="1470" 
d="M1342 142l-24 -142h-552q-45 0 -112 -10q-48 -6 -110 -6q-222 0 -342 142.5t-120 383.5q0 341 193.5 597.5t512.5 256.5q48 0 124 -8q61 -8 116 -8h516l-26 -142h-446l-80 -432h416l-24 -140h-420l-92 -492h470zM710 142l200 1064q-48 16 -140 16q-224 0 -370 -212
t-146 -484q0 -196 83.5 -298t246.5 -102q63 0 126 16z" />
    <glyph glyph-name="oe" unicode="&#x153;" horiz-adv-x="1382" 
d="M1216 174l22 -122q-117 -70 -270 -70q-220 0 -280 214h-4q-54 -103 -139 -158.5t-185 -55.5q-140 0 -223 101t-83 265q0 250 135 444t335 194q100 0 168.5 -58t91.5 -162h2q57 104 148.5 162t189.5 58q111 0 174.5 -65t63.5 -161q0 -323 -556 -330q-5 -30 -5 -65
q0 -125 54.5 -188t148.5 -63q104 0 212 60zM220 358q0 -114 43.5 -180t122.5 -66q124 0 206 171t82 349q0 224 -160 224q-122 0 -208 -157.5t-86 -340.5zM828 556q382 7 382 186q0 53 -30.5 83.5t-85.5 30.5q-84 0 -155.5 -80t-110.5 -220z" />
    <glyph glyph-name="endash" unicode="&#x2013;" horiz-adv-x="1000" 
d="M78 574h880l-22 -120h-882z" />
    <glyph glyph-name="emdash" unicode="&#x2014;" horiz-adv-x="2000" 
d="M78 574h1880l-22 -120h-1882z" />
    <glyph glyph-name="quotedblleft" unicode="&#x201c;" horiz-adv-x="644" 
d="M298 912l-176 -20q133 301 258 470l110 14q-119 -236 -192 -464zM584 912l-174 -20q133 301 258 470l110 14q-124 -246 -194 -464z" />
    <glyph glyph-name="quotedblright" unicode="&#x201d;" horiz-adv-x="644" 
d="M312 1356l174 20q-133 -301 -258 -470l-110 -14q124 246 194 464zM598 1356l176 20q-133 -301 -258 -470l-110 -14q127 251 192 464z" />
    <glyph glyph-name="quoteleft" unicode="&#x2018;" horiz-adv-x="360" 
d="M300 912l-176 -20q133 301 258 470l110 14q-119 -236 -192 -464z" />
    <glyph glyph-name="quoteright" unicode="&#x2019;" horiz-adv-x="360" 
d="M312 1356l176 20q-133 -301 -258 -470l-110 -14q127 251 192 464z" />
    <glyph glyph-name="divide" unicode="&#xf7;" horiz-adv-x="1192" 
d="M708 884q0 -46 -27 -75t-73 -29q-44 0 -72 29t-28 75t28 75t72 29q45 0 72.5 -29t27.5 -75zM1114 474h-1016v118h1016v-118zM706 182q0 -46 -27.5 -75t-72.5 -29q-44 0 -72 29t-28 75t28 75t72 29q45 0 72.5 -29t27.5 -75z" />
    <glyph glyph-name="lozenge" unicode="&#x25ca;" horiz-adv-x="942" 
d="M412 0l-376 722l376 706h120l376 -706l-376 -722h-120zM180 722l292 -574l292 574l-292 558z" />
    <glyph glyph-name="ydieresis" unicode="&#xff;" horiz-adv-x="786" 
d="M98 968h168q81 -682 88 -772h4q33 96 107 272l207 500h170l-344 -758q-147 -320 -278 -461t-266 -181l-52 138q86 37 141.5 77.5t111.5 109t78 122.5q5 11 5 45zM438 1226q0 -44 -28.5 -74t-71.5 -30q-40 0 -66 26.5t-26 67.5q0 43 29.5 73.5t70.5 30.5q42 0 67 -26.5
t25 -67.5zM770 1226q0 -44 -28.5 -74t-71.5 -30q-40 0 -66 26.5t-26 67.5q0 43 29.5 73.5t70.5 30.5q42 0 67 -26.5t25 -67.5z" />
    <glyph glyph-name="Ydieresis" unicode="&#x178;" horiz-adv-x="910" 
d="M428 0h-162l106 562l-202 786h174q99 -431 109.5 -485t26.5 -163h4q68 136 142 258l238 390h184l-514 -784zM564 1576q0 -42 -28 -72t-70 -30q-38 0 -64 26.5t-26 65.5q0 42 29 72t69 30t65 -27t25 -65zM900 1576q0 -42 -28.5 -72t-69.5 -30q-38 0 -64 26.5t-26 65.5
q0 42 29 72t69 30t65 -27t25 -65z" />
    <glyph glyph-name="fraction" unicode="&#x2044;" horiz-adv-x="742" 
d="M-12 -18h-118l942 1338h118z" />
    <glyph glyph-name="currency" unicode="&#xa4;" 
d="M270 984q80 80 204 80q128 0 206 -78l134 146l86 -90l-150 -144q58 -99 58 -234q0 -139 -58 -240l148 -146l-86 -90l-134 148q-81 -80 -206 -80t-204 78l-128 -146l-88 90l146 142q-62 102 -62 236q0 139 64 242l-150 142l88 92zM678 662q0 125 -55.5 204.5t-148.5 79.5
q-91 0 -147.5 -79t-56.5 -207q0 -135 60.5 -210.5t143.5 -75.5q89 0 146.5 77.5t57.5 210.5z" />
    <glyph glyph-name="guilsinglleft" unicode="&#x2039;" horiz-adv-x="458" 
d="M468 864l-280 -364l180 -354h-130l-184 358l274 360h140z" />
    <glyph glyph-name="guilsinglright" unicode="&#x203a;" horiz-adv-x="458" 
d="M284 512l-180 352h130l184 -360l-272 -358h-142z" />
    <glyph glyph-name="daggerdbl" unicode="&#x2021;" horiz-adv-x="870" 
d="M524 1348h150l-90 -392l298 12l-28 -142l-292 16l-78 -422l296 16l-26 -142l-292 12l-66 -406h-150l90 406l-296 -12l28 142l290 -16l80 422l-296 -16l26 142l292 -12z" />
    <glyph glyph-name="uni2219" unicode="&#x2219;" horiz-adv-x="408" 
d="M324 560q0 -56 -35 -95t-87 -39q-48 0 -77 32.5t-29 83.5q0 55 35 94.5t85 39.5q49 0 78.5 -32.5t29.5 -83.5z" />
    <glyph glyph-name="quotesinglbase" unicode="&#x201a;" horiz-adv-x="360" 
d="M2 -226l-114 -14q127 247 194 470l180 20q-129 -295 -260 -476z" />
    <glyph glyph-name="quotedblbase" unicode="&#x201e;" horiz-adv-x="644" 
d="M-2 -226l-114 -14q127 247 194 470l182 20q-135 -301 -262 -476zM294 -226l-116 -14q124 242 196 470l180 20q-124 -282 -260 -476z" />
    <glyph glyph-name="perthousand" unicode="&#x2030;" horiz-adv-x="2076" 
d="M324 -26h-114l950 1352h114zM130 804q0 201 100 358.5t252 157.5q104 0 161 -73.5t57 -192.5q0 -212 -99.5 -369t-246.5 -157q-104 0 -164 75t-60 201zM572 1050q0 168 -106 168q-87 0 -145.5 -136.5t-58.5 -277.5q0 -174 108 -174q86 0 144 140.5t58 279.5zM794 264
q0 201 100 358.5t252 157.5q104 0 161 -73.5t57 -192.5q0 -212 -99.5 -369t-246.5 -157q-104 0 -164 75t-60 201zM1236 510q0 168 -106 168q-87 0 -145.5 -136.5t-58.5 -277.5q0 -174 108 -174q86 0 144 140.5t58 279.5zM1444 264q0 201 100 358.5t252 157.5
q104 0 161 -73.5t57 -192.5q0 -212 -99.5 -369t-246.5 -157q-104 0 -164 75t-60 201zM1886 510q0 168 -106 168q-87 0 -145.5 -136.5t-58.5 -277.5q0 -174 108 -174q86 0 144 140.5t58 279.5zM1428 0z" />
    <glyph glyph-name="Acircumflex" unicode="&#xc2;" horiz-adv-x="998" 
d="M684 412h-380l-186 -412h-166l626 1348h188l112 -1348h-164zM356 540h322q-34 420 -40 644h-4q-95 -243 -112 -280zM650 1682h114l146 -232h-128l-84 146h-4l-128 -146h-140z" />
    <glyph glyph-name="Ecircumflex" unicode="&#xca;" horiz-adv-x="824" 
d="M760 774l-26 -140h-410l-92 -492h462l-26 -142h-626l256 1348h598l-28 -142h-434l-84 -432h410zM597 1682h114l146 -232h-128l-84 146h-4l-128 -146h-140z" />
    <glyph glyph-name="Aacute" unicode="&#xc1;" horiz-adv-x="998" 
d="M684 412h-380l-186 -412h-166l626 1348h188l112 -1348h-164zM356 540h322q-34 420 -40 644h-4q-95 -243 -112 -280zM794 1682h200l-274 -232h-134z" />
    <glyph glyph-name="Edieresis" unicode="&#xcb;" horiz-adv-x="824" 
d="M760 774l-26 -140h-410l-92 -492h462l-26 -142h-626l256 1348h598l-28 -142h-434l-84 -432h410zM554 1576q0 -42 -28 -72t-70 -30q-38 0 -64 26.5t-26 65.5q0 42 29 72t69 30t65 -27t25 -65zM890 1576q0 -42 -28.5 -72t-69.5 -30q-38 0 -64 26.5t-26 65.5q0 42 29 72
t69 30t65 -27t25 -65z" />
    <glyph glyph-name="Egrave" unicode="&#xc8;" horiz-adv-x="824" 
d="M760 774l-26 -140h-410l-92 -492h462l-26 -142h-626l256 1348h598l-28 -142h-434l-84 -432h410zM356 1682h190l168 -230h-128z" />
    <glyph glyph-name="Iacute" unicode="&#xcd;" horiz-adv-x="434" 
d="M297 1348h162l-256 -1348h-162zM511 1682h200l-274 -232h-134z" />
    <glyph glyph-name="Icircumflex" unicode="&#xce;" horiz-adv-x="434" 
d="M298 1348h162l-256 -1348h-162zM370 1682h114l146 -232h-128l-84 146h-4l-128 -146h-140z" />
    <glyph glyph-name="Idieresis" unicode="&#xcf;" horiz-adv-x="434" 
d="M298 1348h162l-256 -1348h-162zM338 1576q0 -42 -28 -72t-70 -30q-38 0 -64 26.5t-26 65.5q0 42 29 72t69 30t65 -27t25 -65zM674 1576q0 -42 -28.5 -72t-69.5 -30q-38 0 -64 26.5t-26 65.5q0 42 29 72t69 30t65 -27t25 -65z" />
    <glyph glyph-name="Igrave" unicode="&#xcc;" horiz-adv-x="434" 
d="M298 1348h162l-256 -1348h-162zM128 1682h190l168 -230h-128z" />
    <glyph glyph-name="Oacute" unicode="&#xd3;" horiz-adv-x="1114" 
d="M1102 872q0 -212 -79 -434t-218.5 -339t-318.5 -117q-194 0 -299 138t-105 350q0 228 88 454.5t228.5 334t305.5 107.5q194 0 296 -133t102 -361zM250 480q0 -167 64.5 -261.5t189.5 -94.5q111 0 208.5 113t157.5 299.5t60 331.5q0 187 -62.5 271.5t-187.5 84.5
q-113 0 -211.5 -111t-158.5 -295t-60 -338zM861 1682h200l-274 -232h-134z" />
    <glyph glyph-name="Ocircumflex" unicode="&#xd4;" horiz-adv-x="1114" 
d="M1102 872q0 -212 -79 -434t-218.5 -339t-318.5 -117q-194 0 -299 138t-105 350q0 228 88 454.5t228.5 334t305.5 107.5q194 0 296 -133t102 -361zM250 480q0 -167 64.5 -261.5t189.5 -94.5q111 0 208.5 113t157.5 299.5t60 331.5q0 187 -62.5 271.5t-187.5 84.5
q-113 0 -211.5 -111t-158.5 -295t-60 -338zM711 1682h114l146 -232h-128l-84 146h-4l-128 -146h-140z" />
    <glyph glyph-name="apple" unicode="&#xf000;" horiz-adv-x="328" 
 />
    <glyph glyph-name="Ograve" unicode="&#xd2;" horiz-adv-x="1114" 
d="M1102 872q0 -212 -79 -434t-218.5 -339t-318.5 -117q-194 0 -299 138t-105 350q0 228 88 454.5t228.5 334t305.5 107.5q194 0 296 -133t102 -361zM250 480q0 -167 64.5 -261.5t189.5 -94.5q111 0 208.5 113t157.5 299.5t60 331.5q0 187 -62.5 271.5t-187.5 84.5
q-113 0 -211.5 -111t-158.5 -295t-60 -338zM454 1682h190l168 -230h-128z" />
    <glyph glyph-name="Uacute" unicode="&#xda;" horiz-adv-x="1072" 
d="M294 1348h164l-162 -850q-16 -90 -16 -162q0 -100 52.5 -156t143.5 -56q117 0 190 89t110 281l164 854h162l-160 -850q-49 -263 -168 -389.5t-320 -126.5q-157 0 -246.5 89.5t-89.5 254.5q0 91 18 186zM830 1682h200l-274 -232h-134z" />
    <glyph glyph-name="Ucircumflex" unicode="&#xdb;" horiz-adv-x="1072" 
d="M294 1348h164l-162 -850q-16 -90 -16 -162q0 -100 52.5 -156t143.5 -56q117 0 190 89t110 281l164 854h162l-160 -850q-49 -263 -168 -389.5t-320 -126.5q-157 0 -246.5 89.5t-89.5 254.5q0 91 18 186zM702 1682h114l146 -232h-128l-84 146h-4l-128 -146h-140z" />
    <glyph glyph-name="Ugrave" unicode="&#xd9;" horiz-adv-x="1072" 
d="M294 1348h164l-162 -850q-16 -90 -16 -162q0 -100 52.5 -156t143.5 -56q117 0 190 89t110 281l164 854h162l-160 -850q-49 -263 -168 -389.5t-320 -126.5q-157 0 -246.5 89.5t-89.5 254.5q0 91 18 186zM448 1682h190l168 -230h-128z" />
    <glyph glyph-name="dotlessi" unicode="&#x131;" horiz-adv-x="412" 
d="M194 0h-162l186 968h162z" />
    <glyph glyph-name="circumflex" unicode="&#x2c6;" horiz-adv-x="716" 
d="M468 1362h104l126 -280h-116l-74 178h-4l-128 -178h-124z" />
    <glyph glyph-name="tilde" unicode="&#x2dc;" horiz-adv-x="716" 
d="M354 1122h-90q6 88 43 138t95 50q42 0 110 -40q57 -34 80 -34q28 0 39.5 19.5t16.5 58.5h88q-13 -180 -140 -180q-50 0 -110 36q-56 36 -78 36q-42 0 -54 -84z" />
    <glyph glyph-name="macron" unicode="&#xaf;" horiz-adv-x="716" 
d="M300 1262h414l-20 -102h-414z" />
    <glyph glyph-name="breve" unicode="&#x2d8;" horiz-adv-x="716" 
d="M306 1340h92q0 -48 8.5 -72t34 -41t63.5 -17q114 0 148 130h98q-18 -107 -86.5 -167.5t-165.5 -60.5q-95 0 -145.5 48t-50.5 132q0 23 4 48z" />
    <glyph glyph-name="dotaccent" unicode="&#x2d9;" horiz-adv-x="716" 
d="M596 1226q0 -44 -28.5 -74t-71.5 -30q-40 0 -66 26.5t-26 67.5q0 43 29.5 73.5t70.5 30.5q42 0 67 -26.5t25 -67.5z" />
    <glyph glyph-name="ring" unicode="&#x2da;" horiz-adv-x="722" 
d="M312 1236q0 84 57.5 138t144.5 54q85 0 135.5 -47t50.5 -127q0 -81 -59 -133.5t-143 -52.5q-81 0 -133.5 47.5t-52.5 120.5zM604 1254q0 44 -25.5 72t-68.5 28q-44 0 -73 -32.5t-29 -79.5q0 -43 26 -71.5t68 -28.5q44 0 73 32t29 80z" />
    <glyph glyph-name="cedilla" unicode="&#xb8;" horiz-adv-x="716" 
d="M244 8h98l-76 -108q108 -33 108 -132q0 -78 -61 -123t-143 -45t-132 36l36 82q50 -28 102 -28q38 0 62 19t24 51q0 69 -130 82z" />
    <glyph glyph-name="hungarumlaut" unicode="&#x2dd;" horiz-adv-x="716" 
d="M442 1362h158l-240 -272h-100zM710 1362h158l-240 -272h-100z" />
    <glyph glyph-name="ogonek" unicode="&#x2db;" horiz-adv-x="716" 
d="M286 0h102q-95 -51 -153.5 -114t-58.5 -118q0 -34 19 -55t49 -21q45 0 86 18l12 -76q-59 -32 -136 -32q-65 0 -104.5 38.5t-39.5 99.5q0 55 38 112t105 102.5t81 45.5z" />
    <glyph glyph-name="caron" unicode="&#x2c7;" horiz-adv-x="716" 
d="M532 1082h-110l-126 280h116l78 -180h4l130 180h126z" />
    <glyph glyph-name="Lslash" unicode="&#x141;" horiz-adv-x="784" 
d="M672 0h-614l98 522l-174 -126l28 144l172 124l130 684h162l-106 -560l266 194l-28 -144l-264 -194l-96 -502h454z" />
    <glyph glyph-name="lslash" unicode="&#x142;" horiz-adv-x="436" 
d="M208 0h-162l108 574l-148 -114l26 140l150 118l130 684h162l-106 -556l156 122l-28 -144l-156 -120z" />
    <glyph glyph-name="Scaron" unicode="&#x160;" horiz-adv-x="812" 
d="M6 58l54 138q106 -68 234 -68q116 0 190 70t74 180q0 73 -39 133t-129 125q-216 152 -216 338q0 169 120 279.5t302 110.5q141 0 228 -56l-52 -138q-88 50 -192 50q-106 0 -173 -63.5t-67 -154.5q0 -69 38.5 -125.5t137.5 -124.5q210 -145 210 -348q0 -185 -121.5 -302.5
t-326.5 -117.5q-171 0 -272 74zM652 1450h-120l-140 230h128l80 -146h6l128 146h138z" />
    <glyph glyph-name="scaron" unicode="&#x161;" horiz-adv-x="660" 
d="M-8 44l48 120q91 -52 180 -52q75 0 121.5 44.5t46.5 111.5q0 55 -26 96t-92 84q-150 102 -150 242q0 128 92.5 212t239.5 84q109 0 178 -42l-44 -122q-66 36 -140 36q-73 0 -118.5 -40.5t-45.5 -103.5q0 -49 27.5 -84t84.5 -74q160 -108 160 -254q0 -151 -97.5 -234.5
t-250.5 -83.5q-126 0 -214 60zM491 1082h-110l-126 280h116l78 -180h4l130 180h126z" />
    <glyph glyph-name="Zcaron" unicode="&#x17d;" horiz-adv-x="876" 
d="M-50 0l20 102l778 1100v4h-520l28 142h726l-22 -112l-772 -1090v-4h570l-28 -142h-780zM692 1451h-120l-140 230h128l80 -146h6l128 146h138z" />
    <glyph glyph-name="zcaron" unicode="&#x17e;" horiz-adv-x="714" 
d="M-56 0l13 82q3 22 83 124l337 427l65 79l52 60q51 56 52 60h-412l28 136h598l-20 -110l-319 -406l-150 -187q-49 -58 -111 -125v-4h450l-28 -136h-638zM538 1082h-110l-126 280h116l78 -180h4l130 180h126z" />
    <glyph glyph-name="brokenbar" unicode="&#xa6;" horiz-adv-x="404" 
d="M174 1348h124v-700h-124v700zM174 348h124v-700h-124v700z" />
    <glyph glyph-name="Eth" unicode="&#xd0;" horiz-adv-x="1104" 
d="M26 638l28 132h150l104 562q135 24 276 24q247 0 376.5 -128.5t129.5 -365.5q0 -228 -92 -442.5t-260.5 -320t-415.5 -105.5q-146 0 -264 20l120 624h-152zM632 770l-26 -132h-266l-96 -498q51 -8 128 -8q159 0 286 93t193.5 268.5t66.5 366.5q0 362 -342 362
q-82 0 -128 -10l-84 -442h268z" />
    <glyph glyph-name="eth" unicode="&#xf0;" horiz-adv-x="894" 
d="M294 1008l-34 80l228 110q-53 67 -146 136l88 90q102 -65 194 -164l222 108l38 -80l-202 -96q162 -220 162 -504q0 -283 -136 -494.5t-338 -211.5q-152 0 -234 102.5t-82 263.5q0 243 135 431.5t329 188.5q90 0 142 -56l4 4q-36 117 -118 214zM218 346q0 -103 43 -168.5
t119 -65.5q123 0 207 162t84 388q0 184 -155 184q-124 0 -211 -159t-87 -341z" />
    <glyph glyph-name="Yacute" unicode="&#xdd;" horiz-adv-x="910" 
d="M428 0h-162l106 562l-202 786h174q99 -431 109.5 -485t26.5 -163h4q68 136 142 258l238 390h184l-514 -784zM742 1682h200l-274 -232h-134z" />
    <glyph glyph-name="yacute" unicode="&#xfd;" horiz-adv-x="786" 
d="M98 968h168q81 -682 88 -772h4q33 96 107 272l207 500h170l-344 -758q-147 -320 -278 -461t-266 -181l-52 138q86 37 141.5 77.5t111.5 109t78 122.5q5 11 5 45zM596 1362h180l-246 -280h-118z" />
    <glyph glyph-name="Thorn" unicode="&#xde;" horiz-adv-x="904" 
d="M44 0l256 1348h160l-52 -262q60 10 124 10q167 0 260.5 -87t93.5 -233q0 -214 -145.5 -341t-360.5 -127q-53 0 -116 8l-62 -316h-158zM384 950l-94 -498q43 -8 102 -8q142 0 236 90.5t94 221.5q0 101 -58.5 153.5t-167.5 52.5q-62 0 -112 -12z" />
    <glyph glyph-name="thorn" unicode="&#xfe;" horiz-adv-x="916" 
d="M194 18h-6l-76 -408h-160l326 1726h162l-104 -528h4q120 178 284 178q114 0 176 -84t62 -230q0 -269 -149.5 -479.5t-356.5 -210.5q-28 0 -58 4.5t-55 13.5zM274 468l-60 -316q54 -42 138 -42q142 0 242 180.5t100 363.5q0 91 -34.5 142.5t-99.5 51.5q-88 0 -171 -106.5
t-115 -273.5z" />
    <glyph glyph-name="minus" unicode="&#x2212;" horiz-adv-x="1192" 
d="M100 594h1018v-118h-1018v118z" />
    <glyph glyph-name="multiply" unicode="&#xd7;" horiz-adv-x="1192" 
d="M116 966l82 86l424 -444l424 444l84 -86l-426 -440l426 -438l-86 -88l-424 444l-422 -444l-80 90l422 436z" />
    <glyph glyph-name="one.superior" unicode="&#xb9;" horiz-adv-x="576" 
d="M396 530h-130l126 658h-4l-150 -72l-10 102l204 92h114z" />
    <glyph glyph-name="two.superior" unicode="&#xb2;" horiz-adv-x="606" 
d="M568 530h-486l16 80q295 253 355.5 338t60.5 154q0 108 -114 108q-69 0 -148 -52l-26 92q100 70 214 70q102 0 159 -54t57 -142q0 -55 -25 -111.5t-75.5 -116.5t-137.5 -137l-130 -115v-4h302z" />
    <glyph glyph-name="three.superior" unicode="&#xb3;" horiz-adv-x="596" 
d="M256 1168l-18 90q86 62 196 62q93 0 147.5 -47.5t54.5 -122.5q0 -133 -166 -194v-4q61 -20 95.5 -67t34.5 -108q0 -112 -86 -184.5t-226 -72.5q-119 0 -194 50l40 96q73 -44 158 -44q77 0 123.5 42.5t46.5 109.5q0 62 -45.5 96t-124.5 34h-30l18 88h28q75 0 132.5 39.5
t57.5 98.5q0 88 -102 88q-73 0 -140 -50z" />
    <glyph glyph-name="periodcentered" unicode="&#xb7;" horiz-adv-x="408" 
d="M324 560q0 -56 -35 -95t-87 -39q-48 0 -77 32.5t-29 83.5q0 55 35 94.5t85 39.5q49 0 78.5 -32.5t29.5 -83.5z" />
    <glyph glyph-name="onehalf" unicode="&#xbd;" horiz-adv-x="1382" 
d="M357 530h-130l126 658h-4l-150 -72l-10 102l204 92h114zM236 -18h-118l942 1338h118zM1212 3h-486l16 80q295 253 355.5 338t60.5 154q0 108 -114 108q-69 0 -148 -52l-26 92q100 70 214 70q102 0 159 -54t57 -142q0 -55 -25 -111.5t-75.5 -116.5t-137.5 -137l-130 -115
v-4h302z" />
    <glyph glyph-name="onequarter" unicode="&#xbc;" horiz-adv-x="1382" 
d="M369 530h-130l126 658h-4l-150 -72l-10 102l204 92h114zM276 -18h-118l942 1338h118zM1124 3h-126l40 208h-340l14 80l420 500h142l-92 -482h104l-18 -98h-104zM1056 309q60 311 74 350h-4q-35 -55 -274 -346v-4h204z" />
    <glyph glyph-name="threequarters" unicode="&#xbe;" horiz-adv-x="1382" 
d="M241 1172l-18 90q86 62 196 62q93 0 147.5 -47.5t54.5 -122.5q0 -133 -166 -194v-4q61 -20 95.5 -67t34.5 -108q0 -112 -86 -184.5t-226 -72.5q-119 0 -194 50l40 96q73 -44 158 -44q77 0 123.5 42.5t46.5 109.5q0 62 -45.5 96t-124.5 34h-30l18 88h28q75 0 132.5 39.5
t57.5 98.5q0 88 -102 88q-73 0 -140 -50zM332 -18h-118l942 1338h118zM1140 3h-126l40 208h-340l14 80l420 500h142l-92 -482h104l-18 -98h-104zM1072 309q60 311 74 350h-4q-35 -55 -274 -346v-4h204z" />
    <glyph glyph-name="hyphen" unicode="-" horiz-adv-x="586" 
d="M84 596h458l-24 -128h-458z" />
    <glyph glyph-name="uni02C9" unicode="&#x2c9;" horiz-adv-x="1000" 
d="M226 1598h1000l-20 -100h-1000z" />
    <glyph glyph-name="four.superior" unicode="&#xf003;" horiz-adv-x="576" 
d="M476 530h-126l40 208h-340l14 80l420 500h142l-92 -482h104l-18 -98h-104zM408 836q60 311 74 350h-4q-35 -55 -274 -346v-4h204z" />
    <glyph glyph-name="pi.1" unicode="&#xf006;" horiz-adv-x="930" 
d="M824 836l-104 -556q-10 -58 -16.5 -102t-9.5 -77.5t-2.5 -58t2.5 -42.5h-154q-9 24 -6.5 91.5t24.5 184.5l106 560h-244q-12 -48 -22 -97t-22 -99q-23 -98 -51 -195t-58 -182t-61.5 -153.5t-63.5 -109.5h-158q33 49 64.5 117.5t61 151t56.5 175.5t50 190
q14 51 24.5 101.5l21.5 100.5q-62 0 -102 -5.5t-66 -14.5l-6 100q14 12 34.5 21.5t50.5 16.5t71.5 10.5t97.5 3.5h628l-30 -132h-116z" />
    <glyph glyph-name="f_i.1" unicode="&#xfb01;" horiz-adv-x="910" 
d="M220 0h-160l160 842h-126l24 126h126q32 226 143 339t301 113q128 0 204 -48l-48 -126q-78 38 -176 38q-104 0 -171.5 -69.5t-92.5 -246.5h472l-184 -968h-162l160 842h-310z" />
    <glyph glyph-name="f_l.1" unicode="&#xfb02;" horiz-adv-x="910" 
d="M220 0h-162l160 842h-126l24 126h126q31 226 146.5 339t315.5 113q144 0 246 -56l-258 -1364h-162l240 1266q-40 22 -110 22q-92 0 -157.5 -63t-98.5 -257h184l-24 -126h-184z" />
    <glyph glyph-name="Gbreve" unicode="&#x11e;" horiz-adv-x="1058" 
d="M1000 706l-126 -660q-151 -58 -304 -58q-233 0 -357.5 142t-124.5 378q0 229 96.5 433t265.5 311.5t376 107.5q152 0 244 -46l-52 -140q-87 40 -210 40q-163 0 -288.5 -95.5t-191.5 -262.5t-66 -336q0 -190 83.5 -290t244.5 -100q88 0 148 26l78 416h-218l26 134h376z
M580 1660h98q0 -108 114 -108q113 0 144 108h102q-16 -94 -83.5 -148t-170.5 -54q-99 0 -153 44.5t-54 120.5q0 18 3 37z" />
    <glyph glyph-name="gbreve" unicode="&#x11f;" horiz-adv-x="910" 
d="M2 -352l44 128q90 -52 208 -52q80 0 138 35t96.5 104.5t59.5 171.5l30 143h-4q-111 -182 -280 -182q-110 0 -176 85t-66 223q0 265 157 473.5t401 208.5q138 0 262 -58l-152 -818q-59 -311 -176.5 -414.5t-299.5 -103.5q-149 0 -242 56zM622 460l72 370q-45 24 -120 24
q-146 0 -250 -162t-104 -348q0 -216 138 -216q84 0 161.5 101t102.5 231zM400 1340h92q0 -48 8.5 -72t34 -41t63.5 -17q114 0 148 130h98q-18 -107 -86.5 -167.5t-165.5 -60.5q-95 0 -145.5 48t-50.5 132q0 23 4 48z" />
    <glyph glyph-name="Scedilla" unicode="&#x15e;" horiz-adv-x="812" 
d="M6 58l54 138q106 -68 234 -68q116 0 190 70t74 180q0 73 -39 133t-129 125q-216 152 -216 338q0 169 120 279.5t302 110.5q141 0 228 -56l-52 -138q-88 50 -192 50q-106 0 -173 -63.5t-67 -154.5q0 -69 38.5 -125.5t137.5 -124.5q210 -145 210 -348q0 -150 -84 -260
t-236 -146l-72 -98q108 -30 108 -132q0 -79 -61 -123.5t-143 -44.5q-81 0 -130 36l34 84q48 -30 100 -30q37 0 61.5 18.5t24.5 49.5q0 71 -128 84l98 142q-192 0 -292 74z" />
    <glyph glyph-name="scedilla" unicode="&#x15f;" horiz-adv-x="660" 
d="M-8 44l48 120q91 -52 180 -52q75 0 121.5 44.5t46.5 111.5q0 55 -26 96t-92 84q-150 102 -150 242q0 128 92.5 212t239.5 84q109 0 178 -42l-44 -122q-66 36 -140 36q-73 0 -118.5 -40.5t-45.5 -103.5q0 -49 27.5 -84t84.5 -74q160 -108 160 -254q0 -116 -61.5 -196
t-174.5 -108l-70 -98q108 -33 108 -132q0 -75 -59.5 -121.5t-144.5 -46.5q-82 0 -132 36l36 82q50 -28 102 -28q38 0 62 19t24 51q0 69 -130 82l96 142q-130 0 -218 60z" />
    <glyph glyph-name="Cacute" unicode="&#x106;" horiz-adv-x="916" 
d="M786 168l14 -136q-105 -48 -264 -48q-214 0 -333 140t-119 374q0 233 90.5 437t255 316.5t364.5 112.5q146 0 214 -44l-50 -136q-72 36 -186 36q-132 0 -249.5 -81t-191 -251t-73.5 -358q0 -402 316 -402q119 0 212 40zM830 1682h200l-274 -232h-134z" />
    <glyph glyph-name="cacute" unicode="&#x107;" horiz-adv-x="712" 
d="M588 158l8 -130q-96 -44 -220 -44q-152 0 -236 98t-84 262q0 253 154.5 447.5t385.5 194.5q93 0 150 -30l-44 -132q-58 24 -118 24q-152 0 -256 -149.5t-104 -334.5q0 -118 50.5 -181t145.5 -63q80 0 168 38zM666 1362h180l-246 -280h-118z" />
    <glyph glyph-name="Ccaron" unicode="&#x10c;" horiz-adv-x="916" 
d="M786 168l14 -136q-105 -48 -264 -48q-214 0 -333 140t-119 374q0 233 90.5 437t255 316.5t364.5 112.5q146 0 214 -44l-50 -136q-72 36 -186 36q-132 0 -249.5 -81t-191 -251t-73.5 -358q0 -402 316 -402q119 0 212 40zM813 1450h-120l-140 230h128l80 -146h6l128 146
h138z" />
    <glyph glyph-name="ccaron" unicode="&#x10d;" horiz-adv-x="712" 
d="M588 158l8 -130q-96 -44 -220 -44q-152 0 -236 98t-84 262q0 253 154.5 447.5t385.5 194.5q93 0 150 -30l-44 -132q-58 24 -118 24q-152 0 -256 -149.5t-104 -334.5q0 -118 50.5 -181t145.5 -63q80 0 168 38zM610 1082h-110l-126 280h116l78 -180h4l130 180h126z" />
    <glyph glyph-name="Amacron" unicode="&#x100;" horiz-adv-x="998" 
d="M684 412h-380l-186 -412h-166l626 1348h188l112 -1348h-164zM356 540h322q-34 420 -40 644h-4q-95 -243 -112 -280zM495 1604h434l-20 -106h-436z" />
    <glyph glyph-name="amacron" unicode="&#x101;" horiz-adv-x="908" 
d="M728 0h-148q0 62 18 214h-6q-128 -232 -312 -232q-105 0 -167.5 80.5t-62.5 215.5q0 276 166.5 492t433.5 216q115 0 224 -34q-111 -553 -121 -608.5t-17.5 -150.5t-7.5 -193zM628 520l64 326q-36 10 -86 10q-157 0 -273.5 -172.5t-116.5 -367.5q0 -198 124 -198
q86 0 170.5 117.5t117.5 284.5zM436 1262h414l-20 -102h-414z" />
    <glyph glyph-name="Abreve" unicode="&#x102;" horiz-adv-x="998" 
d="M684 412h-380l-186 -412h-166l626 1348h188l112 -1348h-164zM356 540h322q-34 420 -40 644h-4q-95 -243 -112 -280zM490 1660h98q0 -108 114 -108q113 0 144 108h102q-16 -94 -83.5 -148t-170.5 -54q-99 0 -153 44.5t-54 120.5q0 18 3 37z" />
    <glyph glyph-name="abreve" unicode="&#x103;" horiz-adv-x="908" 
d="M728 0h-148q0 62 18 214h-6q-128 -232 -312 -232q-105 0 -167.5 80.5t-62.5 215.5q0 276 166.5 492t433.5 216q115 0 224 -34q-111 -553 -121 -608.5t-17.5 -150.5t-7.5 -193zM628 520l64 326q-36 10 -86 10q-157 0 -273.5 -172.5t-116.5 -367.5q0 -198 124 -198
q86 0 170.5 117.5t117.5 284.5zM438 1340h92q0 -48 8.5 -72t34 -41t63.5 -17q114 0 148 130h98q-18 -107 -86.5 -167.5t-165.5 -60.5q-95 0 -145.5 48t-50.5 132q0 23 4 48z" />
    <glyph glyph-name="Aogonek" unicode="&#x104;" horiz-adv-x="998" 
d="M684 412h-380l-186 -412h-166l626 1348h188l112 -1348q-77 -43 -125.5 -108t-48.5 -126q0 -32 19 -52t51 -20q42 0 86 18l12 -76q-59 -32 -136 -32q-67 0 -105.5 38t-38.5 102q0 73 55.5 147.5t132.5 108.5h-66zM356 540h322q-34 420 -40 644h-4q-95 -243 -112 -280z" />
    <glyph glyph-name="aogonek" unicode="&#x105;" horiz-adv-x="908" 
d="M874 952q-117 -584 -126 -654q-22 -167 -20 -298q-78 -39 -126 -103.5t-48 -126.5q0 -34 19 -55t49 -21q45 0 86 18l12 -76q-59 -32 -136 -32q-65 0 -104.5 38.5t-39.5 99.5q0 79 52.5 153t127.5 105h-40q0 62 18 214h-6q-128 -232 -312 -232q-105 0 -167.5 80.5
t-62.5 215.5q0 276 166.5 492t433.5 216q115 0 224 -34zM628 520l64 326q-36 10 -86 10q-157 0 -273.5 -172.5t-116.5 -367.5q0 -198 124 -198q86 0 170.5 117.5t117.5 284.5z" />
    <glyph glyph-name="Dcaron" unicode="&#x10e;" horiz-adv-x="1090" 
d="M44 12l250 1320q126 24 270 24q254 0 383 -129t129 -365q0 -342 -182 -606t-584 -264q-164 0 -266 20zM434 1210l-204 -1072q51 -8 122 -8q266 0 409 210t143 520q0 362 -342 362q-79 0 -128 -12zM721 1450h-120l-140 230h128l80 -146h6l128 146h138z" />
    <glyph glyph-name="dcaron" unicode="&#x10f;" horiz-adv-x="1052" 
d="M712 0h-144l18 170h-4q-113 -188 -290 -188q-111 0 -176.5 88t-65.5 234q0 269 153.5 475.5t374.5 206.5q77 0 134 -34l86 450h162l-206 -1078q-31 -161 -42 -324zM616 432l68 382q-43 42 -120 42q-140 0 -244 -169t-104 -357q0 -212 142 -212q80 0 156.5 88t101.5 226z
M1082 1060l-98 -8q87 146 154 350l152 14q-103 -223 -208 -356z" />
    <glyph glyph-name="Dcroat" unicode="&#x110;" horiz-adv-x="1104" 
d="M26 638l28 132h150l104 562q135 24 276 24q247 0 376.5 -128.5t129.5 -365.5q0 -228 -92 -442.5t-260.5 -320t-415.5 -105.5q-146 0 -264 20l120 624h-152zM632 770l-26 -132h-266l-96 -498q51 -8 128 -8q159 0 286 93t193.5 268.5t66.5 366.5q0 362 -342 362
q-82 0 -128 -10l-84 -442h268z" />
    <glyph glyph-name="dcroat" unicode="&#x111;" horiz-adv-x="912" 
d="M910 1140l-156 -816q-31 -161 -42 -324h-144l18 170h-4q-113 -188 -290 -188q-111 0 -176.5 88t-65.5 234q0 269 153.5 475.5t374.5 206.5q77 0 134 -34l36 188h-232l22 122h234l26 140h162l-26 -140h92l-22 -122h-94zM616 432l68 382q-43 42 -120 42q-140 0 -244 -169
t-104 -357q0 -212 142 -212q80 0 156.5 88t101.5 226z" />
    <glyph glyph-name="Emacron" unicode="&#x112;" horiz-adv-x="824" 
d="M760 774l-26 -140h-410l-92 -492h462l-26 -142h-626l256 1348h598l-28 -142h-434l-84 -432h410zM407 1604h434l-20 -106h-436z" />
    <glyph glyph-name="emacron" unicode="&#x113;" horiz-adv-x="798" 
d="M632 174l22 -122q-127 -68 -278 -68q-156 0 -239 96.5t-83 269.5q0 237 138 436.5t340 199.5q115 0 180.5 -66.5t65.5 -171.5q0 -324 -560 -324q-3 -23 -3 -56q0 -252 199 -252q109 0 218 58zM238 550q386 -4 386 192q0 53 -30.5 82.5t-85.5 29.5q-85 0 -158.5 -81
t-111.5 -223zM342 1262h414l-20 -102h-414z" />
    <glyph glyph-name="Edotaccent" unicode="&#x116;" horiz-adv-x="824" 
d="M760 774l-26 -140h-410l-92 -492h462l-26 -142h-626l256 1348h598l-28 -142h-434l-84 -432h410zM726 1578q0 -42 -29 -73t-71 -31q-39 0 -65.5 27.5t-26.5 66.5q0 42 30 73t70 31q41 0 66.5 -27.5t25.5 -66.5z" />
    <glyph glyph-name="edotaccent" unicode="&#x117;" horiz-adv-x="798" 
d="M632 174l22 -122q-127 -68 -278 -68q-156 0 -239 96.5t-83 269.5q0 237 138 436.5t340 199.5q115 0 180.5 -66.5t65.5 -171.5q0 -324 -560 -324q-3 -23 -3 -56q0 -252 199 -252q109 0 218 58zM238 550q386 -4 386 192q0 53 -30.5 82.5t-85.5 29.5q-85 0 -158.5 -81
t-111.5 -223zM652 1226q0 -44 -28.5 -74t-71.5 -30q-40 0 -66 26.5t-26 67.5q0 43 29.5 73.5t70.5 30.5q42 0 67 -26.5t25 -67.5z" />
    <glyph glyph-name="Eogonek" unicode="&#x118;" horiz-adv-x="824" 
d="M760 774l-26 -140h-410l-92 -492h462l-26 -142q-96 -49 -155 -113t-59 -121q0 -32 19 -52t51 -20q42 0 86 18l12 -76q-59 -32 -136 -32q-67 0 -105.5 38t-38.5 102q0 68 65.5 142t154.5 114h-520l256 1348h598l-28 -142h-434l-84 -432h410z" />
    <glyph glyph-name="eogonek" unicode="&#x119;" horiz-adv-x="798" 
d="M632 174l22 -122q-54 -29 -113 -45t-141 -91.5t-82 -141.5q0 -34 19 -55t49 -21q45 0 86 18l12 -76q-59 -32 -136 -32q-65 0 -104.5 38.5t-39.5 99.5q0 65 51.5 130t132.5 108q-175 0 -254.5 100.5t-79.5 265.5q0 237 138 436.5t340 199.5q115 0 180.5 -66.5t65.5 -171.5
q0 -324 -560 -324q-3 -23 -3 -56q0 -252 199 -252q109 0 218 58zM238 550q386 -4 386 192q0 53 -30.5 82.5t-85.5 29.5q-85 0 -158.5 -81t-111.5 -223z" />
    <glyph glyph-name="Ecaron" unicode="&#x11a;" horiz-adv-x="824" 
d="M760 774l-26 -140h-410l-92 -492h462l-26 -142h-626l256 1348h598l-28 -142h-434l-84 -432h410zM677 1450h-120l-140 230h128l80 -146h6l128 146h138z" />
    <glyph glyph-name="ecaron" unicode="&#x11b;" horiz-adv-x="798" 
d="M632 174l22 -122q-127 -68 -278 -68q-156 0 -239 96.5t-83 269.5q0 237 138 436.5t340 199.5q115 0 180.5 -66.5t65.5 -171.5q0 -324 -560 -324q-3 -23 -3 -56q0 -252 199 -252q109 0 218 58zM238 550q386 -4 386 192q0 53 -30.5 82.5t-85.5 29.5q-85 0 -158.5 -81
t-111.5 -223zM594 1082h-110l-126 280h116l78 -180h4l130 180h126z" />
    <glyph glyph-name="Gcommaaccent" unicode="&#x122;" horiz-adv-x="1058" 
d="M1000 706l-126 -660q-151 -58 -304 -58q-233 0 -357.5 142t-124.5 378q0 229 96.5 433t265.5 311.5t376 107.5q152 0 244 -46l-52 -140q-87 40 -210 40q-163 0 -288.5 -95.5t-191.5 -262.5t-66 -336q0 -190 83.5 -290t244.5 -100q88 0 148 26l78 416h-218l26 134h376z
M376 -440l-98 -8q87 146 154 350l152 14q-103 -223 -208 -356z" />
    <glyph glyph-name="gcommaaccent" unicode="&#x123;" horiz-adv-x="910" 
d="M2 -352l44 128q90 -52 208 -52q80 0 138 35t96.5 104.5t59.5 171.5l30 143h-4q-111 -182 -280 -182q-110 0 -176 85t-66 223q0 265 157 473.5t401 208.5q138 0 262 -58l-152 -818q-59 -311 -176.5 -414.5t-299.5 -103.5q-149 0 -242 56zM622 460l72 370q-45 24 -120 24
q-146 0 -250 -162t-104 -348q0 -216 138 -216q84 0 161.5 101t102.5 231zM718 1452l98 8q-87 -146 -154 -350l-152 -14q103 223 208 356z" />
    <glyph glyph-name="Imacron" unicode="&#x12a;" horiz-adv-x="434" 
d="M298 1348h162l-256 -1348h-162zM213 1604h434l-20 -106h-436z" />
    <glyph glyph-name="imacron" unicode="&#x12b;" horiz-adv-x="412" 
d="M194 0h-162l186 968h162zM149 1262h414l-20 -102h-414z" />
    <glyph glyph-name="Iogonek" unicode="&#x12e;" horiz-adv-x="434" 
d="M42 0l256 1348h162l-256 -1348q-96 -49 -155 -113t-59 -121q0 -32 19 -52t51 -20q42 0 86 18l12 -76q-59 -32 -136 -32q-67 0 -105.5 38t-38.5 102q0 68 65.5 142t154.5 114h-56z" />
    <glyph glyph-name="iogonek" unicode="&#x12f;" horiz-adv-x="412" 
d="M456 1265q0 -53 -33.5 -88t-82.5 -35q-43 0 -68.5 28t-25.5 73q0 51 33 87t79 36q45 0 71.5 -28t26.5 -73zM32 0l184 968h162l-184 -968q-76 -46 -125 -109.5t-49 -120.5q0 -34 19 -55t49 -21q45 0 86 18l12 -76q-59 -32 -136 -32q-65 0 -104.5 38.5t-39.5 99.5
q0 78 52 151.5t128 106.5h-54z" />
    <glyph glyph-name="Idotaccent" unicode="&#x130;" horiz-adv-x="434" 
d="M298 1348h162l-256 -1348h-162zM522 1578q0 -42 -29 -73t-71 -31q-39 0 -65.5 27.5t-26.5 66.5q0 42 30 73t70 31q41 0 66.5 -27.5t25.5 -66.5z" />
    <glyph glyph-name="Kcommaaccent" unicode="&#x136;" horiz-adv-x="910" 
d="M42 0l256 1348h162l-126 -652h8q81 113 200 258l324 394h194l-500 -580l266 -768h-174l-220 654l-130 -138l-100 -516h-160zM302 -400l-98 -8q87 146 154 350l152 14q-103 -223 -208 -356z" />
    <glyph glyph-name="kcommaaccent" unicode="&#x137;" horiz-adv-x="806" 
d="M192 0h-160l266 1402h160l-162 -860h4q47 63 132 160l234 266h194l-376 -404l236 -564h-172l-188 474l-96 -100zM240 -420l-98 -8q87 146 154 350l152 14q-103 -223 -208 -356z" />
    <glyph glyph-name="Lacute" unicode="&#x139;" horiz-adv-x="770" 
d="M42 0l256 1348h162l-228 -1206h454l-28 -142h-616zM518 1682h200l-274 -232h-134z" />
    <glyph glyph-name="lacute" unicode="&#x13a;" horiz-adv-x="412" 
d="M194 0h-162l266 1402h164zM514 1726h200l-274 -232h-134z" />
    <glyph glyph-name="Lcommaaccent" unicode="&#x13b;" horiz-adv-x="770" 
d="M42 0l256 1348h162l-228 -1206h454l-28 -142h-616zM232 -440l-98 -8q87 146 154 350l152 14q-103 -223 -208 -356z" />
    <glyph glyph-name="lcommaaccent" unicode="&#x13c;" horiz-adv-x="412" 
d="M194 0h-162l266 1402h164zM-27 -440l-98 -8q87 146 154 350l152 14q-103 -223 -208 -356z" />
    <glyph glyph-name="Lcaron" unicode="&#x13d;" horiz-adv-x="770" 
d="M42 0l256 1348h162l-228 -1206h454l-28 -142h-616zM626 1140l-98 -8q87 146 154 350l152 14q-103 -223 -208 -356z" />
    <glyph glyph-name="lcaron" unicode="&#x13e;" horiz-adv-x="552" 
d="M194 0h-162l266 1402h164zM584 1060l-98 -8q87 146 154 350l152 14q-103 -223 -208 -356z" />
    <glyph glyph-name="Nacute" unicode="&#x143;" horiz-adv-x="1092" 
d="M190 0h-148l256 1348h168l218 -732q56 -186 92 -384h4q26 264 57 421l133 695h148l-256 -1348h-154l-218 718q-72 241 -96 408h-6q-23 -196 -74 -466zM828 1663h200l-274 -232h-134z" />
    <glyph glyph-name="nacute" unicode="&#x144;" horiz-adv-x="932" 
d="M194 0h-162q166 883 172 968h144l-20 -170h4q123 188 310 188q93 0 149.5 -62t56.5 -170q0 -62 -17 -154l-113 -600h-164q93 495 109.5 574.5t16.5 145.5q0 130 -114 130q-83 0 -166.5 -100t-111.5 -248zM676 1362h180l-246 -280h-118z" />
    <glyph glyph-name="Ncommaaccent" unicode="&#x145;" horiz-adv-x="1092" 
d="M190 0h-148l256 1348h168l218 -732q56 -186 92 -384h4q26 264 57 421l133 695h148l-256 -1348h-154l-218 718q-72 241 -96 408h-6q-23 -196 -74 -466zM372 -400l-98 -8q87 146 154 350l152 14q-103 -223 -208 -356z" />
    <glyph glyph-name="ncommaaccent" unicode="&#x146;" horiz-adv-x="932" 
d="M194 0h-162q166 883 172 968h144l-20 -170h4q123 188 310 188q93 0 149.5 -62t56.5 -170q0 -62 -17 -154l-113 -600h-164q93 495 109.5 574.5t16.5 145.5q0 130 -114 130q-83 0 -166.5 -100t-111.5 -248zM262 -420l-98 -8q87 146 154 350l152 14q-103 -223 -208 -356z
" />
    <glyph glyph-name="Ncaron" unicode="&#x147;" horiz-adv-x="1092" 
d="M190 0h-148l256 1348h168l218 -732q56 -186 92 -384h4q26 264 57 421l133 695h148l-256 -1348h-154l-218 718q-72 241 -96 408h-6q-23 -196 -74 -466zM791 1431h-120l-140 230h128l80 -146h6l128 146h138z" />
    <glyph glyph-name="ncaron" unicode="&#x148;" horiz-adv-x="932" 
d="M194 0h-162q166 883 172 968h144l-20 -170h4q123 188 310 188q93 0 149.5 -62t56.5 -170q0 -62 -17 -154l-113 -600h-164q93 495 109.5 574.5t16.5 145.5q0 130 -114 130q-83 0 -166.5 -100t-111.5 -248zM640 1082h-110l-126 280h116l78 -180h4l130 180h126z" />
    <glyph glyph-name="Omacron" unicode="&#x14c;" horiz-adv-x="1114" 
d="M1102 872q0 -212 -79 -434t-218.5 -339t-318.5 -117q-194 0 -299 138t-105 350q0 228 88 454.5t228.5 334t305.5 107.5q194 0 296 -133t102 -361zM250 480q0 -167 64.5 -261.5t189.5 -94.5q111 0 208.5 113t157.5 299.5t60 331.5q0 187 -62.5 271.5t-187.5 84.5
q-113 0 -211.5 -111t-158.5 -295t-60 -338zM553 1604h434l-20 -106h-436z" />
    <glyph glyph-name="omacron" unicode="&#x14d;" horiz-adv-x="898" 
d="M844 626q0 -241 -135.5 -442.5t-342.5 -201.5q-147 0 -229.5 99.5t-82.5 262.5q0 247 139.5 444.5t346.5 197.5q147 0 225.5 -99.5t78.5 -260.5zM218 354q0 -113 42.5 -177.5t121.5 -64.5q122 0 208 171.5t86 348.5q0 104 -41 164t-119 60q-122 0 -210 -162.5t-88 -339.5
zM392 1262h414l-20 -102h-414z" />
    <glyph glyph-name="Ohungarumlaut" unicode="&#x150;" horiz-adv-x="1114" 
d="M1102 872q0 -212 -79 -434t-218.5 -339t-318.5 -117q-194 0 -299 138t-105 350q0 228 88 454.5t228.5 334t305.5 107.5q194 0 296 -133t102 -361zM250 480q0 -167 64.5 -261.5t189.5 -94.5q111 0 208.5 113t157.5 299.5t60 331.5q0 187 -62.5 271.5t-187.5 84.5
q-113 0 -211.5 -111t-158.5 -295t-60 -338zM706 1682h172l-250 -218h-114zM978 1682h172l-250 -218h-114z" />
    <glyph glyph-name="ohungarumlaut" unicode="&#x151;" horiz-adv-x="898" 
d="M844 626q0 -241 -135.5 -442.5t-342.5 -201.5q-147 0 -229.5 99.5t-82.5 262.5q0 247 139.5 444.5t346.5 197.5q147 0 225.5 -99.5t78.5 -260.5zM218 354q0 -113 42.5 -177.5t121.5 -64.5q122 0 208 171.5t86 348.5q0 104 -41 164t-119 60q-122 0 -210 -162.5t-88 -339.5
zM534 1362h158l-240 -272h-100zM802 1362h158l-240 -272h-100z" />
    <glyph glyph-name="Racute" unicode="&#x154;" horiz-adv-x="930" 
d="M44 0l252 1330q126 26 256 26q181 0 278.5 -86t97.5 -222t-82.5 -247.5t-217.5 -154.5v-4q124 -46 136 -286q13 -305 30 -356h-166q-12 53 -22 328q-6 137 -49.5 197.5t-140.5 60.5h-102l-110 -586h-160zM434 1212l-94 -498h108q134 0 222 91t88 225q0 92 -56 143
t-158 51q-71 0 -110 -12zM728 1682h200l-274 -232h-134z" />
    <glyph glyph-name="racute" unicode="&#x155;" horiz-adv-x="574" 
d="M194 0h-162q127 675 140 755.5t26 212.5h142q-6 -86 -20 -196h6q107 214 268 214l38 -2l-32 -166q-7 2 -32 2q-95 0 -177.5 -104.5t-110.5 -253.5zM499 1362h180l-246 -280h-118z" />
    <glyph glyph-name="Rcommaaccent" unicode="&#x156;" horiz-adv-x="930" 
d="M44 0l252 1330q126 26 256 26q181 0 278.5 -86t97.5 -222t-82.5 -247.5t-217.5 -154.5v-4q124 -46 136 -286q13 -305 30 -356h-166q-12 53 -22 328q-6 137 -49.5 197.5t-140.5 60.5h-102l-110 -586h-160zM434 1212l-94 -498h108q134 0 222 91t88 225q0 92 -56 143
t-158 51q-71 0 -110 -12zM292 -400l-98 -8q87 146 154 350l152 14q-103 -223 -208 -356z" />
    <glyph glyph-name="rcommaaccent" unicode="&#x157;" horiz-adv-x="574" 
d="M194 0h-162q127 675 140 755.5t26 212.5h142q-6 -86 -20 -196h6q107 214 268 214l38 -2l-32 -166q-7 2 -32 2q-95 0 -177.5 -104.5t-110.5 -253.5zM-25 -440l-98 -8q87 146 154 350l152 14q-103 -223 -208 -356z" />
    <glyph glyph-name="Rcaron" unicode="&#x158;" horiz-adv-x="930" 
d="M44 0l252 1330q126 26 256 26q181 0 278.5 -86t97.5 -222t-82.5 -247.5t-217.5 -154.5v-4q124 -46 136 -286q13 -305 30 -356h-166q-12 53 -22 328q-6 137 -49.5 197.5t-140.5 60.5h-102l-110 -586h-160zM434 1212l-94 -498h108q134 0 222 91t88 225q0 92 -56 143
t-158 51q-71 0 -110 -12zM681 1450h-120l-140 230h128l80 -146h6l128 146h138z" />
    <glyph glyph-name="rcaron" unicode="&#x159;" horiz-adv-x="574" 
d="M194 0h-162q127 675 140 755.5t26 212.5h142q-6 -86 -20 -196h6q107 214 268 214l38 -2l-32 -166q-7 2 -32 2q-95 0 -177.5 -104.5t-110.5 -253.5zM463 1082h-110l-126 280h116l78 -180h4l130 180h126z" />
    <glyph glyph-name="Sacute" unicode="&#x15a;" horiz-adv-x="812" 
d="M6 58l54 138q106 -68 234 -68q116 0 190 70t74 180q0 73 -39 133t-129 125q-216 152 -216 338q0 169 120 279.5t302 110.5q141 0 228 -56l-52 -138q-88 50 -192 50q-106 0 -173 -63.5t-67 -154.5q0 -69 38.5 -125.5t137.5 -124.5q210 -145 210 -348q0 -185 -121.5 -302.5
t-326.5 -117.5q-171 0 -272 74zM688 1682h200l-274 -232h-134z" />
    <glyph glyph-name="sacute" unicode="&#x15b;" horiz-adv-x="660" 
d="M-8 44l48 120q91 -52 180 -52q75 0 121.5 44.5t46.5 111.5q0 55 -26 96t-92 84q-150 102 -150 242q0 128 92.5 212t239.5 84q109 0 178 -42l-44 -122q-66 36 -140 36q-73 0 -118.5 -40.5t-45.5 -103.5q0 -49 27.5 -84t84.5 -74q160 -108 160 -254q0 -151 -97.5 -234.5
t-250.5 -83.5q-126 0 -214 60zM541 1362h180l-246 -280h-118z" />
    <glyph glyph-name="Scommaaccent" unicode="&#x218;" horiz-adv-x="812" 
d="M6 58l54 138q106 -68 234 -68q116 0 190 70t74 180q0 73 -39 133t-129 125q-216 152 -216 338q0 169 120 279.5t302 110.5q141 0 228 -56l-52 -138q-88 50 -192 50q-106 0 -173 -63.5t-67 -154.5q0 -69 38.5 -125.5t137.5 -124.5q210 -145 210 -348q0 -185 -121.5 -302.5
t-326.5 -117.5q-171 0 -272 74zM222 -440l-98 -8q87 146 154 350l152 14q-103 -223 -208 -356z" />
    <glyph glyph-name="scommaaccent" unicode="&#x219;" horiz-adv-x="660" 
d="M-8 44l48 120q91 -52 180 -52q75 0 121.5 44.5t46.5 111.5q0 55 -26 96t-92 84q-150 102 -150 242q0 128 92.5 212t239.5 84q109 0 178 -42l-44 -122q-66 36 -140 36q-73 0 -118.5 -40.5t-45.5 -103.5q0 -49 27.5 -84t84.5 -74q160 -108 160 -254q0 -151 -97.5 -234.5
t-250.5 -83.5q-126 0 -214 60zM146 -440l-98 -8q87 146 154 350l152 14q-103 -223 -208 -356z" />
    <glyph glyph-name="Tcommaaccent" unicode="&#x162;" horiz-adv-x="820" 
d="M232 0l228 1202h-318l28 146h798l-28 -146h-318l-228 -1202h-162zM176 -440l-98 -8q87 146 154 350l152 14q-103 -223 -208 -356z" />
    <glyph glyph-name="tcommaaccent" unicode="&#x163;" horiz-adv-x="558" 
d="M278 1140l174 60l-46 -232h206l-24 -126h-206l-97 -506q-7 -37 -11 -71.5t-4 -60.5q0 -84 80 -84q50 0 68 6l-12 -126q-43 -16 -118 -16q-88 0 -137 46.5t-49 125.5q0 64 16 151l102 535h-126l24 126h128zM127 -440l-98 -8q87 146 154 350l152 14q-103 -223 -208 -356z
" />
    <glyph glyph-name="Tcaron" unicode="&#x164;" horiz-adv-x="820" 
d="M232 0l228 1202h-318l28 146h798l-28 -146h-318l-228 -1202h-162zM655 1450h-120l-140 230h128l80 -146h6l128 146h138z" />
    <glyph glyph-name="tcaron" unicode="&#x165;" horiz-adv-x="558" 
d="M278 1140l174 60l-46 -232h206l-24 -126h-206l-97 -506q-7 -37 -11 -71.5t-4 -60.5q0 -84 80 -84q50 0 68 6l-12 -126q-43 -16 -118 -16q-88 0 -137 46.5t-49 125.5q0 64 16 151l102 535h-126l24 126h128zM606 1068l-98 -8q87 146 154 350l152 14q-103 -223 -208 -356z
" />
    <glyph glyph-name="Umacron" unicode="&#x16a;" horiz-adv-x="1072" 
d="M294 1348h164l-162 -850q-16 -90 -16 -162q0 -100 52.5 -156t143.5 -56q117 0 190 89t110 281l164 854h162l-160 -850q-49 -263 -168 -389.5t-320 -126.5q-157 0 -246.5 89.5t-89.5 254.5q0 91 18 186zM531 1604h434l-20 -106h-436z" />
    <glyph glyph-name="umacron" unicode="&#x16b;" horiz-adv-x="924" 
d="M724 968h162l-113 -594q-33 -176 -57 -374h-146l20 166l-4 2q-125 -186 -300 -186q-98 0 -154 63t-56 177q0 64 18 161l110 585h162l-85 -448q-31 -163 -35 -199t-4 -69q0 -132 116 -132q82 0 161 93t105 229zM404 1262h414l-20 -102h-414z" />
    <glyph glyph-name="Uring" unicode="&#x16e;" horiz-adv-x="1072" 
d="M294 1348h164l-162 -850q-16 -90 -16 -162q0 -100 52.5 -156t143.5 -56q117 0 190 89t110 281l164 854h162l-160 -850q-49 -263 -168 -389.5t-320 -126.5q-157 0 -246.5 89.5t-89.5 254.5q0 91 18 186zM537 1540q0 80 57.5 133t146.5 53q85 0 136.5 -46t51.5 -122
q0 -80 -60 -130t-144 -50q-83 0 -135.5 46t-52.5 116zM829 1556q0 45 -25 72.5t-67 27.5q-41 0 -69.5 -32t-28.5 -78q0 -42 24.5 -69t65.5 -27q42 0 71 30t29 76z" />
    <glyph glyph-name="uring" unicode="&#x16f;" horiz-adv-x="924" 
d="M724 968h162l-113 -594q-33 -176 -57 -374h-146l20 166l-4 2q-125 -186 -300 -186q-98 0 -154 63t-56 177q0 64 18 161l110 585h162l-85 -448q-31 -163 -35 -199t-4 -69q0 -132 116 -132q82 0 161 93t105 229zM394 1236q0 84 57.5 138t144.5 54q85 0 135.5 -47t50.5 -127
q0 -81 -59 -133.5t-143 -52.5q-81 0 -133.5 47.5t-52.5 120.5zM686 1254q0 44 -25.5 72t-68.5 28q-44 0 -73 -32.5t-29 -79.5q0 -43 26 -71.5t68 -28.5q44 0 73 32t29 80z" />
    <glyph glyph-name="Uhungarumlaut" unicode="&#x170;" horiz-adv-x="1072" 
d="M294 1348h164l-162 -850q-16 -90 -16 -162q0 -100 52.5 -156t143.5 -56q117 0 190 89t110 281l164 854h162l-160 -850q-49 -263 -168 -389.5t-320 -126.5q-157 0 -246.5 89.5t-89.5 254.5q0 91 18 186zM684 1682h172l-250 -218h-114zM956 1682h172l-250 -218h-114z" />
    <glyph glyph-name="uhungarumlaut" unicode="&#x171;" horiz-adv-x="924" 
d="M724 968h162l-113 -594q-33 -176 -57 -374h-146l20 166l-4 2q-125 -186 -300 -186q-98 0 -154 63t-56 177q0 64 18 161l110 585h162l-85 -448q-31 -163 -35 -199t-4 -69q0 -132 116 -132q82 0 161 93t105 229zM546 1362h158l-240 -272h-100zM814 1362h158l-240 -272h-100
z" />
    <glyph glyph-name="Uogonek" unicode="&#x172;" horiz-adv-x="1072" 
d="M294 1348h164l-162 -850q-16 -90 -16 -162q0 -100 52.5 -156t143.5 -56q117 0 190 89t110 281l164 854h162l-160 -850q-86 -448 -384 -506q-84 -48 -137 -107.5t-53 -114.5q0 -32 19 -52t51 -20q42 0 86 18l12 -76q-59 -32 -136 -32q-67 0 -105.5 38t-38.5 102
q0 60 51.5 125t130.5 109q-154 6 -237 95.5t-83 248.5q0 91 18 186z" />
    <glyph glyph-name="uogonek" unicode="&#x173;" horiz-adv-x="924" 
d="M886 968l-113 -594q-33 -176 -57 -374q-95 -47 -154.5 -110.5t-59.5 -119.5q0 -34 19 -55t49 -21q45 0 86 18l12 -76q-59 -32 -136 -32q-65 0 -104.5 38.5t-39.5 99.5q0 73 65.5 147t154.5 111h-38l20 166l-4 2q-125 -186 -300 -186q-98 0 -154 63t-56 177q0 64 18 161
l110 585h162l-85 -448q-31 -163 -35 -199t-4 -69q0 -132 116 -132q79 0 159.5 91t111.5 256l95 501h162z" />
    <glyph glyph-name="Zacute" unicode="&#x179;" horiz-adv-x="876" 
d="M-50 0l20 102l778 1100v4h-520l28 142h726l-22 -112l-772 -1090v-4h570l-28 -142h-780zM720 1682h200l-274 -232h-134z" />
    <glyph glyph-name="zacute" unicode="&#x17a;" horiz-adv-x="714" 
d="M-56 0l13 82q3 22 83 124l337 427l65 79l52 60q51 56 52 60h-412l28 136h598l-20 -110l-319 -406l-150 -187q-49 -58 -111 -125v-4h450l-28 -136h-638zM568 1362h180l-246 -280h-118z" />
    <glyph glyph-name="Zdotaccent" unicode="&#x17b;" horiz-adv-x="876" 
d="M-50 0l20 102l778 1100v4h-520l28 142h726l-22 -112l-772 -1090v-4h570l-28 -142h-780zM742 1578q0 -42 -29 -73t-71 -31q-39 0 -65.5 27.5t-26.5 66.5q0 42 30 73t70 31q41 0 66.5 -27.5t25.5 -66.5z" />
    <glyph glyph-name="zdotaccent" unicode="&#x17c;" horiz-adv-x="714" 
d="M-56 0l13 82q3 22 83 124l337 427l65 79l52 60q51 56 52 60h-412l28 136h598l-20 -110l-319 -406l-150 -187q-49 -58 -111 -125v-4h450l-28 -136h-638zM596 1226q0 -44 -28.5 -74t-71.5 -30q-40 0 -66 26.5t-26 67.5q0 43 29.5 73.5t70.5 30.5q42 0 67 -26.5t25 -67.5z
" />
    <glyph glyph-name="commaaccent" unicode="&#xf6c3;" horiz-adv-x="600" 
d="M146 -440l-98 -8q87 146 154 350l152 14q-103 -223 -208 -356z" />
    <glyph glyph-name="acute.cap" unicode="&#xf100;" horiz-adv-x="600" 
d="M304 1682h200l-274 -232h-134z" />
    <glyph glyph-name="dieresis.cap" unicode="&#xf101;" horiz-adv-x="600" 
d="M226 1576q0 -42 -28 -72t-70 -30q-38 0 -64 26.5t-26 65.5q0 42 29 72t69 30t65 -27t25 -65zM562 1576q0 -42 -28.5 -72t-69.5 -30q-38 0 -64 26.5t-26 65.5q0 42 29 72t69 30t65 -27t25 -65z" />
    <glyph glyph-name="circumflex.cap" unicode="&#xf102;" horiz-adv-x="600" 
d="M282 1682h114l146 -232h-128l-84 146h-4l-128 -146h-140z" />
    <glyph glyph-name="tilde.cap" unicode="&#xf103;" horiz-adv-x="600" 
d="M154 1444h-92q5 90 42 139t94 49q42 0 110 -36q50 -36 82 -36q48 0 58 78h90q-13 -182 -140 -182q-52 0 -110 36q-54 34 -80 34q-44 0 -54 -82z" />
    <glyph glyph-name="macron.cap" unicode="&#xf104;" horiz-adv-x="600" 
d="M94 1604h434l-20 -106h-436z" />
    <glyph glyph-name="breve.cap" unicode="&#xf105;" horiz-adv-x="600" 
d="M75 1660h98q0 -108 114 -108q113 0 144 108h102q-16 -94 -83.5 -148t-170.5 -54q-99 0 -153 44.5t-54 120.5q0 18 3 37z" />
    <glyph glyph-name="dotaccent.cap" unicode="&#xf106;" horiz-adv-x="600" 
d="M396 1578q0 -42 -29 -73t-71 -31q-39 0 -65.5 27.5t-26.5 66.5q0 42 30 73t70 31q41 0 66.5 -27.5t25.5 -66.5z" />
    <glyph glyph-name="ring.cap" unicode="&#xf107;" horiz-adv-x="600" 
d="M104 1540q0 80 57.5 133t146.5 53q85 0 136.5 -46t51.5 -122q0 -80 -60 -130t-144 -50q-83 0 -135.5 46t-52.5 116zM396 1556q0 45 -25 72.5t-67 27.5q-41 0 -69.5 -32t-28.5 -78q0 -42 24.5 -69t65.5 -27q42 0 71 30t29 76z" />
    <glyph glyph-name="cedilla.cap" unicode="&#xf108;" horiz-adv-x="600" 
d="M338 8h98l-76 -108q108 -33 108 -132q0 -78 -61 -123t-143 -45t-132 36l36 82q50 -28 102 -28q38 0 62 19t24 51q0 69 -130 82z" />
    <glyph glyph-name="hungarumlaut.cap" unicode="&#xf109;" horiz-adv-x="600" 
d="M174 1682h172l-250 -218h-114zM446 1682h172l-250 -218h-114z" />
    <glyph glyph-name="ogonek.cap" unicode="&#xf110;" horiz-adv-x="600" 
d="M362 0h102q-96 -51 -155 -114t-59 -118q0 -34 19 -55t49 -21q45 0 86 18l14 -76q-59 -32 -136 -32q-65 0 -105.5 38.5t-40.5 99.5q0 55 38 112t105.5 102.5t82.5 45.5z" />
    <glyph glyph-name="caron.cap" unicode="&#xf111;" horiz-adv-x="600" 
d="M320 1450h-120l-140 230h128l80 -146h6l128 146h138z" />
    <glyph glyph-name="grave.cap" unicode="&#xf112;" horiz-adv-x="601" 
d="M122 1682h190l168 -230h-128z" />
    <glyph glyph-name="Euro" unicode="&#x20ac;" 
d="M780 40q-17 -10 -43 -21t-57.5 -19.5t-67 -14t-72.5 -5.5q-112 0 -189.5 45.5t-124.5 119.5t-65.5 168t-14.5 191h-120l22 100h106q5 29 11 58t15 56h-110l20 100h118q31 94 85 184t127.5 160.5t164.5 114t197 43.5q74 0 124 -15.5t80 -32.5l-52 -128q-29 14 -68 25
t-90 11q-76 0 -140 -33t-115 -85.5t-87.5 -117t-57.5 -126.5h428l-22 -100h-438q-9 -26 -15 -55t-9 -59h438l-22 -100h-424q-2 -65 8 -133.5t39.5 -124t81 -91t131.5 -35.5q57 0 106.5 14.5t79.5 31.5z" />
    <glyph glyph-name="pi" unicode="&#x3c0;" horiz-adv-x="930" 
d="M824 836l-104 -556q-10 -58 -16.5 -102t-9.5 -77.5t-2.5 -58t2.5 -42.5h-154q-9 24 -6.5 91.5t24.5 184.5l106 560h-244q-12 -48 -22 -97t-22 -99q-23 -98 -51 -195t-58 -182t-61.5 -153.5t-63.5 -109.5h-158q33 49 64.5 117.5t61 151t56.5 175.5t50 190
q14 51 24.5 101.5l21.5 100.5q-62 0 -102 -5.5t-66 -14.5l-6 100q14 12 34.5 21.5t50.5 16.5t71.5 10.5t97.5 3.5h628l-30 -132h-116z" />
    <glyph glyph-name="litre" unicode="&#x2113;" horiz-adv-x="862" 
d="M358 630q56 55 112.5 121t102 138t74.5 148t29 149q0 56 -20.5 83t-53.5 27q-25 0 -49 -16t-46.5 -50.5t-42 -89.5t-34.5 -132zM752 186q-60 -98 -149.5 -152t-204.5 -54q-71 0 -122 24.5t-82 68.5t-43 104.5t-5 132.5l6 36l-50.5 -34.5t-49.5 -31.5l-40 88l83.5 58
t80.5 60l96 504q23 119 58.5 202t80.5 134.5t97.5 74.5t107.5 23q91 0 143.5 -60t52.5 -166q0 -73 -21.5 -143.5t-57.5 -138t-84.5 -130.5t-102.5 -121t-110.5 -110l-109.5 -97l-12 -64q-13 -76 -8 -127.5t24 -83t49.5 -44.5t68.5 -13q37 0 70 12.5t62.5 32t55.5 45t48 50.5
z" />
    <glyph glyph-name="estimated" unicode="&#x212e;" horiz-adv-x="1634" 
d="M394 632q-10 0 -10 -8v-366q0 -12 5 -22.5t13 -19.5q86 -92 204 -145t254 -53q72 0 139.5 15.5t129 44.5t115 70t96.5 92h110q-51 -59 -116 -107.5t-141 -83t-160.5 -53t-174.5 -18.5q-103 0 -198.5 24t-178.5 67.5t-151.5 105t-117 136t-75.5 160.5t-27 179t27 179
t75.5 160.5t117 136t151.5 105t178.5 67.5t198.5 24q155 0 290.5 -52.5t237 -144t160 -213.5t58.5 -262v-18h-1210zM1332 1048q0 14 -5.5 24.5t-14.5 19.5q-88 88 -203.5 139t-248.5 51q-136 0 -252 -52.5t-204 -143.5q-9 -9 -14.5 -20.5t-5.5 -25.5v-360q0 -10 10 -10h928
q10 0 10 10v368z" />
    <glyph glyph-name="uni021A" horiz-adv-x="820" 
d="M232 0l228 1202h-318l28 146h798l-28 -146h-318l-228 -1202h-162zM176 -440l-98 -8q87 146 154 350l152 14q-103 -223 -208 -356z" />
    <glyph glyph-name="uni2215" unicode="&#x2215;" horiz-adv-x="742" 
d="M-12 -18h-118l942 1338h118z" />
    </font>
</defs>
</svg>
