<?xml version="1.0" encoding="utf-8"?>
<!-- Generator: Adobe Illustrator 20.1.0, SVG Export Plug-In . SVG Version: 6.00 Build 0)  -->
<svg version="1.1" xmlns="http://www.w3.org/2000/svg" xmlns:xlink="http://www.w3.org/1999/xlink" x="0px" y="0px"
	 viewBox="0 0 22 22" style="enable-background:new 0 0 22 22;" xml:space="preserve">
<style type="text/css">
	.st0{display:none;}
	.st1{display:inline;fill:#444445;}
	.st2{display:inline;}
	.st3{fill:#444445;}
	.st4{fill:#444444;}
	.st5{display:inline;fill:#444444;}
	.st6{display:inline;fill:none;}
</style>
<g id="plush" class="st0">
	<path class="st1" d="M22,12.6h-9.4V22H9.4v-9.4H0V9.4h9.4V0h3.1v9.4H22V12.6z"/>
</g>
<g id="edit" class="st0">
	<path class="st1" d="M21.6,4.9c0.5-0.5,0.5-1.3,0-1.7l-2.9-2.9c-0.5-0.5-1.2-0.5-1.7,0l-2.2,2.2l4.6,4.6 M0,17.4V22h4.6L18.1,8.5
		l-4.6-4.6L0,17.4z"/>
</g>
<g id="refreash" class="st0">
	<path class="st1" d="M18.2,11H22l-5.6,5.9L10.7,11h5.2c0-1.8-0.6-3.6-2-5c-2.7-2.8-7-2.8-9.7,0s-2.7,7.3,0,10.1
		c2.1,2.2,5.2,2.6,7.8,1.4l1.7,1.7c-3.5,2.2-8,1.7-11.1-1.5C-0.9,14-0.9,8,2.7,4.3c3.6-3.7,9.3-3.7,12.9,0
		C17.3,6.1,18.2,8.6,18.2,11z"/>
</g>
<g id="setting" class="st0">
	<path class="st1" d="M11,14.9c-2.2,0-4-1.7-4-3.9s1.8-3.8,4-3.8s4,1.7,4,3.8S13.2,14.9,11,14.9 M19.4,12.1c0-0.4,0.1-0.7,0.1-1.1
		s0-0.7-0.1-1.1l2.4-1.8c0.2-0.2,0.3-0.5,0.1-0.7l-2.3-3.8c-0.1-0.2-0.4-0.3-0.7-0.2l-2.8,1.1C15.6,4,15,3.7,14.2,3.4l-0.4-2.9
		c0-0.3-0.3-0.5-0.6-0.5H8.7C8.5,0,8.2,0.2,8.2,0.5L7.8,3.4C7,3.7,6.4,4,5.8,4.5L3,3.4c-0.2-0.1-0.6,0-0.7,0.2L0.1,7.4
		C-0.1,7.6,0,7.9,0.2,8.1l2.4,1.8c0,0.4-0.1,0.7-0.1,1.1s0,0.7,0.1,1.1l-2.4,1.8c-0.2,0.2-0.3,0.5-0.1,0.7l2.3,3.8
		c0.1,0.2,0.4,0.3,0.7,0.2l2.8-1.1C6.4,18,7,18.3,7.8,18.6l0.4,2.9c0,0.3,0.3,0.5,0.6,0.5h4.5c0.3,0,0.5-0.2,0.6-0.5l0.4-2.9
		c0.7-0.3,1.3-0.6,1.9-1.1l2.8,1.1c0.2,0.1,0.6,0,0.7-0.2l2.3-3.8c0.1-0.2,0.1-0.5-0.1-0.7L19.4,12.1z"/>
</g>
<g id="close" class="st0">
	<path class="st1" d="M22,2.2L19.8,0L11,8.8L2.2,0L0,2.2L8.8,11L0,19.8L2.2,22l8.8-8.8l8.8,8.8l2.2-2.2L13.2,11L22,2.2z"/>
</g>
<g id="delect" class="st0">
	<path class="st1" d="M19.5,1.2h-4.3L14.1,0H7.9L6.7,1.2H2.5v2.4h17.1 M3.7,19.5c0,1.3,1.1,2.5,2.4,2.5h9.8c1.3,0,2.4-1.1,2.4-2.5
		V4.9H3.7V19.5z"/>
</g>
<g id="link" class="st0">
	<path class="st1" d="M9.3,12.7c0.5,0.5,0.5,1.2,0,1.7c-0.5,0.5-1.2,0.5-1.7,0C5.3,12,5.3,8.3,7.6,6l0,0l4.2-4.2
		c2.3-2.3,6.1-2.3,8.4,0c2.3,2.3,2.3,6.1,0,8.4l-1.8,1.8c0-1-0.1-2-0.5-2.9l0.6-0.6c1.4-1.4,1.4-3.7,0-5c-1.4-1.4-3.7-1.4-5,0
		L9.3,7.6C7.9,9,7.9,11.3,9.3,12.7 M12.7,7.6c0.5-0.5,1.2-0.5,1.7,0c2.3,2.3,2.3,6.1,0,8.4l0,0l-4.2,4.2c-2.3,2.3-6.1,2.3-8.4,0
		c-2.3-2.3-2.3-6.1,0-8.4l1.8-1.8c0,1,0.1,2,0.5,2.9l-0.6,0.6c-1.4,1.4-1.4,3.7,0,5c1.4,1.4,3.7,1.4,5,0l4.2-4.2
		c1.4-1.4,1.4-3.7,0-5C12.2,8.9,12.2,8.1,12.7,7.6z"/>
</g>
<g id="list" class="st0">
	<path class="st1" d="M5.4,2.6H22V5H5.4V2.6 M5.4,12.2V9.8H22v2.4H5.4 M1.8,2c1,0,1.8,0.8,1.8,1.8S2.8,5.6,1.8,5.6S0,4.8,0,3.8
		S0.8,2,1.8,2 M1.8,9.2c1,0,1.8,0.8,1.8,1.8s-0.8,1.8-1.8,1.8S0,12,0,11S0.8,9.2,1.8,9.2 M5.4,19.4V17H22v2.4H5.4 M1.8,16.4
		c1,0,1.8,0.8,1.8,1.8c0,1-0.8,1.8-1.8,1.8S0,19.2,0,18.2C0,17.2,0.8,16.4,1.8,16.4z"/>
</g>
<g id="right_arrow" class="st0">
	<path class="st1" d="M9.1,16.4c-0.1,0-0.3-0.1-0.4-0.2c-0.2-0.2-0.2-0.6,0-0.8l4.5-4.5L8.7,6.5c-0.2-0.2-0.2-0.6,0-0.8
		c0.2-0.2,0.6-0.2,0.8,0l4.9,4.9c0.2,0.2,0.2,0.6,0,0.8l-4.9,4.9C9.4,16.4,9.3,16.4,9.1,16.4z M22,11c0-6.1-4.9-11-11-11S0,4.9,0,11
		s4.9,11,11,11S22,17.1,22,11z M20.9,11c0,5.5-4.4,9.9-9.9,9.9c-5.5,0-9.9-4.4-9.9-9.9c0-5.5,4.4-9.9,9.9-9.9
		C16.5,1.1,20.9,5.5,20.9,11z"/>
</g>
<g id="left_arrow" class="st0">
	<path class="st1" d="M12.9,16.4c-0.1,0-0.3-0.1-0.4-0.2l-4.9-4.9c-0.2-0.2-0.2-0.6,0-0.8l4.9-4.9c0.2-0.2,0.6-0.2,0.8,0
		c0.2,0.2,0.2,0.6,0,0.8L8.8,11l4.5,4.5c0.2,0.2,0.2,0.6,0,0.8C13.2,16.4,13,16.4,12.9,16.4z M22,11c0-6.1-4.9-11-11-11S0,4.9,0,11
		s4.9,11,11,11S22,17.1,22,11z M20.9,11c0,5.5-4.4,9.9-9.9,9.9c-5.5,0-9.9-4.4-9.9-9.9c0-5.5,4.4-9.9,9.9-9.9
		C16.5,1.1,20.9,5.5,20.9,11z"/>
</g>
<g id="round_plus" class="st0">
	<path class="st1" d="M15.9,11c0,0.3-0.2,0.5-0.5,0.5h-3.8v3.8c0,0.3-0.2,0.5-0.5,0.5c-0.3,0-0.5-0.2-0.5-0.5v-3.8H6.6
		c-0.3,0-0.5-0.2-0.5-0.5s0.2-0.5,0.5-0.5h3.8V6.6c0-0.3,0.2-0.6,0.5-0.6c0.3,0,0.5,0.2,0.5,0.6v3.8h3.8
		C15.7,10.5,15.9,10.7,15.9,11z M22,11c0-6.1-4.9-11-11-11S0,4.9,0,11s4.9,11,11,11S22,17.1,22,11z M20.9,11c0,5.5-4.4,9.9-9.9,9.9
		c-5.5,0-9.9-4.4-9.9-9.9c0-5.5,4.4-9.9,9.9-9.9C16.5,1.1,20.9,5.5,20.9,11z"/>
</g>
<g id="round_minus" class="st0">
	<path class="st1" d="M15.4,11.5H6.6c-0.3,0-0.6-0.2-0.6-0.6s0.2-0.6,0.6-0.6h8.7c0.3,0,0.5,0.2,0.5,0.6S15.7,11.5,15.4,11.5z
		 M22,11c0-6.1-4.9-11-11-11S0,4.9,0,11s4.9,11,11,11S22,17.1,22,11z M20.9,11c0,5.5-4.4,9.9-9.9,9.9c-5.5,0-9.9-4.4-9.9-9.9
		c0-5.5,4.4-9.9,9.9-9.9C16.5,1.1,20.9,5.5,20.9,11z"/>
</g>
<g id="globe" class="st0">
	<g class="st2">
		<polygon class="st3" points="9.1,4.1 9.1,4.1 9.1,4.1 		"/>
		<path class="st3" d="M11,0C4.9,0,0,4.9,0,11s4.9,11,11,11c6.1,0,11-4.9,11-11C22,4.9,17.1,0,11,0z M21,11c0,0.2,0,0.4,0,0.6
			c-0.1-0.2-0.2-0.4-0.2-0.5c0-0.2-0.3-0.7-0.3-0.7s-0.2-0.3-0.4-0.4c-0.2-0.1-0.3-0.3-0.5-0.4c-0.3-0.2-0.4-0.2-0.6-0.2
			c-0.2,0-0.5-0.3-0.7-0.5C18.1,8.7,18,8.8,18,8.8s0.3,0.5,0.3,0.6s0.3,0.3,0.7,0.2c0,0,0.2,0.4,0.3,0.5c0.1,0.1,0,0.2-0.3,0.4
			c-0.2,0.2-0.2,0.1-0.3,0.2c-0.1,0.1-0.5,0.3-0.6,0.4c-0.1,0.1-0.6,0.3-0.8,0.1c-0.1-0.1-0.1-0.3-0.2-0.5c-0.1-0.2-0.9-1.3-1.3-1.9
			c-0.1-0.1-0.2-0.4-0.3-0.5c-0.1-0.1,0.3-0.1,0.3-0.1s0-0.3,0-0.5c0-0.2,0-0.5,0-0.5s-0.4,0.2-0.5,0.3c-0.1,0.1-0.2-0.2-0.4-0.3
			c-0.2-0.2-0.3-0.4-0.3-0.6c0-0.2,0.2-0.3,0.2-0.3l0.3-0.2c0,0,0.4-0.1,0.7,0c0.3,0,0.7,0.1,0.7,0.1s0.1-0.3,0-0.4
			c-0.2-0.1-0.5-0.3-0.6-0.3c-0.2,0,0.1-0.2,0.3-0.3l-0.4-0.1c0,0-0.4,0.2-0.5,0.2c-0.1,0-0.3,0.1-0.5,0.3c-0.2,0.2,0.1,0.5-0.1,0.5
			c-0.2,0.1-0.3,0.1-0.4,0.2c-0.1,0-0.5,0-0.5,0c-0.4,0-0.1,0.4,0,0.5l-0.3-0.4l-0.2-0.5c0,0-0.3-0.2-0.5-0.3
			c-0.2-0.1-0.6-0.3-0.6-0.3l0,0.3l0.4,0.4l0,0l0.2,0.3l-0.5,0V6.3C11.9,6.2,12.1,6.1,12,6c-0.1-0.1-0.4-0.3-0.4-0.3
			s-0.4,0.1-0.6,0.1c-0.1,0-0.1,0.2-0.4,0.2c-0.2,0.1-0.3,0.2-0.4,0.3C10.2,6.5,10,6.9,9.8,7C9.7,7.2,9.4,7.1,9.3,7.1
			C9.2,7.1,8.6,7,8.6,7V6.3c0,0,0.1-0.4,0-0.5L9,5.8l0.6-0.1l0.2-0.1l0.2-0.3c0,0-0.3-0.2-0.1-0.5c0.1-0.1,0.4-0.2,0.6-0.3
			c0.2-0.1,0.4-0.2,0.4-0.2s0.3-0.2,0.5-0.5c0,0,0.2-0.1,0.4-0.2c0,0,0.6,0.6,0.8,0.6c0.1,0,0.5-0.3,0.5-0.3s0.1-0.3,0.1-0.5
			c0-0.1-0.2-0.5-0.2-0.5s-0.1,0.2-0.2,0.3c-0.1,0.2-0.2,0.3-0.2,0.3s-0.5,0-0.6-0.1c0-0.1-0.1-0.3-0.2-0.4c0-0.1-0.3-0.1-0.6,0
			c-0.2,0.1,0-0.4,0-0.4s0.2-0.3,0.4-0.3c0.2,0,0.5-0.2,0.6-0.2c0.2,0,0.6-0.2,0.8-0.2c0.2,0,0.4,0.1,0.5,0.1s0.6,0,0.6,0L14.9,2
			c0,0,0.7,0.3,0.5,0.4c0,0,0.3,0.2,0.4,0.3c0.1,0.1,0.4-0.1,0.5-0.2C19.2,4.3,21,7.4,21,11z M3,5.1c0,0.2-0.2,0.2,0,0.6
			c0.3,0.5,0,0.7,0,0.7S2.4,6.8,2.3,6.9C2.1,7,1.8,7.4,2,7.3C2.2,7.2,2.4,7,2.3,7.3c-0.2,0.3-0.5,0.8-0.6,1C1.6,8.5,1.2,9,1.2,9.2
			S1,9.9,1.1,10.1c0,0.1-0.1,0.5-0.1,0.7C1,8.6,1.7,6.7,3,5.1C3,5.1,3,5.1,3,5.1z M4.2,3.6c0.9-0.9,2-1.5,3.2-2
			C7.3,1.8,7.1,1.9,7.1,1.9s-0.3,0-0.8,0.5C5.9,3,6,2.8,5.9,3C5.8,3.1,5.8,3.2,5.6,3.4C5.3,3.6,5.2,3.8,5.2,3.8L4.8,3.9L4.4,3.8
			c0,0-0.3,0.1-0.3,0C4.2,3.7,4.2,3.7,4.2,3.6z M8.7,4.5L8.6,4.3l0.2-0.3l0.4,0.1V3.4l0.3-0.2l0.3,0.4l0.4,0.5L9.9,4.4L9.1,4.5V4.1
			L8.7,4.5z M13.7,8.1C13.7,8,14,8.2,14,8.2s0.9,0.2,1.1,0.3c0.2,0.1,0.4,0.2,0.5,0.3C15.7,8.9,16,9.2,16,9.4c0,0.1,0.2,0.5,0.3,0.7
			c0,0.2,0.2,0.5,0.3,0.7c0.1,0.2,0.8,1,1,1.4l0.7-0.1c0,0-0.1,0.3-0.2,0.5c-0.1,0.1-0.3,0.4-0.4,0.6c-0.1,0.2-0.3,0.4-0.5,0.6
			c-0.2,0.2-0.2,0.4-0.3,0.5c-0.1,0.2-0.3,0.5-0.3,0.5s0.1,0.8,0.1,0.9c0,0.2-0.3,0.6-0.3,0.6L16,16.5l-0.5,0.6l0,0.6
			c0,0-0.3,0.3-0.5,0.4c-0.2,0.2-0.2,0.3-0.3,0.4c-0.2,0.2-0.7,0.4-0.9,0.5s-1,0.2-1,0.2v-0.3l0-0.4c0,0-0.1-0.5-0.2-0.6
			c-0.1-0.2-0.1-0.4-0.3-0.6c-0.2-0.2-0.3-0.3-0.3-0.5c0-0.1,0-0.5,0-0.5s0.2-0.4,0.2-0.6c0.1-0.2,0-0.4-0.1-0.5
			c-0.1-0.2-0.1-0.5-0.1-0.6c0-0.1-0.3-0.3-0.4-0.4c-0.1-0.1-0.1-0.3-0.1-0.4c0-0.2-0.1-0.5-0.1-0.8c0-0.3-0.3-0.1-0.6,0
			c-0.2,0.1-0.4-0.1-0.4-0.3c0-0.2-0.4,0-0.7,0.1c-0.3,0.2-0.6,0.2-0.9,0.3c-0.3,0.1-0.5-0.1-0.5-0.1s-0.3-0.2-0.5-0.3
			C8,12.5,7.8,12.2,7.7,12c-0.2-0.2-0.5-0.8-0.6-1c0-0.2,0-0.4,0-0.6s0-0.4,0-0.6c0-0.2,0.2-0.4,0.3-0.6C7.5,9,7.9,8.8,8.1,8.7
			c0.1-0.1,0.4-0.3,0.4-0.5c0-0.2,0.2-0.2,0.2-0.4C8.7,7.7,9,7.3,9.3,7.5c0,0,0.3,0,0.4-0.1c0.1,0,0.4-0.2,0.6-0.2
			c0.2-0.1,0.5-0.1,0.5-0.1s0.3,0.1,0.4,0.1c0.1,0,0.5-0.1,0.5-0.1s0.2,0.5,0.2,0.7S12,8,12.2,8.1C12.4,8.2,13.3,8.4,13.7,8.1z
			 M18,15.5c0,0.1,0,0.4-0.1,0.6c0,0.2-0.1,0.4-0.2,0.6c0,0.2-0.2,0.5-0.3,0.5c-0.1,0.1-0.3,0.3-0.4,0.3c-0.1,0-0.2-0.3-0.2-0.4
			c0-0.2,0.2-0.6,0.2-0.6s0-0.2,0.1-0.4c0-0.2,0.5-0.3,0.5-0.3l0.3-0.6C18,15.2,18,15.4,18,15.5z M1.2,13.2c0,0,0.1,0,0.2,0.1
			c0.1,0.1,0.2,0.2,0.4,0.3c0.2,0.1,0.3,0.2,0.5,0.3c0.2,0.1,0.2,0,0.5,0.4c0.3,0.3,0.3,0.3,0.3,0.5s0.2,0.4,0.3,0.5
			c0.1,0.1,0.3,0.2,0.4,0.3c0.1,0.1,0.3,0.2,0.4,0.2c0.1,0,0.5,0.3,0.6,0.4c0.2,0,0.2,0.4,0.2,0.4l-0.2,0.5l-0.2,0.6l0.2,0.5
			c0,0-0.2,0.2-0.4,0.2c-0.1,0-0.2,0.1-0.3,0C2.7,17,1.7,15.2,1.2,13.2z"/>
	</g>
</g>
<g id="clock" class="st0">
	<path class="st1" d="M11,19.8c4.9,0,8.8-3.9,8.8-8.8S15.9,2.2,11,2.2S2.2,6.1,2.2,11S6.1,19.8,11,19.8 M11,0c6.1,0,11,4.9,11,11
		s-4.9,11-11,11C4.9,22,0,17,0,11C0,4.9,4.9,0,11,0 M11.6,5.5v5.8l4.9,2.9l-0.8,1.4l-5.8-3.5V5.5H11.6z"/>
</g>
<g id="user" class="st0">
	<path class="st1" d="M11,0c3,0,5.5,2.5,5.5,5.5S14,11,11,11S5.5,8.5,5.5,5.5S8,0,11,0 M11,13.8c6.1,0,11,2.5,11,5.5V22H0v-2.8
		C0,16.2,4.9,13.8,11,13.8z"/>
</g>
<g id="calender" class="st0">
	<path class="st1" d="M19.6,19.8H2.4V7.7h17.1 M15.9,0v2.2H6.1V0H3.7v2.2H2.4C1.1,2.2,0,3.2,0,4.4v15.4C0,21,1.1,22,2.4,22h17.1
		c1.4,0,2.4-1,2.4-2.2V4.4c0-1.2-1.1-2.2-2.4-2.2h-1.2V0 M17.1,12.1H11v5.5h6.1V12.1z"/>
</g>
<g id="popup" class="st0">
	<path class="st1" d="M20,16H6V2h14 M20,0H6C4.9,0,4,0.9,4,2v14c0,1.1,0.9,2,2,2h14c1.1,0,2-0.9,2-2V2C22,0.9,21.1,0,20,0 M2,4H0v16
		c0,1.1,0.9,2,2,2h16v-2H2V4z"/>
</g>
<g id="round_tick" class="st0">
	<path class="st1" d="M9.4,15.8c-0.1,0-0.3,0-0.4-0.1l-3.3-2.8c-0.2-0.2-0.3-0.5-0.1-0.8c0.2-0.2,0.5-0.3,0.8-0.1l2.8,2.4l6.1-7.9
		c0.2-0.2,0.5-0.3,0.8-0.1c0.2,0.2,0.3,0.5,0.1,0.8l-6.5,8.4C9.7,15.7,9.6,15.7,9.4,15.8C9.4,15.8,9.4,15.8,9.4,15.8z M22,11
		c0-6.1-4.9-11-11-11S0,4.9,0,11s4.9,11,11,11S22,17.1,22,11z M20.9,11c0,5.5-4.4,9.9-9.9,9.9c-5.5,0-9.9-4.4-9.9-9.9
		c0-5.5,4.4-9.9,9.9-9.9C16.5,1.1,20.9,5.5,20.9,11z"/>
</g>
<g id="select" class="st0">
	<path class="st1" d="M19.6,19.6H2.4V2.4h12.2V0H2.4C1.1,0,0,1.1,0,2.4v17.1C0,20.9,1.1,22,2.4,22h17.1c1.4,0,2.4-1.1,2.4-2.4V9.8
		h-2.4 M6,8.7l-1.7,1.7l5.5,5.5L22,3.7l-1.7-1.7L9.8,12.4L6,8.7z"/>
</g>
<g id="reply" class="st0">
	<path class="st1" d="M8.6,6.6V1.5L0,10.4l8.6,8.9V14c6.1,0,10.4,2,13.4,6.5C20.8,14.2,17.1,7.8,8.6,6.6z"/>
</g>
<g id="window_maximize" class="st0">
	<path class="st1" d="M0,0h22v22H0V0 M2.8,5.5v13.8h16.5V5.5H2.8z"/>
</g>
<g id="window_minimize">
	<path class="st4" d="M22,13H0V9h22"/>
</g>
<g id="info" class="st0">
	<path class="st1" d="M9.9,7.7h2.2V5.5H9.9 M11,19.8c-4.9,0-8.8-3.9-8.8-8.8S6.1,2.2,11,2.2s8.8,3.9,8.8,8.8S15.9,19.8,11,19.8
		 M11,0C4.9,0,0,4.9,0,11s4.9,11,11,11s11-4.9,11-11S17.1,0,11,0 M9.9,16.5h2.2V9.9H9.9V16.5z"/>
</g>
<g id="chevron-left" class="st0">
	<path class="st1" d="M18,19.4L9.3,11L18,2.6L15.3,0L4,11l11.3,11L18,19.4z"/>
</g>
<g id="chevron-right" class="st0">
	<path class="st1" d="M4,19.4l8.7-8.4L4,2.6L6.7,0L18,11L6.7,22L4,19.4z"/>
</g>
<g id="pdf" class="st0">
	<path class="st1" d="M12.1,7.7h5.8l-5.8-6V7.7 M4.6,0h8.5l6.4,6.6v13.2c0,1.2-1,2.2-2.1,2.2H4.6c-1.2,0-2.1-1-2.1-2.2V2.2
		C2.5,1,3.5,0,4.6,0 M9.9,11.5c0.4,1,1,1.8,1.6,2.4l0.4,0.4c-0.9,0.2-2.2,0.5-3.5,1l0,0l-0.1,0l0.5-1.1C9.3,13.2,9.6,12.3,9.9,11.5
		 M16.7,15.7c0.2-0.2,0.3-0.5,0.3-0.7c0-0.2,0-0.4-0.1-0.6c-0.3-0.5-1.1-0.8-2.4-0.8l-1.4,0.1L12.2,13c-0.7-0.6-1.3-1.6-1.7-2.8
		l0-0.2c0.4-1.5,0.7-3.2,0-4c-0.2-0.2-0.4-0.3-0.6-0.3H9.6c-0.4,0-0.7,0.4-0.8,0.8C8.4,8.1,8.6,8.9,9,10.3v0c-0.3,1-0.6,2.1-1.1,3.2
		l-1,2L5.9,16c-1.3,0.8-1.9,1.7-2,2.3c0,0.2,0,0.4,0.1,0.6L4,19l0.5,0.3L5,19.5c0.9,0,1.8-1,3.2-3.4L8.3,16c1.1-0.4,2.5-0.6,4.3-0.8
		c1.1,0.6,2.4,0.8,3.2,0.8C16.2,16,16.6,15.9,16.7,15.7 M16.3,14.9l0.1,0.1c0,0.1,0,0.1-0.1,0.1h0l-0.2,0c-0.5,0-1.2-0.2-2-0.6
		c0.1-0.1,0.1-0.1,0.2-0.1C15.8,14.5,16.2,14.8,16.3,14.9 M6.6,16.5c-0.7,1.3-1.3,2-1.8,2.2c0.1-0.4,0.5-1.1,1.3-1.9L6.6,16.5
		 M9.8,8.9c-0.2-1-0.3-1.8-0.1-2.3l0.1-0.1l0.2,0.1c0.2,0.3,0.2,0.6,0.1,1.2L10,8L9.8,8.9L9.8,8.9z"/>
</g>
<g id="xl" class="st0">
	<path class="st1" d="M4.6,0h8.5l6.4,6.6v13.2c0,1.2-1,2.2-2.1,2.2H4.6c-1.2,0-2.1-1-2.1-2.2V2.2C2.5,1,3.5,0,4.6,0 M12.1,1.6v6h5.8
		L12.1,1.6 M16.3,9.9h-4.3v2.2h1.1L11,13.9l-2.1-1.8h1.1V9.9H5.7v2.2h1.1l3.2,2.8l-3.2,2.8H5.7v2.2h4.3v-2.2H8.9l2.1-1.8l2.1,1.8
		h-1.1v2.2h4.3v-2.2h-1.1l-3.2-2.8l3.2-2.8h1.1V9.9z"/>
</g>
<g id="alart" class="st0">
	<path class="st5" d="M11,1.5l-11,19h22 M11,5.5l7.5,13H3.5 M10,9.5v4h2v-4 M10,15.5v2h2v-2"/>
</g>
<g id="help" class="st0">
	<path class="st5" d="M9.9,17.6h2.2v-2.2H9.9V17.6 M11,0C4.9,0,0,4.9,0,11s4.9,11,11,11s11-4.9,11-11S17.1,0,11,0 M11,19.8
		c-4.9,0-8.8-3.9-8.8-8.8S6.1,2.2,11,2.2s8.8,3.9,8.8,8.8S15.9,19.8,11,19.8 M11,4.4c-2.4,0-4.4,2-4.4,4.4h2.2c0-1.2,1-2.2,2.2-2.2
		s2.2,1,2.2,2.2c0,2.2-3.3,1.9-3.3,5.5h2.2c0-2.5,3.3-2.8,3.3-5.5C15.4,6.4,13.4,4.4,11,4.4z"/>
</g>
<g id="search" class="st0">
	<path class="st5" d="M8.2,0c4.5,0,8.2,3.7,8.2,8.2c0,2-0.7,3.9-2,5.3l0.3,0.3h1l6.3,6.3L20.1,22l-6.3-6.3v-1l-0.3-0.3
		c-1.4,1.2-3.3,2-5.3,2C3.7,16.3,0,12.7,0,8.2S3.7,0,8.2,0 M8.2,2.5C5,2.5,2.5,5,2.5,8.2s2.5,5.7,5.7,5.7s5.7-2.5,5.7-5.7
		S11.3,2.5,8.2,2.5z"/>
</g>
<g id="upload" class="st0">
	<path class="st5" d="M7.1,16.8V9.1H2L11,0l9,9.1h-5.1v7.8H7.1 M2,22v-2.6h18V22H2z"/>
</g>
<g id="tick_1_" class="st0">
	<path class="st5" d="M22,4.7L6.9,19L0,12.4l1.8-1.7l5.1,4.9L20.2,3L22,4.7z"/>
</g>
<g id="calculator" class="st0">
	<path class="st5" d="M5.6,0h10.7c1.2,0,2.1,1,2.1,2.2v17.6c0,1.2-1,2.2-2.1,2.2H5.6c-1.2,0-2.1-1-2.1-2.2V2.2C3.5,1,4.5,0,5.6,0
		 M5.6,2.2v4.4h10.7V2.2H5.6 M5.6,8.8V11h2.1V8.8H5.6 M9.9,8.8V11h2.1V8.8H9.9 M14.2,8.8V11h2.1V8.8H14.2 M5.6,13.2v2.2h2.1v-2.2
		H5.6 M9.9,13.2v2.2h2.1v-2.2H9.9 M14.2,13.2v2.2h2.1v-2.2H14.2 M5.6,17.6v2.2h2.1v-2.2H5.6 M9.9,17.6v2.2h2.1v-2.2H9.9 M14.2,17.6
		v2.2h2.1v-2.2H14.2z"/>
</g>
<g id="dashboard" class="st0">
	<g class="st2">
		<g>
			<path class="st4" d="M11,22c-2.9,0-5.7-1.1-7.8-3.2C-0.2,15.4-1,10.2,1.2,6c0.2-0.4,0.7-0.5,1.1-0.3c0.4,0.2,0.5,0.7,0.3,1.1
				c-1.9,3.7-1.2,8.1,1.7,11c1.8,1.8,4.1,2.8,6.7,2.8c2.5,0,4.9-1,6.7-2.8s2.8-4.1,2.8-6.7c0-2.5-1-4.9-2.8-6.7S13.5,1.6,11,1.6
				s-4.9,1-6.7,2.8C4,4.6,3.5,4.6,3.2,4.3C2.9,4,2.9,3.5,3.2,3.2C5.3,1.1,8.1,0,11,0s5.7,1.1,7.8,3.2C20.9,5.3,22,8.1,22,11
				c0,2.9-1.1,5.7-3.2,7.8C16.7,20.9,13.9,22,11,22z"/>
		</g>
		<g>
			<path class="st4" d="M9.8,15.3c-0.8,0-1.6-0.3-2.2-0.9c-1.2-1.2-1.2-3.2,0-4.4c1-1,5.7-2.9,6.6-3.2c0.3-0.1,0.6,0,0.8,0.2
				c0.2,0.2,0.3,0.5,0.2,0.8c-0.4,0.9-2.2,5.7-3.2,6.7C11.4,15,10.7,15.3,9.8,15.3z M13.1,8.9c-1.9,0.8-4,1.8-4.4,2.2
				c-0.6,0.6-0.6,1.6,0,2.2c0.6,0.6,1.6,0.6,2.2,0C11.4,12.9,12.3,10.8,13.1,8.9z"/>
		</g>
	</g>
</g>
<g id="chevron_double_right" class="st0">
	<path class="st5" d="M0,3.7l2.3-2.2l9.8,9.5l-9.8,9.5L0,18.3L7.5,11L0,3.7 M9.8,3.7l2.3-2.2L22,11l-9.8,9.5l-2.3-2.2l7.5-7.3
		L9.8,3.7z"/>
</g>
<g id="chevron_down" class="st0">
	<path class="st5" d="M2.6,4l8.4,8.7L19.4,4L22,6.7L11,18L0,6.7L2.6,4z"/>
</g>
<g id="chevron_up" class="st0">
	<path class="st5" d="M2.6,18L11,9.3l8.4,8.7l2.6-2.7L11,4L0,15.3L2.6,18z"/>
</g>
<g id="up_arrow" class="st0">
	<path class="st5" d="M0,16.5l11-11l11,11H0z"/>
	<path class="st6" d="M-13-13h48v48h-48V-13z"/>
</g>
<g id="printer" class="st0">
	<path class="st5" d="M17.6,1H4.4v4.4h13.2 M18.7,11c-0.6,0-1.1-0.5-1.1-1.1c0-0.6,0.5-1.1,1.1-1.1c0.6,0,1.1,0.5,1.1,1.1
		C19.8,10.5,19.3,11,18.7,11 M15.4,18.8H6.6v-5.6h8.8 M18.7,6.6H3.3C1.5,6.6,0,8,0,9.9v6.7h4.4V21h13.2v-4.4H22V9.9
		C22,8,20.5,6.6,18.7,6.6z"/>
</g>
<g id="right_line_arrow" class="st0">
	<path class="st5" d="M-0.1,9.6v2.8h16.7L8.9,20l2,2l11-11l-11-11l-2,2l7.6,7.6H-0.1z"/>
</g>
<g id="left_line_arrow" class="st0">
	<path class="st5" d="M22.1,9.6v2.8H5.4l7.6,7.6l-2,2l-11-11l11-11l2,2L5.4,9.6H22.1z"/>
</g>
</svg>
